<?xml version="1.0" encoding="UTF-8" standalone="no"?>
<!DOCTYPE svg PUBLIC "-//W3C//DTD SVG 1.1//EN"
 "http://www.w3.org/Graphics/SVG/1.1/DTD/svg11.dtd">
<!-- Generated by graphviz version 2.26.0 (20091210.2329)
 -->
<!-- Title: utahemulabcm Pages: 1 -->
<svg width="532pt" height="720pt"
 viewBox="0.00 0.00 531.66 720.00" xmlns="http://www.w3.org/2000/svg" xmlns:xlink="http://www.w3.org/1999/xlink">
<g id="graph1" class="graph" transform="scale(0.0190333 0.0190333) rotate(0) translate(4 37824.4)">
<title>utahemulabcm</title>
<polygon fill="white" stroke="white" points="-4,5 -4,-37824.4 27930,-37824.4 27930,5 -4,5"/>
<!-- cisco3 -->
<g id="node1" class="node"><title>cisco3</title>
<polygon fill="#009acd" stroke="#009acd" points="18424.4,-26811.9 16988.4,-26811.9 16984.4,-26807.9 16984.4,-26091.9 18420.4,-26091.9 18424.4,-26095.9 18424.4,-26811.9"/>
<polyline fill="none" stroke="#009acd" points="18420.4,-26807.9 16984.4,-26807.9 "/>
<polyline fill="none" stroke="#009acd" points="18420.4,-26807.9 18420.4,-26091.9 "/>
<polyline fill="none" stroke="#009acd" points="18420.4,-26807.9 18424.4,-26811.9 "/>
<text text-anchor="middle" x="17704.4" y="-26348.4" font-family="Times New Roman,serif" font-size="300.00">cisco3</text>
</g>
<!-- cisco1 -->
<g id="node2" class="node"><title>cisco1</title>
<polygon fill="#009acd" stroke="#009acd" points="17478,-30163.3 16042,-30163.3 16038,-30159.3 16038,-29443.3 17474,-29443.3 17478,-29447.3 17478,-30163.3"/>
<polyline fill="none" stroke="#009acd" points="17474,-30159.3 16038,-30159.3 "/>
<polyline fill="none" stroke="#009acd" points="17474,-30159.3 17474,-29443.3 "/>
<polyline fill="none" stroke="#009acd" points="17474,-30159.3 17478,-30163.3 "/>
<text text-anchor="middle" x="16758" y="-29699.8" font-family="Times New Roman,serif" font-size="300.00">cisco1</text>
</g>
<!-- cisco3&#45;&#45;cisco1 -->
<g id="edge2" class="edge"><title>cisco3&#45;&#45;cisco1</title>
<path fill="none" stroke="#009acd" stroke-width="60" d="M17602.7,-26812.1C17420.7,-27456.4 17041.6,-28798.9 16859.7,-29443.2"/>
</g>
<!-- cisco4 -->
<g id="node3" class="node"><title>cisco4</title>
<polygon fill="#009acd" stroke="#009acd" points="22761.5,-26726.9 21325.5,-26726.9 21321.5,-26722.9 21321.5,-26006.9 22757.5,-26006.9 22761.5,-26010.9 22761.5,-26726.9"/>
<polyline fill="none" stroke="#009acd" points="22757.5,-26722.9 21321.5,-26722.9 "/>
<polyline fill="none" stroke="#009acd" points="22757.5,-26722.9 22757.5,-26006.9 "/>
<polyline fill="none" stroke="#009acd" points="22757.5,-26722.9 22761.5,-26726.9 "/>
<text text-anchor="middle" x="22041.5" y="-26263.4" font-family="Times New Roman,serif" font-size="300.00">cisco4</text>
</g>
<!-- cisco3&#45;&#45;cisco4 -->
<g id="edge10" class="edge"><title>cisco3&#45;&#45;cisco4</title>
<path fill="none" stroke="#009acd" stroke-width="60" d="M18424.6,-26437.7C19227.4,-26422 20518.2,-26396.7 21321.1,-26381"/>
</g>
<!-- cisco8 -->
<g id="node5" class="node"><title>cisco8</title>
<polygon fill="#009acd" stroke="#009acd" points="14644.9,-24851.3 13208.9,-24851.3 13204.9,-24847.3 13204.9,-24131.3 14640.9,-24131.3 14644.9,-24135.3 14644.9,-24851.3"/>
<polyline fill="none" stroke="#009acd" points="14640.9,-24847.3 13204.9,-24847.3 "/>
<polyline fill="none" stroke="#009acd" points="14640.9,-24847.3 14640.9,-24131.3 "/>
<polyline fill="none" stroke="#009acd" points="14640.9,-24847.3 14644.9,-24851.3 "/>
<text text-anchor="middle" x="13924.9" y="-24387.8" font-family="Times New Roman,serif" font-size="300.00">cisco8</text>
</g>
<!-- cisco3&#45;&#45;cisco8 -->
<g id="edge4" class="edge"><title>cisco3&#45;&#45;cisco8</title>
<path fill="none" stroke="#009acd" stroke-width="60" d="M17010.4,-26091.8C16330.2,-25739 15299.2,-25204.2 14619,-24851.4"/>
</g>
<!-- cisco9 -->
<g id="node6" class="node"><title>cisco9</title>
<polygon fill="#009acd" stroke="#009acd" points="19416.5,-29812.9 17980.5,-29812.9 17976.5,-29808.9 17976.5,-29092.9 19412.5,-29092.9 19416.5,-29096.9 19416.5,-29812.9"/>
<polyline fill="none" stroke="#009acd" points="19412.5,-29808.9 17976.5,-29808.9 "/>
<polyline fill="none" stroke="#009acd" points="19412.5,-29808.9 19412.5,-29092.9 "/>
<polyline fill="none" stroke="#009acd" points="19412.5,-29808.9 19416.5,-29812.9 "/>
<text text-anchor="middle" x="18696.5" y="-29349.4" font-family="Times New Roman,serif" font-size="300.00">cisco9</text>
</g>
<!-- cisco3&#45;&#45;cisco9 -->
<g id="edge6" class="edge"><title>cisco3&#45;&#45;cisco9</title>
<path fill="none" stroke="#009acd" stroke-width="60" d="M17823.5,-26812C18014.3,-27389.2 18386.5,-28515.3 18577.4,-29092.6"/>
</g>
<!-- cisco10 -->
<g id="node7" class="node"><title>cisco10</title>
<polygon fill="#009acd" stroke="#009acd" points="19996.2,-28416.8 18560.2,-28416.8 18556.2,-28412.8 18556.2,-27696.8 19992.2,-27696.8 19996.2,-27700.8 19996.2,-28416.8"/>
<polyline fill="none" stroke="#009acd" points="19992.2,-28412.8 18556.2,-28412.8 "/>
<polyline fill="none" stroke="#009acd" points="19992.2,-28412.8 19992.2,-27696.8 "/>
<polyline fill="none" stroke="#009acd" points="19992.2,-28412.8 19996.2,-28416.8 "/>
<text text-anchor="middle" x="19276.2" y="-27953.3" font-family="Times New Roman,serif" font-size="300.00">cisco10</text>
</g>
<!-- cisco3&#45;&#45;cisco10 -->
<g id="edge8" class="edge"><title>cisco3&#45;&#45;cisco10</title>
<path fill="none" stroke="#009acd" stroke-width="60" d="M18057.2,-26812C18315.7,-27076 18665.1,-27432.8 18923.6,-27696.7"/>
</g>
<!-- pc177 -->
<g id="node18" class="node"><title>pc177</title>
<ellipse fill="palegreen" stroke="palegreen" cx="26734.8" cy="-27441.3" rx="529.83" ry="241.123"/>
<text text-anchor="middle" x="26734.8" y="-27337.8" font-family="Times New Roman,serif" font-size="300.00">pc177</text>
</g>
<!-- cisco4&#45;&#45;pc177 -->
<g id="edge22" class="edge"><title>cisco4&#45;&#45;pc177</title>
<path fill="none" stroke="black" stroke-width="8" d="M22761.7,-26531.7C23733.2,-26754.2 25436.8,-27144.2 26261.2,-27332.9"/>
</g>
<!-- ixp9 -->
<g id="node22" class="node"><title>ixp9</title>
<ellipse fill="none" stroke="palegreen" stroke-dasharray="1,5" cx="27130.6" cy="-28749.7" rx="388.909" ry="241.123"/>
<text text-anchor="middle" x="27130.6" y="-28646.2" font-family="Times New Roman,serif" font-size="300.00">ixp9</text>
</g>
<!-- cisco4&#45;&#45;ixp9 -->
<g id="edge26" class="edge"><title>cisco4&#45;&#45;ixp9</title>
<path fill="none" stroke="black" stroke-width="8" d="M22761.5,-26704C23888.7,-27231.8 26023.4,-28231.3 26820.3,-28604.4"/>
</g>
<!-- ixp8 -->
<g id="node23" class="node"><title>ixp8</title>
<ellipse fill="none" stroke="palegreen" stroke-dasharray="1,5" cx="24361.3" cy="-31199.6" rx="388.909" ry="241.123"/>
<text text-anchor="middle" x="24361.3" y="-31096.1" font-family="Times New Roman,serif" font-size="300.00">ixp8</text>
</g>
<!-- cisco4&#45;&#45;ixp8 -->
<g id="edge24" class="edge"><title>cisco4&#45;&#45;ixp8</title>
<path fill="none" stroke="black" stroke-width="8" d="M22214.4,-26727.1C22667.1,-27670.1 23877.3,-30191.3 24250.3,-30968.4"/>
</g>
<!-- pc171 -->
<g id="node41" class="node"><title>pc171</title>
<ellipse fill="palegreen" stroke="palegreen" cx="27141.3" cy="-24121.4" rx="529.83" ry="241.123"/>
<text text-anchor="middle" x="27141.3" y="-24017.9" font-family="Times New Roman,serif" font-size="300.00">pc171</text>
</g>
<!-- cisco4&#45;&#45;pc171 -->
<g id="edge14" class="edge"><title>cisco4&#45;&#45;pc171</title>
<path fill="none" stroke="black" stroke-width="8" d="M22761.7,-26049.8C23859.4,-25566.5 25912.8,-24662.4 26760.4,-24289.2"/>
</g>
<!-- ixp3 -->
<g id="node44" class="node"><title>ixp3</title>
<ellipse fill="none" stroke="palegreen" stroke-dasharray="1,5" cx="26299.1" cy="-22086.6" rx="388.909" ry="241.123"/>
<text text-anchor="middle" x="26299.1" y="-21983.1" font-family="Times New Roman,serif" font-size="300.00">ixp3</text>
</g>
<!-- cisco4&#45;&#45;ixp3 -->
<g id="edge16" class="edge"><title>cisco4&#45;&#45;ixp3</title>
<path fill="none" stroke="black" stroke-width="8" d="M22399.9,-26006.5C23260.2,-25141.7 25420.4,-22970 26094.8,-22292.1"/>
</g>
<!-- pc170 -->
<g id="node45" class="node"><title>pc170</title>
<ellipse fill="palegreen" stroke="palegreen" cx="25025.2" cy="-22521.8" rx="529.83" ry="241.123"/>
<text text-anchor="middle" x="25025.2" y="-22418.3" font-family="Times New Roman,serif" font-size="300.00">pc170</text>
</g>
<!-- cisco4&#45;&#45;pc170 -->
<g id="edge12" class="edge"><title>cisco4&#45;&#45;pc170</title>
<path fill="none" stroke="black" stroke-width="8" d="M22320.9,-26006.9C22927.3,-25225.3 24350,-23392 24848.7,-22749.3"/>
</g>
<!-- ixp4 -->
<g id="node48" class="node"><title>ixp4</title>
<ellipse fill="none" stroke="palegreen" stroke-dasharray="1,5" cx="27535" cy="-25419.7" rx="388.909" ry="241.123"/>
<text text-anchor="middle" x="27535" y="-25316.2" font-family="Times New Roman,serif" font-size="300.00">ixp4</text>
</g>
<!-- cisco4&#45;&#45;ixp4 -->
<g id="edge18" class="edge"><title>cisco4&#45;&#45;ixp4</title>
<path fill="none" stroke="black" stroke-width="8" d="M22761.8,-26242.7C23944.3,-26038.8 26256,-25640.2 27159.9,-25484.4"/>
</g>
<!-- pc176 -->
<g id="node51" class="node"><title>pc176</title>
<ellipse fill="palegreen" stroke="palegreen" cx="25322.4" cy="-30229.5" rx="529.83" ry="241.123"/>
<text text-anchor="middle" x="25322.4" y="-30126" font-family="Times New Roman,serif" font-size="300.00">pc176</text>
</g>
<!-- cisco4&#45;&#45;pc176 -->
<g id="edge20" class="edge"><title>cisco4&#45;&#45;pc176</title>
<path fill="none" stroke="black" stroke-width="8" d="M22347.6,-26727.2C23015,-27513 24585.4,-29361.7 25131.3,-30004.5"/>
</g>
<!-- cisco5 -->
<g id="node4" class="node"><title>cisco5</title>
<polygon fill="#009acd" stroke="#009acd" points="13270.3,-20705.4 11834.3,-20705.4 11830.3,-20701.4 11830.3,-19985.4 13266.3,-19985.4 13270.3,-19989.4 13270.3,-20705.4"/>
<polyline fill="none" stroke="#009acd" points="13266.3,-20701.4 11830.3,-20701.4 "/>
<polyline fill="none" stroke="#009acd" points="13266.3,-20701.4 13266.3,-19985.4 "/>
<polyline fill="none" stroke="#009acd" points="13266.3,-20701.4 13270.3,-20705.4 "/>
<text text-anchor="middle" x="12550.3" y="-20241.9" font-family="Times New Roman,serif" font-size="300.00">cisco5</text>
</g>
<!-- cisco5&#45;&#45;cisco8 -->
<g id="edge34" class="edge"><title>cisco5&#45;&#45;cisco8</title>
<path fill="none" stroke="#009acd" stroke-width="60" d="M12669.8,-20705.7C12929.9,-21490.3 13545.3,-23346.3 13805.4,-24131"/>
</g>
<!-- cisco12 -->
<g id="node8" class="node"><title>cisco12</title>
<polygon fill="#009acd" stroke="#009acd" points="11430.1,-17294.5 9994.15,-17294.5 9990.15,-17290.5 9990.15,-16574.5 11426.1,-16574.5 11430.1,-16578.5 11430.1,-17294.5"/>
<polyline fill="none" stroke="#009acd" points="11426.1,-17290.5 9990.15,-17290.5 "/>
<polyline fill="none" stroke="#009acd" points="11426.1,-17290.5 11426.1,-16574.5 "/>
<polyline fill="none" stroke="#009acd" points="11426.1,-17290.5 11430.1,-17294.5 "/>
<text text-anchor="middle" x="10710.1" y="-16831" font-family="Times New Roman,serif" font-size="300.00">cisco12</text>
</g>
<!-- cisco5&#45;&#45;cisco12 -->
<g id="edge32" class="edge"><title>cisco5&#45;&#45;cisco12</title>
<path fill="none" stroke="#009acd" stroke-width="60" d="M12356,-19985.2C12002.5,-19329.9 11257.9,-17949.9 10904.4,-17294.6"/>
</g>
<!-- pc286 -->
<g id="node16" class="node"><title>pc286</title>
<ellipse fill="palegreen" stroke="palegreen" cx="16558" cy="-20766.9" rx="529.83" ry="241.123"/>
<text text-anchor="middle" x="16558" y="-20663.4" font-family="Times New Roman,serif" font-size="300.00">pc286</text>
</g>
<!-- cisco5&#45;&#45;pc286 -->
<g id="edge28" class="edge"><title>cisco5&#45;&#45;pc286</title>
<path fill="none" stroke="black" stroke-width="8" d="M13270.6,-20421.2C14068.8,-20505.1 15336.2,-20638.4 16041.4,-20712.6"/>
</g>
<!-- pc287 -->
<g id="node31" class="node"><title>pc287</title>
<ellipse fill="palegreen" stroke="palegreen" cx="14934" cy="-20814.4" rx="529.83" ry="241.123"/>
<text text-anchor="middle" x="14934" y="-20710.9" font-family="Times New Roman,serif" font-size="300.00">pc287</text>
</g>
<!-- cisco5&#45;&#45;pc287 -->
<g id="edge30" class="edge"><title>cisco5&#45;&#45;pc287</title>
<path fill="none" stroke="black" stroke-width="8" d="M13270.4,-20487.1C13651.2,-20562 14108.7,-20652 14447.4,-20718.7"/>
</g>
<!-- netfpga6 -->
<g id="node15" class="node"><title>netfpga6</title>
<ellipse fill="none" stroke="palegreen" stroke-dasharray="1,5" cx="14869.4" cy="-22224.3" rx="753.983" ry="241.123"/>
<text text-anchor="middle" x="14869.4" y="-22120.8" font-family="Times New Roman,serif" font-size="300.00">netfpga6</text>
</g>
<!-- cisco8&#45;&#45;netfpga6 -->
<g id="edge36" class="edge"><title>cisco8&#45;&#45;netfpga6</title>
<path fill="none" stroke="black" stroke-width="8" d="M14074.9,-24131.2C14269.6,-23664 14603.8,-22861.9 14769.8,-22463.4"/>
</g>
<!-- cisco8&#45;&#45;pc286 -->
<g id="edge54" class="edge"><title>cisco8&#45;&#45;pc286</title>
<path fill="none" stroke="black" stroke-width="8" d="M14179.5,-24131.3C14716.4,-23371.7 15952.1,-21624 16395.7,-20996.5"/>
</g>
<!-- pc229 -->
<g id="node17" class="node"><title>pc229</title>
<ellipse fill="palegreen" stroke="palegreen" cx="10645.2" cy="-26854.8" rx="529.83" ry="241.123"/>
<text text-anchor="middle" x="10645.2" y="-26751.3" font-family="Times New Roman,serif" font-size="300.00">pc229</text>
</g>
<!-- cisco8&#45;&#45;pc229 -->
<g id="edge52" class="edge"><title>cisco8&#45;&#45;pc229</title>
<path fill="none" stroke="black" stroke-width="8" d="M13425,-24851.6C12727.2,-25354.4 11484.5,-26250 10928.1,-26651"/>
</g>
<!-- netfpga1 -->
<g id="node19" class="node"><title>netfpga1</title>
<ellipse fill="none" stroke="palegreen" stroke-dasharray="1,5" cx="8975.5" cy="-28426.2" rx="753.983" ry="241.123"/>
<text text-anchor="middle" x="8975.5" y="-28322.7" font-family="Times New Roman,serif" font-size="300.00">netfpga1</text>
</g>
<!-- cisco8&#45;&#45;netfpga1 -->
<g id="edge40" class="edge"><title>cisco8&#45;&#45;netfpga1</title>
<path fill="none" stroke="black" stroke-width="8" d="M13472,-24851.4C12467.4,-25650 10076.7,-27550.7 9256.98,-28202.4"/>
</g>
<!-- pc226 -->
<g id="node25" class="node"><title>pc226</title>
<ellipse fill="palegreen" stroke="palegreen" cx="9381.35" cy="-24494.9" rx="529.83" ry="241.123"/>
<text text-anchor="middle" x="9381.35" y="-24391.4" font-family="Times New Roman,serif" font-size="300.00">pc226</text>
</g>
<!-- cisco8&#45;&#45;pc226 -->
<g id="edge48" class="edge"><title>cisco8&#45;&#45;pc226</title>
<path fill="none" stroke="black" stroke-width="8" d="M13204.6,-24491.9C12288.1,-24492.6 10726.4,-24493.9 9911.61,-24494.5"/>
</g>
<!-- netfpga4 -->
<g id="node27" class="node"><title>netfpga4</title>
<ellipse fill="none" stroke="palegreen" stroke-dasharray="1,5" cx="13519.2" cy="-28654" rx="753.983" ry="241.123"/>
<text text-anchor="middle" x="13519.2" y="-28550.5" font-family="Times New Roman,serif" font-size="300.00">netfpga4</text>
</g>
<!-- cisco8&#45;&#45;netfpga4 -->
<g id="edge46" class="edge"><title>cisco8&#45;&#45;netfpga4</title>
<path fill="none" stroke="black" stroke-width="8" d="M13889.8,-24851.6C13808.8,-25682.3 13610.8,-27713.8 13542.7,-28412.9"/>
</g>
<!-- netfpga5 -->
<g id="node29" class="node"><title>netfpga5</title>
<ellipse fill="none" stroke="palegreen" stroke-dasharray="1,5" cx="17738.1" cy="-21575.4" rx="753.983" ry="241.123"/>
<text text-anchor="middle" x="17738.1" y="-21471.9" font-family="Times New Roman,serif" font-size="300.00">netfpga5</text>
</g>
<!-- cisco8&#45;&#45;netfpga5 -->
<g id="edge58" class="edge"><title>cisco8&#45;&#45;netfpga5</title>
<path fill="none" stroke="black" stroke-width="8" d="M14395.8,-24131.2C15194.5,-23520.5 16791.8,-22299 17447.2,-21797.8"/>
</g>
<!-- cisco8&#45;&#45;pc287 -->
<g id="edge56" class="edge"><title>cisco8&#45;&#45;pc287</title>
<path fill="none" stroke="black" stroke-width="8" d="M14023.7,-24131.2C14228.8,-23384 14695.8,-21682.2 14868.4,-21053.6"/>
</g>
<!-- netfpga2 -->
<g id="node39" class="node"><title>netfpga2</title>
<ellipse fill="none" stroke="palegreen" stroke-dasharray="1,5" cx="12020.8" cy="-26628.7" rx="753.983" ry="241.123"/>
<text text-anchor="middle" x="12020.8" y="-26525.2" font-family="Times New Roman,serif" font-size="300.00">netfpga2</text>
</g>
<!-- cisco8&#45;&#45;netfpga2 -->
<g id="edge38" class="edge"><title>cisco8&#45;&#45;netfpga2</title>
<path fill="none" stroke="black" stroke-width="8" d="M13604,-24851.5C13211.6,-25292 12558.8,-26024.8 12227.4,-26396.8"/>
</g>
<!-- pc227 -->
<g id="node40" class="node"><title>pc227</title>
<ellipse fill="palegreen" stroke="palegreen" cx="12406.3" cy="-29509.9" rx="529.83" ry="241.123"/>
<text text-anchor="middle" x="12406.3" y="-29406.4" font-family="Times New Roman,serif" font-size="300.00">pc227</text>
</g>
<!-- cisco8&#45;&#45;pc227 -->
<g id="edge50" class="edge"><title>cisco8&#45;&#45;pc227</title>
<path fill="none" stroke="black" stroke-width="8" d="M13815.9,-24851.5C13522.8,-25820.1 12723.4,-28461.9 12478.6,-29271.1"/>
</g>
<!-- netfpga3 -->
<g id="node46" class="node"><title>netfpga3</title>
<ellipse fill="none" stroke="palegreen" stroke-dasharray="1,5" cx="8438.96" cy="-25518.3" rx="753.983" ry="241.123"/>
<text text-anchor="middle" x="8438.96" y="-25414.8" font-family="Times New Roman,serif" font-size="300.00">netfpga3</text>
</g>
<!-- cisco8&#45;&#45;netfpga3 -->
<g id="edge44" class="edge"><title>cisco8&#45;&#45;netfpga3</title>
<path fill="none" stroke="black" stroke-width="8" d="M13204.9,-24626.1C12130.2,-24827.3 10122.8,-25203.1 9089.81,-25396.4"/>
</g>
<!-- pc228 -->
<g id="node47" class="node"><title>pc228</title>
<ellipse fill="palegreen" stroke="palegreen" cx="9939.84" cy="-29417.4" rx="529.83" ry="241.123"/>
<text text-anchor="middle" x="9939.84" y="-29313.9" font-family="Times New Roman,serif" font-size="300.00">pc228</text>
</g>
<!-- cisco8&#45;&#45;pc228 -->
<g id="edge42" class="edge"><title>cisco8&#45;&#45;pc228</title>
<path fill="none" stroke="black" stroke-width="8" d="M13633.5,-24851.6C12857.3,-25811 10756.2,-28408.2 10122.9,-29191.1"/>
</g>
<!-- procurvepgenisalt -->
<g id="node9" class="node"><title>procurvepgenisalt</title>
<polygon fill="#009acd" stroke="#009acd" points="10980.9,-13365.1 8818.95,-13365.1 8814.95,-13361.1 8814.95,-12645.1 10976.9,-12645.1 10980.9,-12649.1 10980.9,-13365.1"/>
<polyline fill="none" stroke="#009acd" points="10976.9,-13361.1 8814.95,-13361.1 "/>
<polyline fill="none" stroke="#009acd" points="10976.9,-13361.1 10976.9,-12645.1 "/>
<polyline fill="none" stroke="#009acd" points="10976.9,-13361.1 10980.9,-13365.1 "/>
<text text-anchor="middle" x="9897.95" y="-12901.6" font-family="Times New Roman,serif" font-size="300.00">procurvepgenisalt</text>
</g>
<!-- cisco12&#45;&#45;procurvepgenisalt -->
<g id="edge60" class="edge"><title>cisco12&#45;&#45;procurvepgenisalt</title>
<path fill="none" stroke="#009acd" stroke-width="60" d="M10635.6,-16574.1C10481,-15826.1 10126.9,-14112.9 9972.38,-13365.2"/>
</g>
<!-- procurve6 -->
<g id="node11" class="node"><title>procurve6</title>
<polygon fill="#009acd" stroke="#009acd" points="7871.58,-18352.3 6435.58,-18352.3 6431.58,-18348.3 6431.58,-17632.3 7867.58,-17632.3 7871.58,-17636.3 7871.58,-18352.3"/>
<polyline fill="none" stroke="#009acd" points="7867.58,-18348.3 6431.58,-18348.3 "/>
<polyline fill="none" stroke="#009acd" points="7867.58,-18348.3 7867.58,-17632.3 "/>
<polyline fill="none" stroke="#009acd" points="7867.58,-18348.3 7871.58,-18352.3 "/>
<text text-anchor="middle" x="7151.58" y="-17888.8" font-family="Times New Roman,serif" font-size="300.00">procurve6</text>
</g>
<!-- cisco12&#45;&#45;procurve6 -->
<g id="edge62" class="edge"><title>cisco12&#45;&#45;procurve6</title>
<path fill="none" stroke="#009acd" stroke-width="60" d="M9990.02,-17148.6C9373,-17332 8488.82,-17594.8 7871.78,-17778.2"/>
</g>
<!-- procurvepgenikans -->
<g id="node13" class="node"><title>procurvepgenikans</title>
<polygon fill="#009acd" stroke="#009acd" points="11727,-9139.7 9431.04,-9139.7 9427.04,-9135.7 9427.04,-8419.7 11723,-8419.7 11727,-8423.7 11727,-9139.7"/>
<polyline fill="none" stroke="#009acd" points="11723,-9135.7 9427.04,-9135.7 "/>
<polyline fill="none" stroke="#009acd" points="11723,-9135.7 11723,-8419.7 "/>
<polyline fill="none" stroke="#009acd" points="11723,-9135.7 11727,-9139.7 "/>
<text text-anchor="middle" x="10577" y="-8676.2" font-family="Times New Roman,serif" font-size="300.00">procurvepgenikans</text>
</g>
<!-- procurvepgenisalt&#45;&#45;procurvepgenikans -->
<g id="edge78" class="edge"><title>procurvepgenisalt&#45;&#45;procurvepgenikans</title>
<path fill="none" stroke="#009acd" stroke-width="60" d="M9955.85,-12644.9C10084.1,-11846.8 10390.9,-9937.7 10519.2,-9139.8"/>
</g>
<!-- pg45 -->
<g id="node14" class="node"><title>pg45</title>
<ellipse fill="palegreen" stroke="palegreen" cx="4713.78" cy="-12543.8" rx="435.785" ry="241.123"/>
<text text-anchor="middle" x="4713.78" y="-12440.3" font-family="Times New Roman,serif" font-size="300.00">pg45</text>
</g>
<!-- procurvepgenisalt&#45;&#45;pg45 -->
<g id="edge64" class="edge"><title>procurvepgenisalt&#45;&#45;pg45</title>
<path fill="none" stroke="black" stroke-width="8" d="M8814.73,-12908.7C7676.62,-12807.4 5943.15,-12653.2 5144.36,-12582.1"/>
</g>
<!-- netfpga20 -->
<g id="node24" class="node"><title>netfpga20</title>
<ellipse fill="none" stroke="palegreen" stroke-dasharray="1,5" cx="5795.74" cy="-11659.8" rx="860.049" ry="241.123"/>
<text text-anchor="middle" x="5795.74" y="-11556.3" font-family="Times New Roman,serif" font-size="300.00">netfpga20</text>
</g>
<!-- procurvepgenisalt&#45;&#45;netfpga20 -->
<g id="edge68" class="edge"><title>procurvepgenisalt&#45;&#45;netfpga20</title>
<path fill="none" stroke="black" stroke-width="8" d="M8814.77,-12649.9C8024.16,-12390.6 6984.6,-12049.7 6354.54,-11843.1"/>
</g>
<!-- netfpga18 -->
<g id="node28" class="node"><title>netfpga18</title>
<ellipse fill="none" stroke="palegreen" stroke-dasharray="1,5" cx="15133.6" cy="-12041" rx="860.049" ry="241.123"/>
<text text-anchor="middle" x="15133.6" y="-11937.5" font-family="Times New Roman,serif" font-size="300.00">netfpga18</text>
</g>
<!-- procurvepgenisalt&#45;&#45;netfpga18 -->
<g id="edge66" class="edge"><title>procurvepgenisalt&#45;&#45;netfpga18</title>
<path fill="none" stroke="black" stroke-width="8" d="M10981.2,-12805.7C12009.9,-12616.2 13527.3,-12336.8 14414.7,-12173.4"/>
</g>
<!-- netfpga21 -->
<g id="node36" class="node"><title>netfpga21</title>
<ellipse fill="none" stroke="palegreen" stroke-dasharray="1,5" cx="5280.5" cy="-13820.3" rx="860.049" ry="241.123"/>
<text text-anchor="middle" x="5280.5" y="-13716.8" font-family="Times New Roman,serif" font-size="300.00">netfpga21</text>
</g>
<!-- procurvepgenisalt&#45;&#45;netfpga21 -->
<g id="edge70" class="edge"><title>procurvepgenisalt&#45;&#45;netfpga21</title>
<path fill="none" stroke="black" stroke-width="8" d="M8814.63,-13196.4C7950.12,-13349 6762.83,-13558.6 6008.54,-13691.8"/>
</g>
<!-- netfpga19 -->
<g id="node49" class="node"><title>netfpga19</title>
<ellipse fill="none" stroke="palegreen" stroke-dasharray="1,5" cx="12511.4" cy="-12056.4" rx="860.049" ry="241.123"/>
<text text-anchor="middle" x="12511.4" y="-11952.9" font-family="Times New Roman,serif" font-size="300.00">netfpga19</text>
</g>
<!-- procurvepgenisalt&#45;&#45;netfpga19 -->
<g id="edge72" class="edge"><title>procurvepgenisalt&#45;&#45;netfpga19</title>
<path fill="none" stroke="black" stroke-width="8" d="M10889.7,-12645.1C11262.4,-12509.8 11671.5,-12361.3 11985.6,-12247.3"/>
</g>
<!-- pg44 -->
<g id="node50" class="node"><title>pg44</title>
<ellipse fill="palegreen" stroke="palegreen" cx="13828.8" cy="-11670.1" rx="435.785" ry="241.123"/>
<text text-anchor="middle" x="13828.8" y="-11566.6" font-family="Times New Roman,serif" font-size="300.00">pg44</text>
</g>
<!-- procurvepgenisalt&#45;&#45;pg44 -->
<g id="edge74" class="edge"><title>procurvepgenisalt&#45;&#45;pg44</title>
<path fill="none" stroke="black" stroke-width="8" d="M10958.1,-12645.1C11786.7,-12363.7 12889.8,-11989 13457.1,-11796.3"/>
</g>
<!-- sppsalt1 -->
<g id="node90" class="node"><title>sppsalt1</title>
<ellipse fill="none" stroke="black" cx="3845.76" cy="-14674.4" rx="707.814" ry="241.123"/>
<text text-anchor="middle" x="3845.76" y="-14570.9" font-family="Times New Roman,serif" font-size="300.00">sppsalt1</text>
</g>
<!-- procurvepgenisalt&#45;&#45;sppsalt1 -->
<g id="edge76" class="edge"><title>procurvepgenisalt&#45;&#45;sppsalt1</title>
<path fill="none" stroke="black" stroke-width="8" d="M8814.63,-13303.9C7517.07,-13661.8 5393.88,-14247.4 4396.28,-14522.5"/>
</g>
<!-- widearea_switch1 -->
<g id="node10" class="node"><title>widearea_switch1</title>
<polygon fill="#009acd" stroke="#009acd" points="22065,-13146 19885,-13146 19881,-13142 19881,-12426 22061,-12426 22065,-12430 22065,-13146"/>
<polyline fill="none" stroke="#009acd" points="22061,-13142 19881,-13142 "/>
<polyline fill="none" stroke="#009acd" points="22061,-13142 22061,-12426 "/>
<polyline fill="none" stroke="#009acd" points="22061,-13142 22065,-13146 "/>
<text text-anchor="middle" x="20973" y="-12682.5" font-family="Times New Roman,serif" font-size="300.00">widearea_switch1</text>
</g>
<!-- pcwf141 -->
<g id="node93" class="node"><title>pcwf141</title>
<ellipse fill="none" stroke="black" cx="755.5" cy="-19680.9" rx="753.983" ry="241.123"/>
<text text-anchor="middle" x="755.5" y="-19577.4" font-family="Times New Roman,serif" font-size="300.00">pcwf141</text>
</g>
<!-- procurve6&#45;&#45;pcwf141 -->
<g id="edge80" class="edge"><title>procurve6&#45;&#45;pcwf141</title>
<path fill="none" stroke="black" stroke-width="8" d="M6431.46,-18182.4C5152.43,-18520.1 2508.88,-19218 1336.84,-19527.4"/>
</g>
<!-- procurvepgeniwash -->
<g id="node12" class="node"><title>procurvepgeniwash</title>
<polygon fill="#009acd" stroke="#009acd" points="8526.12,-6476.39 6164.12,-6476.39 6160.12,-6472.39 6160.12,-5756.39 8522.12,-5756.39 8526.12,-5760.39 8526.12,-6476.39"/>
<polyline fill="none" stroke="#009acd" points="8522.12,-6472.39 6160.12,-6472.39 "/>
<polyline fill="none" stroke="#009acd" points="8522.12,-6472.39 8522.12,-5756.39 "/>
<polyline fill="none" stroke="#009acd" points="8522.12,-6472.39 8526.12,-6476.39 "/>
<text text-anchor="middle" x="7343.12" y="-6012.89" font-family="Times New Roman,serif" font-size="300.00">procurvepgeniwash</text>
</g>
<!-- procurvepgeniwash&#45;&#45;procurvepgenikans -->
<g id="edge96" class="edge"><title>procurvepgeniwash&#45;&#45;procurvepgenikans</title>
<path fill="none" stroke="#009acd" stroke-width="60" d="M7780.52,-6476.62C8398.78,-6985.78 9521.64,-7910.52 10139.8,-8419.61"/>
</g>
<!-- netfpga12 -->
<g id="node21" class="node"><title>netfpga12</title>
<ellipse fill="none" stroke="palegreen" stroke-dasharray="1,5" cx="2398.96" cy="-3988.58" rx="860.049" ry="241.123"/>
<text text-anchor="middle" x="2398.96" y="-3885.08" font-family="Times New Roman,serif" font-size="300.00">netfpga12</text>
</g>
<!-- procurvepgeniwash&#45;&#45;netfpga12 -->
<g id="edge90" class="edge"><title>procurvepgeniwash&#45;&#45;netfpga12</title>
<path fill="none" stroke="black" stroke-width="8" d="M6506.51,-5756.34C5460.01,-5305.96 3704.3,-4550.36 2868.56,-4190.68"/>
</g>
<!-- pg40 -->
<g id="node30" class="node"><title>pg40</title>
<ellipse fill="palegreen" stroke="palegreen" cx="6257.98" cy="-1210.86" rx="435.785" ry="241.123"/>
<text text-anchor="middle" x="6257.98" y="-1107.36" font-family="Times New Roman,serif" font-size="300.00">pg40</text>
</g>
<!-- procurvepgeniwash&#45;&#45;pg40 -->
<g id="edge82" class="edge"><title>procurvepgeniwash&#45;&#45;pg40</title>
<path fill="none" stroke="black" stroke-width="8" d="M7263.44,-5756.17C7053.07,-4805.16 6486.86,-2245.58 6310.9,-1450.1"/>
</g>
<!-- netfpga13 -->
<g id="node34" class="node"><title>netfpga13</title>
<ellipse fill="none" stroke="palegreen" stroke-dasharray="1,5" cx="1251.82" cy="-6359.84" rx="860.049" ry="241.123"/>
<text text-anchor="middle" x="1251.82" y="-6256.34" font-family="Times New Roman,serif" font-size="300.00">netfpga13</text>
</g>
<!-- procurvepgeniwash&#45;&#45;netfpga13 -->
<g id="edge92" class="edge"><title>procurvepgeniwash&#45;&#45;netfpga13</title>
<path fill="none" stroke="black" stroke-width="8" d="M6160.08,-6163.67C4968.79,-6211.28 3160.32,-6283.56 2103.32,-6325.8"/>
</g>
<!-- netfpga11 -->
<g id="node35" class="node"><title>netfpga11</title>
<ellipse fill="none" stroke="palegreen" stroke-dasharray="1,5" cx="4898.03" cy="-1457.65" rx="860.049" ry="241.123"/>
<text text-anchor="middle" x="4898.03" y="-1354.15" font-family="Times New Roman,serif" font-size="300.00">netfpga11</text>
</g>
<!-- procurvepgeniwash&#45;&#45;netfpga11 -->
<g id="edge88" class="edge"><title>procurvepgeniwash&#45;&#45;netfpga11</title>
<path fill="none" stroke="black" stroke-width="8" d="M7154.06,-5756.15C6675.13,-4843.63 5423.85,-2459.51 5023.3,-1696.33"/>
</g>
<!-- netfpga10 -->
<g id="node38" class="node"><title>netfpga10</title>
<ellipse fill="none" stroke="palegreen" stroke-dasharray="1,5" cx="7488.67" cy="-568.305" rx="860.049" ry="241.123"/>
<text text-anchor="middle" x="7488.67" y="-464.805" font-family="Times New Roman,serif" font-size="300.00">netfpga10</text>
</g>
<!-- procurvepgeniwash&#45;&#45;netfpga10 -->
<g id="edge86" class="edge"><title>procurvepgeniwash&#45;&#45;netfpga10</title>
<path fill="none" stroke="black" stroke-width="8" d="M7352.57,-5756.37C7380.02,-4709.78 7459.33,-1686.78 7482.34,-809.593"/>
</g>
<!-- pg41 -->
<g id="node42" class="node"><title>pg41</title>
<ellipse fill="palegreen" stroke="palegreen" cx="2128.78" cy="-5330.79" rx="435.785" ry="241.123"/>
<text text-anchor="middle" x="2128.78" y="-5227.29" font-family="Times New Roman,serif" font-size="300.00">pg41</text>
</g>
<!-- procurvepgeniwash&#45;&#45;pg41 -->
<g id="edge84" class="edge"><title>procurvepgeniwash&#45;&#45;pg41</title>
<path fill="none" stroke="black" stroke-width="8" d="M6159.91,-5938.13C5009.64,-5764.82 3325.93,-5511.15 2549.5,-5394.17"/>
</g>
<!-- sppwash1 -->
<g id="node101" class="node"><title>sppwash1</title>
<ellipse fill="none" stroke="black" cx="10540.9" cy="-242" rx="849.235" ry="241.123"/>
<text text-anchor="middle" x="10540.9" y="-138.5" font-family="Times New Roman,serif" font-size="300.00">sppwash1</text>
</g>
<!-- procurvepgeniwash&#45;&#45;sppwash1 -->
<g id="edge94" class="edge"><title>procurvepgeniwash&#45;&#45;sppwash1</title>
<path fill="none" stroke="black" stroke-width="8" d="M7539.1,-5756.39C8135.01,-4661.7 9914.93,-1391.98 10411.2,-480.331"/>
</g>
<!-- netfpga16 -->
<g id="node20" class="node"><title>netfpga16</title>
<ellipse fill="none" stroke="palegreen" stroke-dasharray="1,5" cx="15906" cy="-7712.82" rx="860.049" ry="241.123"/>
<text text-anchor="middle" x="15906" y="-7609.32" font-family="Times New Roman,serif" font-size="300.00">netfpga16</text>
</g>
<!-- procurvepgenikans&#45;&#45;netfpga16 -->
<g id="edge106" class="edge"><title>procurvepgenikans&#45;&#45;netfpga16</title>
<path fill="none" stroke="black" stroke-width="8" d="M11727.2,-8549.44C12785.5,-8337.56 14321,-8030.15 15206,-7852.97"/>
</g>
<!-- netfpga14 -->
<g id="node26" class="node"><title>netfpga14</title>
<ellipse fill="none" stroke="palegreen" stroke-dasharray="1,5" cx="14273.1" cy="-3920.85" rx="860.049" ry="241.123"/>
<text text-anchor="middle" x="14273.1" y="-3817.35" font-family="Times New Roman,serif" font-size="300.00">netfpga14</text>
</g>
<!-- procurvepgenikans&#45;&#45;netfpga14 -->
<g id="edge98" class="edge"><title>procurvepgenikans&#45;&#45;netfpga14</title>
<path fill="none" stroke="black" stroke-width="8" d="M10851.1,-8419.46C11570,-7474.31 13496.1,-4942.29 14093.7,-4156.67"/>
</g>
<!-- pg42 -->
<g id="node32" class="node"><title>pg42</title>
<ellipse fill="palegreen" stroke="palegreen" cx="12904.7" cy="-4280.9" rx="435.785" ry="241.123"/>
<text text-anchor="middle" x="12904.7" y="-4177.4" font-family="Times New Roman,serif" font-size="300.00">pg42</text>
</g>
<!-- procurvepgenikans&#45;&#45;pg42 -->
<g id="edge100" class="edge"><title>procurvepgenikans&#45;&#45;pg42</title>
<path fill="none" stroke="black" stroke-width="8" d="M10763.3,-8419.62C11223.6,-7530.06 12404.6,-5247.53 12784.9,-4512.61"/>
</g>
<!-- netfpga17 -->
<g id="node33" class="node"><title>netfpga17</title>
<ellipse fill="none" stroke="palegreen" stroke-dasharray="1,5" cx="16540.5" cy="-5456.09" rx="860.049" ry="241.123"/>
<text text-anchor="middle" x="16540.5" y="-5352.59" font-family="Times New Roman,serif" font-size="300.00">netfpga17</text>
</g>
<!-- procurvepgenikans&#45;&#45;netfpga17 -->
<g id="edge108" class="edge"><title>procurvepgenikans&#45;&#45;netfpga17</title>
<path fill="none" stroke="black" stroke-width="8" d="M11223,-8419.67C12465.1,-7727.41 15152.2,-6229.86 16153.8,-5671.62"/>
</g>
<!-- pg43 -->
<g id="node37" class="node"><title>pg43</title>
<ellipse fill="palegreen" stroke="palegreen" cx="16897.6" cy="-6784.39" rx="435.785" ry="241.123"/>
<text text-anchor="middle" x="16897.6" y="-6680.89" font-family="Times New Roman,serif" font-size="300.00">pg43</text>
</g>
<!-- procurvepgenikans&#45;&#45;pg43 -->
<g id="edge102" class="edge"><title>procurvepgenikans&#45;&#45;pg43</title>
<path fill="none" stroke="black" stroke-width="8" d="M11717.5,-8419.67C13166.2,-7962.34 15589.6,-7197.32 16518.9,-6903.92"/>
</g>
<!-- netfpga15 -->
<g id="node43" class="node"><title>netfpga15</title>
<ellipse fill="none" stroke="palegreen" stroke-dasharray="1,5" cx="12771.7" cy="-5669.61" rx="860.049" ry="241.123"/>
<text text-anchor="middle" x="12771.7" y="-5566.11" font-family="Times New Roman,serif" font-size="300.00">netfpga15</text>
</g>
<!-- procurvepgenikans&#45;&#45;netfpga15 -->
<g id="edge104" class="edge"><title>procurvepgenikans&#45;&#45;netfpga15</title>
<path fill="none" stroke="black" stroke-width="8" d="M10831.2,-8419.52C11285.1,-7776.26 12223.3,-6446.77 12604.9,-5906.07"/>
</g>
<!-- sppkans1 -->
<g id="node110" class="node"><title>sppkans1</title>
<ellipse fill="none" stroke="black" cx="9446.66" cy="-5454.34" rx="801.859" ry="241.123"/>
<text text-anchor="middle" x="9446.66" y="-5350.84" font-family="Times New Roman,serif" font-size="300.00">sppkans1</text>
</g>
<!-- procurvepgenikans&#45;&#45;sppkans1 -->
<g id="edge110" class="edge"><title>procurvepgenikans&#45;&#45;sppkans1</title>
<path fill="none" stroke="black" stroke-width="8" d="M10454.6,-8419.48C10222.5,-7736.62 9724.13,-6270.62 9528.18,-5694.17"/>
</g>
<!-- pg45&#45;&#45;netfpga20 -->
<g id="edge112" class="edge"><title>pg45&#45;&#45;netfpga20</title>
<path fill="none" stroke="#9aff9a" stroke-width="2" stroke-dasharray="1,5" d="M4958.28,-12344C5124.08,-12208.6 5343.65,-12029.2 5516.36,-11888.1"/>
</g>
<!-- pg45&#45;&#45;netfpga21 -->
<g id="edge114" class="edge"><title>pg45&#45;&#45;netfpga21</title>
<path fill="none" stroke="#9aff9a" stroke-width="2" stroke-dasharray="1,5" d="M4817.73,-12777.9C4918.98,-13006 5072.16,-13351 5174.21,-13580.9"/>
</g>
<!-- pc286&#45;&#45;netfpga5 -->
<g id="edge116" class="edge"><title>pc286&#45;&#45;netfpga5</title>
<path fill="none" stroke="#9aff9a" stroke-width="2" stroke-dasharray="1,5" d="M16851.2,-20967.8C17023.8,-21086.1 17242.3,-21235.8 17419.2,-21357"/>
</g>
<!-- pc229&#45;&#45;netfpga2 -->
<g id="edge118" class="edge"><title>pc229&#45;&#45;netfpga2</title>
<path fill="none" stroke="#9aff9a" stroke-width="2" stroke-dasharray="1,5" d="M11143.8,-26772.9C11210.9,-26761.9 11280.6,-26750.4 11350,-26739"/>
</g>
<!-- pc177&#45;&#45;ixp9 -->
<g id="edge120" class="edge"><title>pc177&#45;&#45;ixp9</title>
<path fill="none" stroke="#9aff9a" stroke-width="2" stroke-dasharray="1,5" d="M26807.1,-27680.2C26878.6,-27916.7 26987.6,-28276.9 27059,-28512.8"/>
</g>
<!-- pc226&#45;&#45;netfpga3 -->
<g id="edge122" class="edge"><title>pc226&#45;&#45;netfpga3</title>
<path fill="none" stroke="#9aff9a" stroke-width="2" stroke-dasharray="1,5" d="M9176.57,-24717.3C9021.46,-24885.7 8808.98,-25116.5 8651.9,-25287"/>
</g>
<!-- pg40&#45;&#45;netfpga11 -->
<g id="edge124" class="edge"><title>pg40&#45;&#45;netfpga11</title>
<path fill="none" stroke="#9aff9a" stroke-width="2" stroke-dasharray="1,5" d="M5843.49,-1286.08C5772.29,-1299 5696.49,-1312.76 5619.98,-1326.64"/>
</g>
<!-- pg40&#45;&#45;netfpga10 -->
<g id="edge126" class="edge"><title>pg40&#45;&#45;netfpga10</title>
<path fill="none" stroke="#9aff9a" stroke-width="2" stroke-dasharray="1,5" d="M6575.31,-1045.18C6729.68,-964.583 6917.04,-866.761 7081.79,-780.744"/>
</g>
<!-- pc287&#45;&#45;netfpga6 -->
<g id="edge128" class="edge"><title>pc287&#45;&#45;netfpga6</title>
<path fill="none" stroke="#9aff9a" stroke-width="2" stroke-dasharray="1,5" d="M14923,-21055.6C14911.1,-21314.7 14892.3,-21724.1 14880.5,-21983.2"/>
</g>
<!-- pg42&#45;&#45;netfpga14 -->
<g id="edge130" class="edge"><title>pg42&#45;&#45;netfpga14</title>
<path fill="none" stroke="#9aff9a" stroke-width="2" stroke-dasharray="1,5" d="M13298.7,-4177.24C13407.3,-4148.68 13527.8,-4116.96 13646,-4085.85"/>
</g>
<!-- pg42&#45;&#45;netfpga15 -->
<g id="edge132" class="edge"><title>pg42&#45;&#45;netfpga15</title>
<path fill="none" stroke="#9aff9a" stroke-width="2" stroke-dasharray="1,5" d="M12881.7,-4521.6C12857.3,-4775.81 12819.2,-5174.29 12794.8,-5428.61"/>
</g>
<!-- pg43&#45;&#45;netfpga16 -->
<g id="edge134" class="edge"><title>pg43&#45;&#45;netfpga16</title>
<path fill="none" stroke="#9aff9a" stroke-width="2" stroke-dasharray="1,5" d="M16675.7,-6992.17C16520.5,-7137.43 16313.3,-7331.51 16152.9,-7481.66"/>
</g>
<!-- pg43&#45;&#45;netfpga17 -->
<g id="edge136" class="edge"><title>pg43&#45;&#45;netfpga17</title>
<path fill="none" stroke="#9aff9a" stroke-width="2" stroke-dasharray="1,5" d="M16833.4,-6545.77C16768.9,-6305.69 16669.9,-5937.46 16605.2,-5696.69"/>
</g>
<!-- pc227&#45;&#45;netfpga4 -->
<g id="edge138" class="edge"><title>pc227&#45;&#45;netfpga4</title>
<path fill="none" stroke="#9aff9a" stroke-width="2" stroke-dasharray="1,5" d="M12676,-29302.4C12843.5,-29173.7 13058.5,-29008.2 13229.5,-28876.7"/>
</g>
<!-- pc171&#45;&#45;ixp4 -->
<g id="edge140" class="edge"><title>pc171&#45;&#45;ixp4</title>
<path fill="none" stroke="#9aff9a" stroke-width="2" stroke-dasharray="1,5" d="M27213.7,-24360.3C27284.7,-24594.5 27392.3,-24949.4 27463.1,-25182.9"/>
</g>
<!-- pg41&#45;&#45;netfpga12 -->
<g id="edge142" class="edge"><title>pg41&#45;&#45;netfpga12</title>
<path fill="none" stroke="#9aff9a" stroke-width="2" stroke-dasharray="1,5" d="M2177.01,-5091.22C2225.98,-4847.91 2301.41,-4473.2 2350.48,-4229.43"/>
</g>
<!-- pg41&#45;&#45;netfpga13 -->
<g id="edge144" class="edge"><title>pg41&#45;&#45;netfpga13</title>
<path fill="none" stroke="#9aff9a" stroke-width="2" stroke-dasharray="1,5" d="M1942.8,-5549.02C1798.63,-5718.2 1599.21,-5952.2 1451.65,-6125.35"/>
</g>
<!-- pc170&#45;&#45;ixp3 -->
<g id="edge146" class="edge"><title>pc170&#45;&#45;ixp3</title>
<path fill="none" stroke="#9aff9a" stroke-width="2" stroke-dasharray="1,5" d="M25449,-22377.1C25614.6,-22320.5 25801.9,-22256.5 25958.5,-22203"/>
</g>
<!-- pc228&#45;&#45;netfpga1 -->
<g id="edge148" class="edge"><title>pc228&#45;&#45;netfpga1</title>
<path fill="none" stroke="#9aff9a" stroke-width="2" stroke-dasharray="1,5" d="M9725.23,-29196.8C9568.99,-29036.2 9357.92,-28819.3 9199.54,-28656.5"/>
</g>
<!-- pg44&#45;&#45;netfpga18 -->
<g id="edge150" class="edge"><title>pg44&#45;&#45;netfpga18</title>
<path fill="none" stroke="#9aff9a" stroke-width="2" stroke-dasharray="1,5" d="M14216.8,-11780.4C14315.2,-11808.4 14423.3,-11839.1 14529.6,-11869.3"/>
</g>
<!-- pg44&#45;&#45;netfpga19 -->
<g id="edge152" class="edge"><title>pg44&#45;&#45;netfpga19</title>
<path fill="none" stroke="#9aff9a" stroke-width="2" stroke-dasharray="1,5" d="M13443.3,-11783.1C13337.5,-11814.2 13220.2,-11848.6 13105.6,-11882.2"/>
</g>
<!-- pc176&#45;&#45;ixp8 -->
<g id="edge154" class="edge"><title>pc176&#45;&#45;ixp8</title>
<path fill="none" stroke="#9aff9a" stroke-width="2" stroke-dasharray="1,5" d="M25104.6,-30449.3C24942.8,-30612.7 24723.5,-30834 24565.1,-30993.9"/>
</g>
<!-- pc3 -->
<g id="node133" class="node"><title>pc3</title>
<ellipse fill="limegreen" stroke="limegreen" cx="13897.3" cy="-37072.4" rx="1120" ry="747"/>
<text text-anchor="middle" x="13897.3" y="-36968.9" font-family="Times New Roman,serif" font-size="300.00">83 Nodes</text>
</g>
<!-- pc3&#45;&#45;cisco1 -->
<g id="edge156" class="edge"><title>pc3&#45;&#45;cisco1</title>
<path fill="none" stroke="limegreen" stroke-width="26" d="M14181.7,-36349.7C14784,-34819.2 16169.4,-31298.9 16616.3,-30163.4"/>
</g>
<!-- pc320 -->
<g id="node135" class="node"><title>pc320</title>
<ellipse fill="limegreen" stroke="limegreen" cx="8395.94" cy="-22484.6" rx="1728" ry="1152"/>
<text text-anchor="middle" x="8395.94" y="-22381.1" font-family="Times New Roman,serif" font-size="300.00">128 Nodes</text>
</g>
<!-- pc320&#45;&#45;cisco5 -->
<g id="edge158" class="edge"><title>pc320&#45;&#45;cisco5</title>
<path fill="none" stroke="limegreen" stroke-width="26" d="M9763.8,-21780.2C10462.2,-21420.6 11282.2,-20998.4 11851,-20705.5"/>
</g>
<!-- pc320&#45;&#45;cisco8 -->
<g id="edge160" class="edge"><title>pc320&#45;&#45;cisco8</title>
<path fill="none" stroke="limegreen" stroke-width="26" d="M9913.6,-23035.4C10985.6,-23424.5 12373.9,-23928.4 13204.5,-24229.8"/>
</g>
<!-- pcwf163 -->
<g id="node138" class="node"><title>pcwf163</title>
<ellipse fill="limegreen" stroke="limegreen" cx="18286.4" cy="-36689.2" rx="764.884" ry="261"/>
<text text-anchor="middle" x="18286.4" y="-36585.7" font-family="Times New Roman,serif" font-size="300.00">29 Nodes</text>
</g>
<!-- pcwf163&#45;&#45;cisco10 -->
<g id="edge162" class="edge"><title>pcwf163&#45;&#45;cisco10</title>
<path fill="none" stroke="limegreen" stroke-width="26" d="M18316.4,-36428.2C18459,-35184.2 19069.8,-29857.2 19234.9,-28416.9"/>
</g>
<!-- pc236 -->
<g id="node140" class="node"><title>pc236</title>
<ellipse fill="limegreen" stroke="limegreen" cx="6518.28" cy="-27942.2" rx="707.24" ry="297"/>
<text text-anchor="middle" x="6518.28" y="-27838.7" font-family="Times New Roman,serif" font-size="300.00">33 Nodes</text>
</g>
<!-- pc236&#45;&#45;cisco8 -->
<g id="edge164" class="edge"><title>pc236&#45;&#45;cisco8</title>
<path fill="none" stroke="limegreen" stroke-width="26" d="M6991.8,-27721.6C8252.9,-27134 11699.1,-25528.3 13204.9,-24826.8"/>
</g>
<!-- pcwf3 -->
<g id="node142" class="node"><title>pcwf3</title>
<ellipse fill="limegreen" stroke="limegreen" cx="21357.1" cy="-36065.8" rx="819.037" ry="241.123"/>
<text text-anchor="middle" x="21357.1" y="-35962.3" font-family="Times New Roman,serif" font-size="300.00">12 Nodes</text>
</g>
<!-- pcwf3&#45;&#45;cisco9 -->
<g id="edge166" class="edge"><title>pcwf3&#45;&#45;cisco9</title>
<path fill="none" stroke="limegreen" stroke-width="26" d="M21260.6,-35826C20859.6,-34829.2 19322.5,-31008.9 18841.4,-29813"/>
</g>
<!-- pc41 -->
<g id="node144" class="node"><title>pc41</title>
<ellipse fill="limegreen" stroke="limegreen" cx="15730.9" cy="-33387.8" rx="1255" ry="837"/>
<text text-anchor="middle" x="15730.9" y="-33284.3" font-family="Times New Roman,serif" font-size="300.00">93 Nodes</text>
</g>
<!-- pc41&#45;&#45;cisco3 -->
<g id="edge168" class="edge"><title>pc41&#45;&#45;cisco3</title>
<path fill="none" stroke="limegreen" stroke-width="26" d="M15964.9,-32565.3C16395.7,-31051.5 17297.8,-27880.9 17601.9,-26812.3"/>
</g>
<!-- pc393 -->
<g id="node146" class="node"><title>pc393</title>
<ellipse fill="limegreen" stroke="limegreen" cx="19322.8" cy="-16865.1" rx="712.971" ry="241.123"/>
<text text-anchor="middle" x="19322.8" y="-16761.6" font-family="Times New Roman,serif" font-size="300.00">6 Nodes</text>
</g>
<!-- pc393&#45;&#45;cisco5 -->
<g id="edge170" class="edge"><title>pc393&#45;&#45;cisco5</title>
<path fill="none" stroke="limegreen" stroke-width="26" d="M18930.9,-17066.4C17824.7,-17635 14666.2,-19258.1 13251,-19985.4"/>
</g>
<!-- pc139 -->
<g id="node148" class="node"><title>pc139</title>
<ellipse fill="limegreen" stroke="limegreen" cx="23981.9" cy="-33599.3" rx="819.037" ry="241.123"/>
<text text-anchor="middle" x="23981.9" y="-33495.8" font-family="Times New Roman,serif" font-size="300.00">15 Nodes</text>
</g>
<!-- pc139&#45;&#45;cisco4 -->
<g id="edge172" class="edge"><title>pc139&#45;&#45;cisco4</title>
<path fill="none" stroke="limegreen" stroke-width="26" d="M23917.4,-33358.9C23631.9,-32294.7 22480.6,-28003.6 22138.1,-26726.9"/>
</g>
</g>
</svg>
