<?xml version="1.0" encoding="UTF-8" standalone="no"?>
<!DOCTYPE svg PUBLIC "-//W3C//DTD SVG 1.1//EN"
 "http://www.w3.org/Graphics/SVG/1.1/DTD/svg11.dtd">
<!-- Generated by graphviz version 2.26.0 (20091210.2329)
 -->
<!-- Title: ukgenicm Pages: 1 -->
<svg width="720pt" height="372pt"
 viewBox="0.00 0.00 720.00 371.99" xmlns="http://www.w3.org/2000/svg" xmlns:xlink="http://www.w3.org/1999/xlink">
<g id="graph1" class="graph" transform="scale(0.0314623 0.0314623) rotate(0) translate(4 11819.3)">
<title>ukgenicm</title>
<polygon fill="white" stroke="white" points="-4,5 -4,-11819.3 22881.5,-11819.3 22881.5,5 -4,5"/>
<!-- cisco1 -->
<g id="node1" class="node"><title>cisco1</title>
<polygon fill="#009acd" stroke="#009acd" points="5295.38,-6215.43 3139.38,-6215.43 3135.38,-6211.43 3135.38,-4775.43 5291.38,-4775.43 5295.38,-4779.43 5295.38,-6215.43"/>
<polyline fill="none" stroke="#009acd" points="5291.38,-6211.43 3135.38,-6211.43 "/>
<polyline fill="none" stroke="#009acd" points="5291.38,-6211.43 5291.38,-4775.43 "/>
<polyline fill="none" stroke="#009acd" points="5291.38,-6211.43 5295.38,-6215.43 "/>
<text text-anchor="middle" x="4215.38" y="-5391.93" font-family="Times New Roman,serif" font-size="300.00">cisco1</text>
</g>
<!-- cisco2 -->
<g id="node2" class="node"><title>cisco2</title>
<polygon fill="#009acd" stroke="#009acd" points="7471.11,-7362.46 5315.11,-7362.46 5311.11,-7358.46 5311.11,-5922.46 7467.11,-5922.46 7471.11,-5926.46 7471.11,-7362.46"/>
<polyline fill="none" stroke="#009acd" points="7467.11,-7358.46 5311.11,-7358.46 "/>
<polyline fill="none" stroke="#009acd" points="7467.11,-7358.46 7467.11,-5922.46 "/>
<polyline fill="none" stroke="#009acd" points="7467.11,-7358.46 7471.11,-7362.46 "/>
<text text-anchor="middle" x="6391.11" y="-6538.96" font-family="Times New Roman,serif" font-size="300.00">cisco2</text>
</g>
<!-- cisco1&#45;&#45;cisco2 -->
<g id="edge2" class="edge"><title>cisco1&#45;&#45;cisco2</title>
<path fill="none" stroke="#009acd" stroke-width="60" d="M5295.67,-6064.95C5300.74,-6067.63 5305.81,-6070.3 5310.88,-6072.97"/>
</g>
<!-- cisco3 -->
<g id="node3" class="node"><title>cisco3</title>
<polygon fill="#009acd" stroke="#009acd" points="9943.28,-7601.32 7787.28,-7601.32 7783.28,-7597.32 7783.28,-6161.32 9939.28,-6161.32 9943.28,-6165.32 9943.28,-7601.32"/>
<polyline fill="none" stroke="#009acd" points="9939.28,-7597.32 7783.28,-7597.32 "/>
<polyline fill="none" stroke="#009acd" points="9939.28,-7597.32 9939.28,-6161.32 "/>
<polyline fill="none" stroke="#009acd" points="9939.28,-7597.32 9943.28,-7601.32 "/>
<text text-anchor="middle" x="8863.28" y="-6777.82" font-family="Times New Roman,serif" font-size="300.00">cisco3</text>
</g>
<!-- cisco2&#45;&#45;cisco3 -->
<g id="edge6" class="edge"><title>cisco2&#45;&#45;cisco3</title>
<path fill="none" stroke="#009acd" stroke-width="60" d="M7471.4,-6746.84C7574.71,-6756.82 7679.49,-6766.95 7782.81,-6776.93"/>
</g>
<!-- pc50 -->
<g id="node10" class="node"><title>pc50</title>
<ellipse fill="none" stroke="black" cx="7263.4" cy="-3620.18" rx="423.764" ry="241.123"/>
<text text-anchor="middle" x="7263.4" y="-3516.68" font-family="Times New Roman,serif" font-size="300.00">pc50</text>
</g>
<!-- cisco2&#45;&#45;pc50 -->
<g id="edge4" class="edge"><title>cisco2&#45;&#45;pc50</title>
<path fill="none" stroke="black" stroke-width="8" d="M6598.94,-5922.39C6791.87,-5253.91 7067.83,-4297.8 7194.74,-3858.06"/>
</g>
<!-- cisco4 -->
<g id="node6" class="node"><title>cisco4</title>
<polygon fill="#009acd" stroke="#009acd" points="12479.2,-7313.19 10323.2,-7313.19 10319.2,-7309.19 10319.2,-5873.19 12475.2,-5873.19 12479.2,-5877.19 12479.2,-7313.19"/>
<polyline fill="none" stroke="#009acd" points="12475.2,-7309.19 10319.2,-7309.19 "/>
<polyline fill="none" stroke="#009acd" points="12475.2,-7309.19 12475.2,-5873.19 "/>
<polyline fill="none" stroke="#009acd" points="12475.2,-7309.19 12479.2,-7313.19 "/>
<text text-anchor="middle" x="11399.2" y="-6489.69" font-family="Times New Roman,serif" font-size="300.00">cisco4</text>
</g>
<!-- cisco3&#45;&#45;cisco4 -->
<g id="edge10" class="edge"><title>cisco3&#45;&#45;cisco4</title>
<path fill="none" stroke="#009acd" stroke-width="60" d="M9943.32,-6758.61C10067.7,-6744.47 10194.6,-6730.06 10319,-6715.93"/>
</g>
<!-- cisco3&#45;&#45;pc50 -->
<g id="edge8" class="edge"><title>cisco3&#45;&#45;pc50</title>
<path fill="none" stroke="black" stroke-width="8" d="M8509.95,-6161.11C8149.33,-5426.02 7610.49,-4327.68 7377.5,-3852.77"/>
</g>
<!-- cisco6 -->
<g id="node4" class="node"><title>cisco6</title>
<polygon fill="#009acd" stroke="#009acd" points="16968.4,-5513.52 14812.4,-5513.52 14808.4,-5509.52 14808.4,-4073.52 16964.4,-4073.52 16968.4,-4077.52 16968.4,-5513.52"/>
<polyline fill="none" stroke="#009acd" points="16964.4,-5509.52 14808.4,-5509.52 "/>
<polyline fill="none" stroke="#009acd" points="16964.4,-5509.52 16964.4,-4073.52 "/>
<polyline fill="none" stroke="#009acd" points="16964.4,-5509.52 16968.4,-5513.52 "/>
<text text-anchor="middle" x="15888.4" y="-4690.02" font-family="Times New Roman,serif" font-size="300.00">cisco6</text>
</g>
<!-- cisco7 -->
<g id="node5" class="node"><title>cisco7</title>
<polygon fill="#009acd" stroke="#009acd" points="19136.4,-6574.31 16980.4,-6574.31 16976.4,-6570.31 16976.4,-5134.31 19132.4,-5134.31 19136.4,-5138.31 19136.4,-6574.31"/>
<polyline fill="none" stroke="#009acd" points="19132.4,-6570.31 16976.4,-6570.31 "/>
<polyline fill="none" stroke="#009acd" points="19132.4,-6570.31 19132.4,-5134.31 "/>
<polyline fill="none" stroke="#009acd" points="19132.4,-6570.31 19136.4,-6574.31 "/>
<text text-anchor="middle" x="18056.4" y="-5750.81" font-family="Times New Roman,serif" font-size="300.00">cisco7</text>
</g>
<!-- cisco6&#45;&#45;cisco7 -->
<g id="edge12" class="edge"><title>cisco6&#45;&#45;cisco7</title>
<path fill="none" stroke="#009acd" stroke-width="60" d="M16968.5,-5321.97C16971.1,-5323.27 16973.8,-5324.57 16976.4,-5325.87"/>
</g>
<!-- cisco5 -->
<g id="node7" class="node"><title>cisco5</title>
<polygon fill="#009acd" stroke="#009acd" points="14499.1,-5738.31 12343.1,-5738.31 12339.1,-5734.31 12339.1,-4298.31 14495.1,-4298.31 14499.1,-4302.31 14499.1,-5738.31"/>
<polyline fill="none" stroke="#009acd" points="14495.1,-5734.31 12339.1,-5734.31 "/>
<polyline fill="none" stroke="#009acd" points="14495.1,-5734.31 14495.1,-4298.31 "/>
<polyline fill="none" stroke="#009acd" points="14495.1,-5734.31 14499.1,-5738.31 "/>
<text text-anchor="middle" x="13419.1" y="-4914.81" font-family="Times New Roman,serif" font-size="300.00">cisco5</text>
</g>
<!-- cisco6&#45;&#45;cisco5 -->
<g id="edge14" class="edge"><title>cisco6&#45;&#45;cisco5</title>
<path fill="none" stroke="#009acd" stroke-width="60" d="M14808,-4891.87C14705.5,-4901.2 14601.6,-4910.66 14499.1,-4919.99"/>
</g>
<!-- cisco4&#45;&#45;cisco5 -->
<g id="edge16" class="edge"><title>cisco4&#45;&#45;cisco5</title>
<path fill="none" stroke="#009acd" stroke-width="60" d="M12322.7,-5873.16C12380.1,-5828.39 12437.9,-5783.33 12495.3,-5738.56"/>
</g>
<!-- pc3 -->
<g id="node17" class="node"><title>pc3</title>
<ellipse fill="limegreen" stroke="limegreen" cx="635.5" cy="-3115.29" rx="634" ry="423"/>
<text text-anchor="middle" x="635.5" y="-3011.79" font-family="Times New Roman,serif" font-size="300.00">47 Nodes</text>
</g>
<!-- pc3&#45;&#45;cisco1 -->
<g id="edge18" class="edge"><title>pc3&#45;&#45;cisco1</title>
<path fill="none" stroke="limegreen" stroke-width="26" d="M1084.82,-3414.02C1595.95,-3753.86 2448.66,-4320.8 3135.16,-4777.23"/>
</g>
<!-- pc73 -->
<g id="node19" class="node"><title>pc73</title>
<ellipse fill="limegreen" stroke="limegreen" cx="18269.4" cy="-840.146" rx="712.971" ry="241.123"/>
<text text-anchor="middle" x="18269.4" y="-736.646" font-family="Times New Roman,serif" font-size="300.00">6 Nodes</text>
</g>
<!-- pc73&#45;&#45;cisco6 -->
<g id="edge20" class="edge"><title>pc73&#45;&#45;cisco6</title>
<path fill="none" stroke="limegreen" stroke-width="26" d="M18127.1,-1076.34C17778.2,-1655.75 16868.5,-3166.19 16322.1,-4073.41"/>
</g>
<!-- pc70 -->
<g id="node21" class="node"><title>pc70</title>
<ellipse fill="limegreen" stroke="limegreen" cx="13088.4" cy="-242" rx="712.971" ry="241.123"/>
<text text-anchor="middle" x="13088.4" y="-138.5" font-family="Times New Roman,serif" font-size="300.00">6 Nodes</text>
</g>
<!-- pc70&#45;&#45;cisco5 -->
<g id="edge22" class="edge"><title>pc70&#45;&#45;cisco5</title>
<path fill="none" stroke="limegreen" stroke-width="26" d="M13105.1,-482.953C13153.2,-1177.59 13293.5,-3204.16 13369.2,-4298.1"/>
</g>
<!-- pc77 -->
<g id="node23" class="node"><title>pc77</title>
<ellipse fill="limegreen" stroke="limegreen" cx="22162" cy="-6720.8" rx="712.971" ry="241.123"/>
<text text-anchor="middle" x="22162" y="-6617.3" font-family="Times New Roman,serif" font-size="300.00">3 Nodes</text>
</g>
<!-- pc77&#45;&#45;cisco7 -->
<g id="edge24" class="edge"><title>pc77&#45;&#45;cisco7</title>
<path fill="none" stroke="limegreen" stroke-width="26" d="M21557.1,-6593.12C20921.7,-6459.04 19909.5,-6245.41 19136.6,-6082.28"/>
</g>
<!-- pc51 -->
<g id="node25" class="node"><title>pc51</title>
<ellipse fill="limegreen" stroke="limegreen" cx="3216.7" cy="-9916.58" rx="712.971" ry="241.123"/>
<text text-anchor="middle" x="3216.7" y="-9813.08" font-family="Times New Roman,serif" font-size="300.00">5 Nodes</text>
</g>
<!-- pc51&#45;&#45;cisco2 -->
<g id="edge26" class="edge"><title>pc51&#45;&#45;cisco2</title>
<path fill="none" stroke="limegreen" stroke-width="26" d="M3438.98,-9687.33C3899.55,-9212.29 4974.95,-8103.11 5692.63,-7362.88"/>
</g>
<!-- pc62 -->
<g id="node27" class="node"><title>pc62</title>
<ellipse fill="limegreen" stroke="limegreen" cx="13107.4" cy="-11026.8" rx="712.971" ry="241.123"/>
<text text-anchor="middle" x="13107.4" y="-10923.3" font-family="Times New Roman,serif" font-size="300.00">6 Nodes</text>
</g>
<!-- pc62&#45;&#45;cisco4 -->
<g id="edge28" class="edge"><title>pc62&#45;&#45;cisco4</title>
<path fill="none" stroke="limegreen" stroke-width="26" d="M13015.3,-10787.6C12765.7,-10139.8 12069,-8331.57 11676.7,-7313.44"/>
</g>
<!-- pc58 -->
<g id="node29" class="node"><title>pc58</title>
<ellipse fill="limegreen" stroke="limegreen" cx="8233.83" cy="-11573.3" rx="712.971" ry="241.123"/>
<text text-anchor="middle" x="8233.83" y="-11469.8" font-family="Times New Roman,serif" font-size="300.00">5 Nodes</text>
</g>
<!-- pc58&#45;&#45;cisco3 -->
<g id="edge30" class="edge"><title>pc58&#45;&#45;cisco3</title>
<path fill="none" stroke="limegreen" stroke-width="26" d="M8266.18,-11332.2C8357.93,-10648.3 8622.44,-8676.58 8766.68,-7601.42"/>
</g>
</g>
</svg>
