<?xml version="1.0" encoding="UTF-8" standalone="no"?>
<!-- Created with Inkscape (http://www.inkscape.org/) -->

<svg
   xmlns:dc="http://purl.org/dc/elements/1.1/"
   xmlns:cc="http://creativecommons.org/ns#"
   xmlns:rdf="http://www.w3.org/1999/02/22-rdf-syntax-ns#"
   xmlns:svg="http://www.w3.org/2000/svg"
   xmlns="http://www.w3.org/2000/svg"
   xmlns:xlink="http://www.w3.org/1999/xlink"
   xmlns:sodipodi="http://sodipodi.sourceforge.net/DTD/sodipodi-0.dtd"
   xmlns:inkscape="http://www.inkscape.org/namespaces/inkscape"
   width="89.566551"
   height="75.371895"
   id="svg3977"
   version="1.1"
   inkscape:version="0.48.0 r9654"
   sodipodi:docname="protogeni-logo.svg">
  <defs
     id="defs3979">
    <radialGradient
       gradientUnits="userSpaceOnUse"
       gradientTransform="matrix(1.05261,0,0,0.754085,-19.6993,101.212)"
       r="225.89062"
       fy="655.5625"
       fx="374.42188"
       cy="655.5625"
       cx="374.42188"
       id="radialGradient4475"
       xlink:href="#linearGradient3533"
       inkscape:collect="always" />
    <radialGradient
       r="149.30214"
       fy="315.40961"
       fx="298.10294"
       cy="315.40961"
       cx="298.10294"
       gradientTransform="matrix(1.13105,0,0,0.590093,-22.1005,489.576)"
       gradientUnits="userSpaceOnUse"
       id="radialGradient4466"
       xlink:href="#linearGradient3364"
       inkscape:collect="always" />
    <radialGradient
       r="149.30214"
       fy="315.40961"
       fx="298.10294"
       cy="315.40961"
       cx="298.10294"
       gradientTransform="matrix(1.13105,0,0,1.1312,-22.1005,282.345)"
       gradientUnits="userSpaceOnUse"
       id="radialGradient4429"
       xlink:href="#linearGradient3364"
       inkscape:collect="always" />
    <radialGradient
       gradientUnits="userSpaceOnUse"
       gradientTransform="matrix(1.28713,0,0,0.588703,-103.708,273.981)"
       r="143.60872"
       fy="641.82562"
       fx="361.18896"
       cy="641.82562"
       cx="361.18896"
       id="radialGradient3539"
       xlink:href="#linearGradient3533"
       inkscape:collect="always" />
    <radialGradient
       r="149.30214"
       fy="315.40961"
       fx="298.10294"
       cy="315.40961"
       cx="298.10294"
       gradientTransform="matrix(1.13105,0,0,1.1312,-22.1005,-17.6554)"
       gradientUnits="userSpaceOnUse"
       id="radialGradient3979"
       xlink:href="#linearGradient3364"
       inkscape:collect="always" />
    <radialGradient
       r="141.81195"
       fy="249.47238"
       fx="317.86237"
       cy="249.47238"
       cx="317.86237"
       spreadMethod="reflect"
       gradientTransform="matrix(0.922553,0.549938,-0.612821,1.06144,218.044,-49.8795)"
       gradientUnits="userSpaceOnUse"
       id="radialGradient3976"
       xlink:href="#linearGradient6692"
       inkscape:collect="always" />
    <radialGradient
       r="130.08176"
       fy="309.10764"
       fx="298.66852"
       cy="309.10764"
       cx="298.66852"
       gradientTransform="matrix(0.243622,0.877642,-1.13444,0.314906,586.412,-25.658)"
       gradientUnits="userSpaceOnUse"
       id="radialGradient3969"
       xlink:href="#linearGradient3351"
       inkscape:collect="always" />
    <radialGradient
       r="149.30214"
       fy="315.40961"
       fx="298.10294"
       cy="315.40961"
       cx="298.10294"
       gradientTransform="matrix(1.13105,0,0,1.1312,-22.1005,-17.6554)"
       gradientUnits="userSpaceOnUse"
       id="radialGradient3813"
       xlink:href="#linearGradient3364"
       inkscape:collect="always" />
    <radialGradient
       r="141.81195"
       fy="249.47238"
       fx="317.86237"
       cy="249.47238"
       cx="317.86237"
       spreadMethod="reflect"
       gradientTransform="matrix(0.922553,0.549938,-0.612821,1.06144,218.044,-49.8795)"
       gradientUnits="userSpaceOnUse"
       id="radialGradient3732"
       xlink:href="#linearGradient6692"
       inkscape:collect="always" />
    <radialGradient
       r="130.08176"
       fy="314.29395"
       fx="290.86432"
       cy="314.29395"
       cx="290.86432"
       gradientTransform="matrix(1.46746,0,0,1.07342,-127.414,-8.61463)"
       gradientUnits="userSpaceOnUse"
       id="radialGradient3686"
       xlink:href="#linearGradient3351"
       inkscape:collect="always" />
    <radialGradient
       r="130.08176"
       fy="314.29395"
       fx="290.86432"
       cy="314.29395"
       cx="290.86432"
       gradientTransform="matrix(1.46746,0,0,1.07342,-134.666,-8.61463)"
       gradientUnits="userSpaceOnUse"
       id="radialGradient3396"
       xlink:href="#linearGradient3351"
       inkscape:collect="always" />
    <radialGradient
       r="141.81195"
       fy="249.47238"
       fx="317.86237"
       cy="249.47238"
       cx="317.86237"
       gradientTransform="matrix(0.922553,0.549938,-0.612821,1.06144,210.792,-49.8795)"
       gradientUnits="userSpaceOnUse"
       id="radialGradient3394"
       xlink:href="#linearGradient6692"
       inkscape:collect="always" />
    <radialGradient
       r="149.30214"
       fy="315.40961"
       fx="298.10294"
       cy="315.40961"
       cx="298.10294"
       gradientTransform="matrix(1.13105,0,0,1.1312,-29.3527,-17.6554)"
       gradientUnits="userSpaceOnUse"
       id="radialGradient3392"
       xlink:href="#linearGradient3364"
       inkscape:collect="always" />
    <radialGradient
       r="179.50987"
       fy="365.75668"
       fx="318.06638"
       cy="365.75668"
       cx="318.06638"
       gradientTransform="matrix(1.05654,0,0,0.595619,-200.728,179.916)"
       gradientUnits="userSpaceOnUse"
       id="radialGradient3385"
       xlink:href="#linearGradient4328"
       inkscape:collect="always" />
    <radialGradient
       r="179.38509"
       fy="244.68217"
       fx="333.362"
       cy="244.68217"
       cx="333.362"
       gradientTransform="matrix(1.05654,0,0,0.595298,-200.728,124.188)"
       gradientUnits="userSpaceOnUse"
       id="radialGradient3383"
       xlink:href="#linearGradient4328"
       inkscape:collect="always" />
    <radialGradient
       r="179.50987"
       fy="365.75668"
       fx="318.06638"
       cy="365.75668"
       cx="318.06638"
       gradientTransform="matrix(1.05654,0,0,0.595619,-200.728,179.916)"
       gradientUnits="userSpaceOnUse"
       id="radialGradient3377"
       xlink:href="#linearGradient4328"
       inkscape:collect="always" />
    <radialGradient
       r="179.38509"
       fy="244.68217"
       fx="333.362"
       cy="244.68217"
       cx="333.362"
       gradientTransform="matrix(1.05654,0,0,0.595298,-200.728,124.188)"
       gradientUnits="userSpaceOnUse"
       id="radialGradient3375"
       xlink:href="#linearGradient4328"
       inkscape:collect="always" />
    <radialGradient
       r="141.81195"
       fy="249.47238"
       fx="317.86237"
       cy="249.47238"
       cx="317.86237"
       gradientTransform="matrix(0.922553,0.549938,-0.612821,1.06144,-0.155499,-133.938)"
       gradientUnits="userSpaceOnUse"
       id="radialGradient3373"
       xlink:href="#linearGradient6692"
       inkscape:collect="always" />
    <radialGradient
       gradientUnits="userSpaceOnUse"
       gradientTransform="matrix(1.13105,0,0,1.1312,-29.3527,-17.6554)"
       r="149.30214"
       fy="315.40961"
       fx="298.10294"
       cy="315.40961"
       cx="298.10294"
       id="radialGradient3361"
       xlink:href="#linearGradient3364"
       inkscape:collect="always" />
    <radialGradient
       gradientUnits="userSpaceOnUse"
       gradientTransform="matrix(1.46746,0,0,1.07342,-134.666,-8.61463)"
       r="130.08176"
       fy="314.29395"
       fx="290.86432"
       cy="314.29395"
       cx="290.86432"
       id="radialGradient3357"
       xlink:href="#linearGradient3351"
       inkscape:collect="always" />
    <radialGradient
       r="179.50987"
       fy="365.75668"
       fx="318.06638"
       cy="365.75668"
       cx="318.06638"
       gradientTransform="matrix(1.05654,0,0,0.595619,10.2201,263.974)"
       gradientUnits="userSpaceOnUse"
       id="radialGradient2337"
       xlink:href="#linearGradient4328"
       inkscape:collect="always" />
    <linearGradient
       id="linearGradient4328">
      <stop
         id="stop4330"
         offset="0"
         style="stop-color: rgb(57, 143, 229); stop-opacity: 1;" />
      <stop
         id="stop4332"
         offset="1"
         style="stop-color: rgb(0, 102, 204); stop-opacity: 1;" />
    </linearGradient>
    <radialGradient
       r="179.38509"
       fy="244.68217"
       fx="333.362"
       cy="244.68217"
       cx="333.362"
       gradientTransform="matrix(1.05654,0,0,0.595298,10.2201,208.246)"
       gradientUnits="userSpaceOnUse"
       id="radialGradient2335"
       xlink:href="#linearGradient4328"
       inkscape:collect="always" />
    <radialGradient
       r="141.81195"
       fy="249.47238"
       fx="317.86237"
       cy="249.47238"
       cx="317.86237"
       gradientTransform="matrix(0.922553,0.549938,-0.612821,1.06144,210.792,-49.8795)"
       gradientUnits="userSpaceOnUse"
       id="radialGradient2331"
       xlink:href="#linearGradient6692"
       inkscape:collect="always" />
    <linearGradient
       id="linearGradient6692">
      <stop
         id="stop6694"
         offset="0"
         style="stop-color: rgb(184, 255, 113); stop-opacity: 1;" />
      <stop
         style="stop-color: rgb(102, 204, 0); stop-opacity: 1;"
         offset="1"
         id="stop6700" />
    </linearGradient>
    <linearGradient
       id="linearGradient3364">
      <stop
         id="stop3366"
         offset="0"
         style="stop-color: rgb(0, 127, 255); stop-opacity: 1;" />
      <stop
         style="stop-color: rgb(28, 142, 255); stop-opacity: 1;"
         offset="0.39285713"
         id="stop3413" />
      <stop
         id="stop3368"
         offset="1"
         style="stop-color: rgb(26, 74, 122); stop-opacity: 1;" />
    </linearGradient>
    <linearGradient
       id="linearGradient3351">
      <stop
         id="stop3353"
         offset="0"
         style="stop-color: rgb(255, 255, 255); stop-opacity: 0.867347;" />
      <stop
         id="stop3355"
         offset="1"
         style="stop-color: rgb(255, 255, 255); stop-opacity: 0;" />
    </linearGradient>
    <radialGradient
       r="19.966738"
       fy="578.88593"
       fx="82.9272"
       cy="578.88593"
       cx="82.9272"
       gradientTransform="matrix(7.62379,4.4016,-5.06752,8.7772,2328.45,-5270.61)"
       gradientUnits="userSpaceOnUse"
       id="radialGradient2333"
       xlink:href="#linearGradient3364"
       inkscape:collect="always" />
    <linearGradient
       id="linearGradient3615">
      <stop
         id="stop3619"
         offset="0"
         style="stop-color: rgb(255, 255, 255); stop-opacity: 1;" />
      <stop
         style="stop-color: rgb(57, 143, 229); stop-opacity: 1;"
         offset="1"
         id="stop3621" />
    </linearGradient>
    <linearGradient
       id="linearGradient3624">
      <stop
         style="stop-color: rgb(57, 143, 229); stop-opacity: 1;"
         offset="0"
         id="stop3628" />
      <stop
         id="stop3630"
         offset="1"
         style="stop-color: rgb(172, 193, 213); stop-opacity: 1;" />
    </linearGradient>
    <linearGradient
       id="linearGradient3533">
      <stop
         id="stop3535"
         offset="0"
         style="stop-color: rgb(58, 58, 58); stop-opacity: 1;" />
      <stop
         id="stop3537"
         offset="1"
         style="stop-color: rgb(255, 255, 255); stop-opacity: 1;" />
    </linearGradient>
    <radialGradient
       inkscape:collect="always"
       xlink:href="#linearGradient3364"
       id="radialGradient5440"
       gradientUnits="userSpaceOnUse"
       gradientTransform="matrix(1.13105,0,0,1.1312,-22.1005,-17.6554)"
       cx="298.10294"
       cy="315.40961"
       fx="298.10294"
       fy="315.40961"
       r="149.30214" />
    <radialGradient
       inkscape:collect="always"
       xlink:href="#linearGradient6692"
       id="radialGradient5442"
       gradientUnits="userSpaceOnUse"
       gradientTransform="matrix(0.922553,0.549938,-0.612821,1.06144,218.044,-49.8795)"
       spreadMethod="reflect"
       cx="317.86237"
       cy="249.47238"
       fx="317.86237"
       fy="249.47238"
       r="141.81195" />
    <radialGradient
       inkscape:collect="always"
       xlink:href="#linearGradient3351"
       id="radialGradient5444"
       gradientUnits="userSpaceOnUse"
       gradientTransform="matrix(0.243622,0.877642,-1.13444,0.314906,586.412,-25.658)"
       cx="298.66852"
       cy="309.10764"
       fx="298.66852"
       fy="309.10764"
       r="130.08176" />
    <radialGradient
       inkscape:collect="always"
       xlink:href="#linearGradient3364"
       id="radialGradient5458"
       gradientUnits="userSpaceOnUse"
       gradientTransform="matrix(1.13105,0,0,1.1312,-22.1005,-17.6554)"
       cx="298.10294"
       cy="315.40961"
       fx="298.10294"
       fy="315.40961"
       r="149.30214" />
    <radialGradient
       inkscape:collect="always"
       xlink:href="#linearGradient6692"
       id="radialGradient5460"
       gradientUnits="userSpaceOnUse"
       gradientTransform="matrix(0.922553,0.549938,-0.612821,1.06144,218.044,-49.8795)"
       spreadMethod="reflect"
       cx="317.86237"
       cy="249.47238"
       fx="317.86237"
       fy="249.47238"
       r="141.81195" />
    <radialGradient
       inkscape:collect="always"
       xlink:href="#linearGradient3351"
       id="radialGradient5462"
       gradientUnits="userSpaceOnUse"
       gradientTransform="matrix(0.243622,0.877642,-1.13444,0.314906,586.412,-25.658)"
       cx="298.66852"
       cy="309.10764"
       fx="298.66852"
       fy="309.10764"
       r="130.08176" />
    <radialGradient
       inkscape:collect="always"
       xlink:href="#linearGradient3364"
       id="radialGradient5470"
       gradientUnits="userSpaceOnUse"
       gradientTransform="matrix(1.13105,0,0,1.1312,-22.1005,-17.6554)"
       cx="298.10294"
       cy="315.40961"
       fx="298.10294"
       fy="315.40961"
       r="149.30214" />
    <radialGradient
       inkscape:collect="always"
       xlink:href="#linearGradient6692"
       id="radialGradient5472"
       gradientUnits="userSpaceOnUse"
       gradientTransform="matrix(0.922553,0.549938,-0.612821,1.06144,218.044,-49.8795)"
       spreadMethod="reflect"
       cx="317.86237"
       cy="249.47238"
       fx="317.86237"
       fy="249.47238"
       r="141.81195" />
    <radialGradient
       inkscape:collect="always"
       xlink:href="#linearGradient3351"
       id="radialGradient5474"
       gradientUnits="userSpaceOnUse"
       gradientTransform="matrix(0.243622,0.877642,-1.13444,0.314906,586.412,-25.658)"
       cx="298.66852"
       cy="309.10764"
       fx="298.66852"
       fy="309.10764"
       r="130.08176" />
    <radialGradient
       inkscape:collect="always"
       xlink:href="#linearGradient3364"
       id="radialGradient5480"
       gradientUnits="userSpaceOnUse"
       gradientTransform="matrix(1.13105,0,0,1.1312,-22.1005,-17.6554)"
       cx="298.10294"
       cy="315.40961"
       fx="298.10294"
       fy="315.40961"
       r="149.30214" />
    <radialGradient
       inkscape:collect="always"
       xlink:href="#linearGradient6692"
       id="radialGradient5482"
       gradientUnits="userSpaceOnUse"
       gradientTransform="matrix(0.922553,0.549938,-0.612821,1.06144,218.044,-49.8795)"
       spreadMethod="reflect"
       cx="317.86237"
       cy="249.47238"
       fx="317.86237"
       fy="249.47238"
       r="141.81195" />
    <radialGradient
       inkscape:collect="always"
       xlink:href="#linearGradient3351"
       id="radialGradient5484"
       gradientUnits="userSpaceOnUse"
       gradientTransform="matrix(0.243622,0.877642,-1.13444,0.314906,586.412,-25.658)"
       cx="298.66852"
       cy="309.10764"
       fx="298.66852"
       fy="309.10764"
       r="130.08176" />
    <radialGradient
       inkscape:collect="always"
       xlink:href="#linearGradient3351"
       id="radialGradient5487"
       gradientUnits="userSpaceOnUse"
       gradientTransform="matrix(0.01183265,0.0426268,-0.0550994,0.01529489,430.33567,527.45222)"
       cx="298.66852"
       cy="309.10764"
       fx="298.66852"
       fy="309.10764"
       r="130.08176" />
    <radialGradient
       inkscape:collect="always"
       xlink:href="#linearGradient3364"
       id="radialGradient5521"
       gradientUnits="userSpaceOnUse"
       gradientTransform="matrix(0.05493475,0,0,0.05494203,400.78041,527.8409)"
       cx="298.10294"
       cy="315.40961"
       fx="298.10294"
       fy="315.40961"
       r="149.30214" />
    <radialGradient
       inkscape:collect="always"
       xlink:href="#linearGradient6692"
       id="radialGradient5523"
       gradientUnits="userSpaceOnUse"
       gradientTransform="matrix(0.04480811,0.02671032,-0.02976453,0.05155381,412.44415,526.27579)"
       spreadMethod="reflect"
       cx="317.86237"
       cy="249.47238"
       fx="317.86237"
       fy="249.47238"
       r="141.81195" />
    <radialGradient
       inkscape:collect="always"
       xlink:href="#linearGradient3364"
       id="radialGradient5594"
       gradientUnits="userSpaceOnUse"
       gradientTransform="matrix(0.05493475,0,0,0.05494203,400.78041,527.8409)"
       cx="298.10294"
       cy="315.40961"
       fx="298.10294"
       fy="315.40961"
       r="149.30214" />
    <radialGradient
       inkscape:collect="always"
       xlink:href="#linearGradient6692"
       id="radialGradient5596"
       gradientUnits="userSpaceOnUse"
       gradientTransform="matrix(0.04480811,0.02671032,-0.02976453,0.05155381,412.44415,526.27579)"
       spreadMethod="reflect"
       cx="317.86237"
       cy="249.47238"
       fx="317.86237"
       fy="249.47238"
       r="141.81195" />
    <radialGradient
       inkscape:collect="always"
       xlink:href="#linearGradient3364"
       id="radialGradient4511"
       gradientUnits="userSpaceOnUse"
       gradientTransform="matrix(0.05493475,0,0,0.05494203,400.78041,527.8409)"
       cx="298.10294"
       cy="315.40961"
       fx="298.10294"
       fy="315.40961"
       r="149.30214" />
    <radialGradient
       inkscape:collect="always"
       xlink:href="#linearGradient6692"
       id="radialGradient4513"
       gradientUnits="userSpaceOnUse"
       gradientTransform="matrix(0.04480811,0.02671032,-0.02976453,0.05155381,412.44415,526.27579)"
       cx="317.86237"
       cy="249.47238"
       fx="317.86237"
       fy="249.47238"
       r="141.81195" />
  </defs>
  <sodipodi:namedview
     id="base"
     pagecolor="#000000"
     bordercolor="#666666"
     borderopacity="1.0"
     inkscape:pageopacity="0.82745098"
     inkscape:pageshadow="2"
     inkscape:zoom="9.5163222"
     inkscape:cx="42.010348"
     inkscape:cy="36.789255"
     inkscape:document-units="px"
     inkscape:current-layer="layer1"
     showgrid="false"
     inkscape:window-width="1455"
     inkscape:window-height="940"
     inkscape:window-x="185"
     inkscape:window-y="15"
     inkscape:window-maximized="0"
     fit-margin-top="1"
     fit-margin-left="1"
     fit-margin-right="1"
     fit-margin-bottom="1" />
  <metadata
     id="metadata3982">
    <rdf:RDF>
      <cc:Work
         rdf:about="">
        <dc:format>image/svg+xml</dc:format>
        <dc:type
           rdf:resource="http://purl.org/dc/dcmitype/StillImage" />
        <dc:title></dc:title>
      </cc:Work>
    </rdf:RDF>
  </metadata>
  <g
     inkscape:label="Layer 1"
     inkscape:groupmode="layer"
     id="layer1"
     transform="translate(-333.55484,-506.72916)">
    <g
       id="g3341">
      <g
         transform="translate(-1.9902835,0)"
         id="g5598">
        <g
           id="g5212"
           style="fill:#204a87">
          <path
             d="m 347.0695,572.0431 c -1e-5,1.32656 -0.46996,2.51165 -1.40985,3.55528 -1.0185,1.13166 -2.29318,1.69749 -3.82406,1.69749 -0.70729,0 -1.33127,-0.13517 -1.87194,-0.40551 -0.55326,-0.27034 -0.97292,-0.63027 -1.25897,-1.07979 l -0.0377,4.65393 -2.12186,0 0,-13.4054 2.12186,0 0,1.22124 c 0.82359,-0.99333 1.91909,-1.49 3.28652,-1.49001 1.53087,10e-6 2.78512,0.55327 3.76275,1.65976 0.90217,1.0185 1.35326,2.21617 1.35327,3.59301 m -2.23973,0 c -10e-6,-0.88646 -0.30965,-1.64561 -0.9289,-2.27746 -0.61614,-0.63183 -1.35643,-0.94775 -2.22088,-0.94776 -0.84875,1e-5 -1.57646,0.30964 -2.18315,0.9289 -0.61613,0.63185 -0.92419,1.39729 -0.92419,2.29632 0,0.88961 0.30806,1.65033 0.92419,2.28217 0.61926,0.6287 1.34698,0.94305 2.18315,0.94305 0.87703,0 1.62361,-0.31435 2.23974,-0.94305 0.60668,-0.61926 0.91003,-1.37999 0.91004,-2.28217"
             style="font-size:19.31358910000000151px;font-style:normal;font-variant:normal;font-weight:normal;font-stretch:normal;line-height:125%;letter-spacing:0px;word-spacing:0px;fill:#729fcf;fill-opacity:1;stroke:none;font-family:Emblem;-inkscape-font-specification:Emblem"
             id="path4563"
             inkscape:connector-curvature="0" />
          <path
             d="m 354.16593,567.10154 -0.74973,2.12185 c -0.27349,-0.19174 -0.53754,-0.28762 -0.79216,-0.28763 -0.39922,1e-5 -0.74186,0.13518 -1.02792,0.40551 -0.29549,0.28292 -0.44323,0.64914 -0.44323,1.09865 l 0,6.58718 -2.12185,0 0,-9.968 1.98983,0 0,1.10336 c 0.42436,-0.91474 1.08607,-1.37212 1.98511,-1.37213 0.42751,10e-6 0.81416,0.10375 1.15995,0.31121"
             style="font-size:19.31358910000000151px;font-style:normal;font-variant:normal;font-weight:normal;font-stretch:normal;line-height:125%;letter-spacing:0px;word-spacing:0px;fill:#729fcf;fill-opacity:1;stroke:none;font-family:Emblem;-inkscape-font-specification:Emblem"
             id="path4565"
             inkscape:connector-curvature="0" />
          <path
             d="m 365.63808,572.0431 c -10e-6,1.40514 -0.47624,2.6091 -1.42871,3.61187 -1.03107,1.09393 -2.3702,1.6409 -4.01738,1.6409 -1.64719,0 -2.98631,-0.54068 -4.01738,-1.62204 -0.95247,-1.00277 -1.42871,-2.21301 -1.42871,-3.63073 0,-1.40199 0.47624,-2.60594 1.42871,-3.61187 1.03107,-1.09392 2.37019,-1.64089 4.01738,-1.6409 1.63461,10e-6 2.97373,0.54698 4.01738,1.6409 0.95247,1.00593 1.4287,2.20988 1.42871,3.61187 m -2.23973,0 c -10e-6,-0.89903 -0.30178,-1.66447 -0.90532,-2.29632 -0.61928,-0.61926 -1.38629,-0.92889 -2.30104,-0.9289 -0.92733,1e-5 -1.69277,0.30964 -2.29632,0.9289 -0.60669,0.61613 -0.91004,1.38157 -0.91004,2.29632 0,0.90218 0.30964,1.66291 0.92891,2.28217 0.60354,0.6287 1.36269,0.94305 2.27745,0.94305 0.92732,0 1.69433,-0.30806 2.30104,-0.92419 0.60354,-0.61926 0.90531,-1.38627 0.90532,-2.30103"
             style="font-size:19.31358910000000151px;font-style:normal;font-variant:normal;font-weight:normal;font-stretch:normal;line-height:125%;letter-spacing:0px;word-spacing:0px;fill:#729fcf;fill-opacity:1;stroke:none;font-family:Emblem;-inkscape-font-specification:Emblem"
             id="path4567"
             inkscape:connector-curvature="0" />
          <path
             d="m 372.06966,575.59838 -0.94776,1.69749 c -1.17253,-0.56583 -1.97726,-1.08608 -2.4142,-1.56074 -0.51553,-0.56897 -0.7733,-1.34856 -0.7733,-2.33876 l 0,-4.30501 -1.21653,0 0,-2.03226 1.21653,0 0,-2.62638 2.10771,-0.59884 0,3.22522 1.69748,0 0,2.03226 -1.69748,0 0,3.91836 c 0,0.55326 0.0644,0.96506 0.19333,1.23539 0.12887,0.27035 0.35992,0.50296 0.69313,0.69786 l 1.14109,0.65541"
             style="font-size:19.31358910000000151px;font-style:normal;font-variant:normal;font-weight:normal;font-stretch:normal;line-height:125%;letter-spacing:0px;word-spacing:0px;fill:#729fcf;fill-opacity:1;stroke:none;font-family:Emblem;-inkscape-font-specification:Emblem"
             id="path4569"
             inkscape:connector-curvature="0" />
          <path
             d="m 383.82002,572.0431 c -10e-6,1.40514 -0.47625,2.6091 -1.42872,3.61187 -1.03107,1.09393 -2.37019,1.6409 -4.01737,1.6409 -1.6472,0 -2.98632,-0.54068 -4.01738,-1.62204 -0.95248,-1.00277 -1.42872,-2.21301 -1.42872,-3.63073 0,-1.40199 0.47624,-2.60594 1.42872,-3.61187 1.03106,-1.09392 2.37018,-1.64089 4.01738,-1.6409 1.6346,10e-6 2.97373,0.54698 4.01737,1.6409 0.95247,1.00593 1.42871,2.20988 1.42872,3.61187 m -2.23974,0 c -1e-5,-0.89903 -0.30178,-1.66447 -0.90532,-2.29632 -0.61928,-0.61926 -1.38629,-0.92889 -2.30103,-0.9289 -0.92734,1e-5 -1.69278,0.30964 -2.29632,0.9289 -0.6067,0.61613 -0.91004,1.38157 -0.91004,2.29632 0,0.90218 0.30963,1.66291 0.9289,2.28217 0.60355,0.6287 1.3627,0.94305 2.27746,0.94305 0.92732,0 1.69433,-0.30806 2.30103,-0.92419 0.60354,-0.61926 0.90531,-1.38627 0.90532,-2.30103"
             style="font-size:19.31358910000000151px;font-style:normal;font-variant:normal;font-weight:normal;font-stretch:normal;line-height:125%;letter-spacing:0px;word-spacing:0px;fill:#729fcf;fill-opacity:1;stroke:none;font-family:Emblem;-inkscape-font-specification:Emblem"
             id="path4571"
             inkscape:connector-curvature="0" />
        </g>
        <g
           id="g5219">
          <path
             d="m 395.23559,575.90487 c -10e-6,1.5969 -0.52183,2.87944 -1.56545,3.84763 -0.96506,0.89904 -2.16273,1.34856 -3.59301,1.34856 -0.74816,0 -1.47587,-0.15404 -2.18315,-0.46209 -0.79845,-0.34893 -1.46173,-0.85189 -1.98983,-1.50888 l 1.73992,-1.27311 c 0.23261,0.32378 0.56111,0.60669 0.98548,0.84874 0.4118,0.25777 0.85503,0.38665 1.3297,0.38665 1.01848,0 1.8295,-0.30178 2.43306,-0.90532 0.55639,-0.55326 0.83459,-1.23539 0.83459,-2.04641 l 0,-0.66014 c -0.45267,0.50296 -0.94934,0.88332 -1.49001,1.14109 -0.55326,0.27034 -1.17724,0.40551 -1.87195,0.40551 -1.32655,0 -2.44092,-0.45109 -3.3431,-1.35327 -0.96505,-0.96505 -1.44757,-2.20673 -1.44757,-3.72503 0,-1.57174 0.50924,-2.84014 1.52773,-3.8052 0.95248,-0.90217 2.12343,-1.35326 3.51285,-1.35327 0.65698,10e-6 1.24324,0.12261 1.75878,0.36779 0.51553,0.2452 0.95247,0.60513 1.31084,1.07979 l 0.0424,-1.17881 2.00869,0 0,8.84577 m -2.00869,-3.97494 c 0,-0.87702 -0.28449,-1.61731 -0.85345,-2.22087 -0.57841,-0.59411 -1.27312,-0.89117 -2.08413,-0.89118 -0.8236,1e-5 -1.5246,0.29707 -2.103,0.89118 -0.58155,0.59098 -0.87232,1.32499 -0.87232,2.20201 0,0.8739 0.27663,1.6079 0.82988,2.20202 0.54068,0.60355 1.25582,0.90532 2.14544,0.90532 0.83616,0 1.53715,-0.30177 2.10299,-0.90532 0.55639,-0.59412 0.83459,-1.32184 0.83459,-2.18316"
             style="font-size:19.31358910000000151px;font-style:normal;font-variant:normal;font-weight:normal;font-stretch:normal;line-height:125%;letter-spacing:0px;word-spacing:0px;fill:#ffffff;fill-opacity:1;stroke:none;font-family:Emblem;-inkscape-font-specification:Emblem"
             id="path4573"
             inkscape:connector-curvature="0" />
          <path
             d="m 407.95729,572.79754 -8.2045,0 c -1e-5,0.73243 0.30806,1.35013 0.92418,1.85308 0.60669,0.50296 1.30297,0.75444 2.08885,0.75444 1.13165,0 2.08412,-0.51553 2.85743,-1.5466 l 1.7965,1.00435 c -0.59413,0.76072 -1.29041,1.35327 -2.08884,1.77764 -0.79846,0.43695 -1.63462,0.65542 -2.50851,0.65542 -1.64719,0 -2.98631,-0.54068 -4.01737,-1.62204 -0.95248,-1.00277 -1.42872,-2.21301 -1.42872,-3.63073 0,-1.40199 0.47624,-2.60594 1.42872,-3.61187 1.03106,-1.09392 2.37018,-1.64089 4.01737,-1.6409 1.22281,10e-6 2.33718,0.44481 3.3431,1.33441 1.19452,1.0688 1.79178,2.49122 1.79179,4.26729 l 0,0.40551 m -2.48964,-1.77765 c -0.23263,-0.76071 -0.59884,-1.33911 -1.09865,-1.7352 -0.51554,-0.38664 -1.12066,-0.57997 -1.81537,-0.57997 -0.68528,0 -1.27783,0.19962 -1.77764,0.59883 -0.51553,0.4118 -0.8566,0.98392 -1.0232,1.71634 l 5.71486,0"
             style="font-size:19.31358910000000151px;font-style:normal;font-variant:normal;font-weight:normal;font-stretch:normal;line-height:125%;letter-spacing:0px;word-spacing:0px;fill:#ffffff;fill-opacity:1;stroke:none;font-family:Emblem;-inkscape-font-specification:Emblem"
             id="path4575"
             inkscape:connector-curvature="0" />
          <path
             d="m 419.12296,577.0271 -2.12657,0 0,-5.54511 c -1e-5,-0.87389 -0.20591,-1.51673 -0.61769,-1.92853 -0.41181,-0.41179 -0.99178,-0.61769 -1.73992,-0.6177 -0.70729,1e-5 -1.28727,0.21848 -1.73993,0.65542 -0.44952,0.43695 -0.67428,1.05465 -0.67427,1.85309 l 0,5.58283 -2.12186,0 0,-9.968 2.12186,0 0,1.25897 c 0.3112,-0.46523 0.73085,-0.83931 1.25896,-1.12223 0.52496,-0.27033 1.12222,-0.4055 1.79179,-0.40551 1.06878,10e-6 1.97725,0.39923 2.72541,1.19767 0.74814,0.79845 1.12221,1.80908 1.12222,3.03189 l 0,6.00721"
             style="font-size:19.31358910000000151px;font-style:normal;font-variant:normal;font-weight:normal;font-stretch:normal;line-height:125%;letter-spacing:0px;word-spacing:0px;fill:#ffffff;fill-opacity:1;stroke:none;font-family:Emblem;-inkscape-font-specification:Emblem"
             id="path4577"
             inkscape:connector-curvature="0" />
          <path
             d="m 424.11167,565.03155 c 0,0.33636 -0.11003,0.62085 -0.33007,0.85346 -0.2169,0.22948 -0.49981,0.34422 -0.84874,0.34421 -0.32064,10e-6 -0.59726,-0.11473 -0.82988,-0.34421 -0.23262,-0.23261 -0.34893,-0.5171 -0.34893,-0.85346 0,-0.3332 0.11003,-0.61611 0.33007,-0.84874 0.22004,-0.23261 0.50296,-0.34892 0.84874,-0.34893 0.32378,10e-6 0.60041,0.11632 0.82988,0.34893 0.23262,0.23263 0.34893,0.51554 0.34893,0.84874 m -0.11788,11.99555 -2.12185,0 0,-9.968 2.12185,0 0,9.968"
             style="font-size:19.31358910000000151px;font-style:normal;font-variant:normal;font-weight:normal;font-stretch:normal;line-height:125%;letter-spacing:0px;word-spacing:0px;fill:#ffffff;fill-opacity:1;stroke:none;font-family:Emblem;-inkscape-font-specification:Emblem"
             id="path4579"
             inkscape:connector-curvature="0" />
        </g>
      </g>
      <g
         id="g3097">
        <g
           id="g3081">
          <path
             sodipodi:open="true"
             sodipodi:end="5.1760366"
             sodipodi:start="0"
             transform="translate(261.90658,548.73445)"
             d="m 139.97004,-13.886499 c 0,12.99995725 -10.53855,23.5385051 -23.53851,23.5385051 -12.99995,0 -23.538502,-10.53854785 -23.538502,-23.5385051 0,-12.999958 10.538552,-23.538506 23.538502,-23.538506 3.65424,0 7.25829,0.850802 10.52674,2.485026"
             sodipodi:ry="23.538506"
             sodipodi:rx="23.538506"
             sodipodi:cy="-13.886499"
             sodipodi:cx="116.43153"
             id="path3490"
             style="color:#000000;fill:none;stroke:#ffffff;stroke-width:4;stroke-linecap:butt;stroke-linejoin:round;stroke-miterlimit:4;stroke-opacity:1;stroke-dasharray:none;stroke-dashoffset:0;marker:none;visibility:visible;display:inline;overflow:visible;enable-background:accumulate"
             sodipodi:type="arc" />
          <path
             inkscape:connector-curvature="0"
             id="path4373"
             d="m 377.91666,534.79798 25.5608,0"
             style="color:#000000;fill:none;stroke:#ffffff;stroke-width:4;stroke-linecap:butt;stroke-linejoin:round;stroke-miterlimit:4;stroke-opacity:1;stroke-dasharray:none;stroke-dashoffset:0;marker:none;visibility:visible;display:inline;overflow:visible;enable-background:accumulate" />
        </g>
        <g
           id="g3085">
          <g
             id="g4515">
            <path
               sodipodi:type="arc"
               style="color:#000000;fill:#ffa500;fill-opacity:1;fill-rule:evenodd;stroke:#ffffff;stroke-width:1.84444677999999995;stroke-linecap:butt;stroke-linejoin:round;stroke-miterlimit:4;stroke-opacity:1;stroke-dasharray:none;stroke-dashoffset:0;marker:none;visibility:visible;display:inline;overflow:visible;enable-background:accumulate"
               id="path3227"
               sodipodi:cx="38.125"
               sodipodi:cy="-8.125"
               sodipodi:rx="5.5140939"
               sodipodi:ry="5.5140939"
               d="m 43.639094,-8.125 c 0,3.04535 -2.468744,5.5140939 -5.514094,5.5140939 -3.04535,0 -5.514094,-2.4687439 -5.514094,-5.5140939 0,-3.04535 2.468744,-5.514094 5.514094,-5.514094 3.04535,0 5.514094,2.468744 5.514094,5.514094 z"
               transform="matrix(1.084372,0,0,1.0842999,325.56462,523.51803)" />
            <path
               sodipodi:type="arc"
               style="color:#000000;fill:#ff0000;fill-opacity:1;fill-rule:evenodd;stroke:#ffffff;stroke-width:1.84444677999999995;stroke-linecap:butt;stroke-linejoin:round;stroke-miterlimit:4;stroke-opacity:1;stroke-dasharray:none;stroke-dashoffset:0;marker:none;visibility:visible;display:inline;overflow:visible;enable-background:accumulate"
               id="path3229"
               sodipodi:cx="38.125"
               sodipodi:cy="-8.125"
               sodipodi:rx="5.5140939"
               sodipodi:ry="5.5140939"
               d="m 43.639094,-8.125 c 0,3.04535 -2.468744,5.5140939 -5.514094,5.5140939 -3.04535,0 -5.514094,-2.4687439 -5.514094,-5.5140939 0,-3.04535 2.468744,-5.514094 5.514094,-5.514094 3.04535,0 5.514094,2.468744 5.514094,5.514094 z"
               transform="matrix(1.084372,0,0,1.0842999,348.56967,523.51803)" />
            <path
               sodipodi:type="arc"
               style="color:#000000;fill:#4b0082;fill-opacity:1;fill-rule:evenodd;stroke:#ffffff;stroke-width:1.84444677999999995;stroke-linecap:butt;stroke-linejoin:round;stroke-miterlimit:4;stroke-opacity:1;stroke-dasharray:none;stroke-dashoffset:0;marker:none;visibility:visible;display:inline;overflow:visible;enable-background:accumulate"
               id="path3231"
               sodipodi:cx="38.125"
               sodipodi:cy="-8.125"
               sodipodi:rx="5.5140939"
               sodipodi:ry="5.5140939"
               d="m 43.639094,-8.125 c 0,3.04535 -2.468744,5.5140939 -5.514094,5.5140939 -3.04535,0 -5.514094,-2.4687439 -5.514094,-5.5140939 0,-3.04535 2.468744,-5.514094 5.514094,-5.514094 3.04535,0 5.514094,2.468744 5.514094,5.514094 z"
               transform="matrix(1.084372,0,0,1.0842999,360.73424,543.60792)" />
            <path
               sodipodi:type="arc"
               style="color:#000000;fill:#0000ff;fill-opacity:1;fill-rule:evenodd;stroke:#ffffff;stroke-width:1.84444677999999995;stroke-linecap:butt;stroke-linejoin:round;stroke-miterlimit:4;stroke-opacity:1;stroke-dasharray:none;stroke-dashoffset:0;marker:none;visibility:visible;display:inline;overflow:visible;enable-background:accumulate"
               id="path3233"
               sodipodi:cx="38.125"
               sodipodi:cy="-8.125"
               sodipodi:rx="5.5140939"
               sodipodi:ry="5.5140939"
               d="m 43.639094,-8.125 c 0,3.04535 -2.468744,5.5140939 -5.514094,5.5140939 -3.04535,0 -5.514094,-2.4687439 -5.514094,-5.5140939 0,-3.04535 2.468744,-5.514094 5.514094,-5.514094 3.04535,0 5.514094,2.468744 5.514094,5.514094 z"
               transform="matrix(1.084372,0,0,1.0842999,349.58337,563.79774)" />
            <path
               sodipodi:type="arc"
               style="color:#000000;fill:#008000;fill-opacity:1;fill-rule:evenodd;stroke:#ffffff;stroke-width:1.84444677999999995;stroke-linecap:butt;stroke-linejoin:round;stroke-miterlimit:4;stroke-opacity:1;stroke-dasharray:none;stroke-dashoffset:0;marker:none;visibility:visible;display:inline;overflow:visible;enable-background:accumulate"
               id="path3235"
               sodipodi:cx="38.125"
               sodipodi:cy="-8.125"
               sodipodi:rx="5.5140939"
               sodipodi:ry="5.5140939"
               d="m 43.639094,-8.125 c 0,3.04535 -2.468744,5.5140939 -5.514094,5.5140939 -3.04535,0 -5.514094,-2.4687439 -5.514094,-5.5140939 0,-3.04535 2.468744,-5.514094 5.514094,-5.514094 3.04535,0 5.514094,2.468744 5.514094,5.514094 z"
               transform="matrix(1.084372,0,0,1.0842999,326.099,563.79774)" />
            <path
               sodipodi:type="arc"
               style="color:#000000;fill:#ffff00;fill-opacity:1;fill-rule:evenodd;stroke:#ffffff;stroke-width:1.84444677999999995;stroke-linecap:butt;stroke-linejoin:round;stroke-miterlimit:4;stroke-opacity:1;stroke-dasharray:none;stroke-dashoffset:0;marker:none;visibility:visible;display:inline;overflow:visible;enable-background:accumulate"
               id="path3237"
               sodipodi:cx="38.125"
               sodipodi:cy="-8.125"
               sodipodi:rx="5.5140939"
               sodipodi:ry="5.5140939"
               d="m 43.639094,-8.125 c 0,3.04535 -2.468744,5.5140939 -5.514094,5.5140939 -3.04535,0 -5.514094,-2.4687439 -5.514094,-5.5140939 0,-3.04535 2.468744,-5.514094 5.514094,-5.514094 3.04535,0 5.514094,2.468744 5.514094,5.514094 z"
               transform="matrix(1.084372,0,0,1.0842999,313.25862,543.60792)" />
          </g>
          <g
             transform="matrix(1.8895758,0,0,1.8895758,-414.17314,-502.30678)"
             id="g5513">
            <path
               inkscape:connector-curvature="0"
               id="path6109"
               style="fill:url(#radialGradient4511);fill-opacity:1;fill-rule:evenodd;stroke:none;display:inline"
               d="m 419.41289,541.62975 c -1.28617,0 -2.49216,0.33832 -3.53984,0.92659 -6.5e-4,3.9e-4 -0.002,-3.9e-4 -0.003,0 -0.67794,0.38094 -1.28445,0.87088 -1.80535,1.44106 -1.17844,1.28998 -1.90506,3.00108 -1.90506,4.88492 0,4.00391 3.25025,7.25257 7.25287,7.25257 0.12598,0 0.24822,-0.012 0.37262,-0.0184 0.20016,-0.0102 0.39747,-0.0263 0.59303,-0.0525 1.81341,-0.24267 3.41517,-1.15095 4.54747,-2.4779 1.08114,-1.26696 1.73713,-2.90871 1.73713,-4.70379 0,-0.91608 -0.17522,-1.78879 -0.48545,-2.59601 -0.15216,-0.39592 -0.34022,-0.77494 -0.5563,-1.13396 -0.93644,-1.5559 -2.43566,-2.72958 -4.21947,-3.23911 -0.63326,-0.18088 -1.29797,-0.28349 -1.98903,-0.28349 z" />
            <path
               inkscape:connector-curvature="0"
               id="path6111"
               style="fill:url(#radialGradient4513);fill-opacity:1;fill-rule:evenodd;stroke:none;display:inline"
               d="m 418.38587,541.85814 c -0.0261,0 -0.0674,0.005 -0.0851,0.0284 -0.0171,0.0228 -0.0335,0.0524 -0.052,0.0709 -0.0111,0.0111 -0.0227,0.0426 -0.052,0.0426 -0.0169,0 -0.0729,-0.009 -0.0851,0 -0.0225,0.0169 -0.0543,0.033 -0.0615,0.0615 -0.009,0.0366 -0.0401,0.0307 -0.0662,0.0567 -0.0147,0.0147 -0.0491,0.0418 -0.0709,0.0473 -0.0285,0.007 -0.0536,0.0142 -0.0851,0.0142 -0.024,0 -0.0573,-0.006 -0.0804,0 -0.0378,0.009 -0.0575,0.0439 -0.0898,0.052 -0.0294,0.007 -0.0427,0.0191 -0.0567,0.0378 -0.0181,0.0242 -0.0603,0.0378 -0.0898,0.0378 -0.0453,0 -0.0473,0.008 -0.0804,0.0331 -0.0235,0.0176 -0.0646,0.0236 -0.0946,0.0236 -0.0402,0 -0.0972,10e-4 -0.13239,0.0189 -0.024,0.012 -0.0558,0.0166 -0.0662,0.0426 -0.0166,0.0415 -0.0305,0.046 -0.0709,0.0662 -0.0235,0.0118 -0.0753,0.028 -0.0946,0.0473 -0.0147,0.0147 -0.0228,0.067 -0.0425,0.0709 10e-4,8.4e-4 0.031,0.0267 0.0378,0.0284 0.0291,0.007 0.0669,0.005 0.0993,0.005 0.0392,0 0.0733,0.005 0.11348,0.005 0.0345,0 0.0551,-0.0236 0.0851,-0.0236 0.0403,0 0.0803,-10e-6 0.11821,0.009 0.0316,0.008 0.0614,0.0189 0.0946,0.0189 0.0352,0 0.055,-0.002 0.0851,-0.009 0.0382,-0.01 0.0613,-0.008 0.0804,-0.0331 0.0168,-0.0224 0.031,-0.0362 0.052,-0.052 0.0168,-0.0126 0.0804,-0.0804 0.0946,-0.0804 0.0352,0 0.061,-0.0105 0.0946,-0.0189 0.0231,-0.006 0.024,-0.0614 0.0473,-0.0567 0.0137,0.003 0.0418,0.0369 0.0567,0.0331 0.013,-0.003 0.0291,-0.007 0.0426,-0.005 0.0135,0.002 0.0244,0.0123 0.0284,0.0284 0.008,0.0315 0.017,0.0305 0.0331,0.052 0.008,0.0105 0.0472,0.0572 0.0426,0.0757 -0.006,0.0225 -0.011,0.0602 -0.005,0.0851 0.006,0.0251 0.007,0.0528 0.0189,0.0757 0.008,0.0153 0.0293,0.051 0.0331,0.0662 0.007,0.0296 0.0239,0.0289 0.0378,0.0567 0.0166,0.0332 0.008,0.0477 -0.005,0.0804 -0.0112,0.028 -0.0275,0.0603 -0.0189,0.0946 0.002,0.007 0.003,0.0166 0.005,0.0236 0.005,0.0212 0.008,0.0326 0.0142,0.0378 0.006,0.005 0.0141,0.005 0.0378,0.005 0.0279,0 0.0664,1.5e-4 0.0804,0.0142 0.0189,0.019 0.0378,0.0296 0.0378,0.0568 0,0.0195 -0.0108,0.0716 -0.0284,0.0804 -0.0127,0.006 -0.052,0.0405 -0.052,0.0615 0,0.0263 0.005,0.0561 0.005,0.0804 0,0.005 -10e-4,0.0138 0,0.0189 0.008,0.0314 0.0145,0.0716 0.0284,0.0993 0.0109,0.0218 0.0353,0.0411 0.0473,0.0709 0.0106,0.0264 0.0116,0.0658 0.0236,0.0899 0.0133,0.0266 0.0266,0.0485 0.0378,0.0709 0.0133,0.0265 0.0213,0.078 0.0426,0.0993 0.0251,0.0251 0.0351,0.0421 0.0568,0.0709 0.0185,0.0247 0.0421,0.0563 0.0614,0.0757 0.0172,0.0172 0.0348,0.0395 0.0568,0.0615 0.0452,0.0452 0.0724,0.0717 0.12766,0.0993 0.0283,0.0141 0.0611,0.0282 0.0898,0.0426 0.0324,0.0162 0.0598,0.0378 0.0851,0.0568 0.0287,0.0216 0.0586,0.0527 0.0993,0.0426 0.0353,-0.009 0.0895,-0.002 0.12293,-0.0189 0.011,-0.005 0.0231,-0.009 0.0331,-0.0189 0.01,-0.01 0.0185,-0.0244 0.009,-0.0426 -0.007,-0.0147 -0.0236,-0.0387 -0.0236,-0.0615 0,-0.0388 -0.009,-0.0736 -0.009,-0.11349 0,-0.0283 -0.002,-0.05 0.005,-0.0757 0.005,-0.0203 0.007,-0.0496 0,-0.0757 -0.008,-0.0321 -0.002,-0.0628 -0.009,-0.0946 -0.007,-0.0264 -0.005,-0.0604 -0.005,-0.0898 0,-0.0276 -0.002,-0.0505 0.005,-0.0757 0.007,-0.0296 0.005,-0.0605 0.005,-0.0899 0,-0.0252 -0.004,-0.0531 0.005,-0.0709 0.009,-0.0183 0.0211,-0.0622 0.0473,-0.0709 0.0221,-0.007 0.0993,-0.0241 0.0993,-0.052 0,-0.0311 -0.003,-0.0544 -0.009,-0.0804 -0.007,-0.0299 -0.0271,-0.0593 -0.009,-0.0946 0.0203,-0.0405 0.0599,-0.0515 0.0851,-0.0851 0.0143,-0.0191 0.0392,-0.0392 0.0614,-0.0615 0.0167,-0.0167 0.0535,-0.0313 0.0615,-0.0473 0.0104,-0.0208 0.0236,-0.0516 0.0236,-0.0757 0,-0.0169 0.007,-0.0767 -0.009,-0.0851 -0.0245,-0.0122 -0.052,-0.008 -0.052,-0.0378 0,-0.0199 0.0215,-0.0659 0.0142,-0.0804 -0.0115,-0.0229 -0.0243,-0.0427 -0.0615,-0.052 -0.0293,-0.007 -0.0697,-0.013 -0.0993,-0.0189 -0.018,-0.004 -0.0588,-0.009 -0.0662,-0.0236 -0.008,-0.0168 -0.0166,-0.0627 -0.0331,-0.0709 -0.0268,-0.0134 -0.0571,-0.0142 -0.0898,-0.0142 -0.008,0 -0.11029,-0.0245 -0.0756,-0.0331 0.0344,-0.009 0.0334,-0.0149 0.0473,-0.0426 0.008,-0.0157 0.0237,-0.0425 0.009,-0.0615 -0.0198,-0.0264 -0.0467,-0.0373 -0.0662,-0.0568 -0.0259,-0.0259 -0.0858,-0.0378 -0.12293,-0.0378 -0.005,0 -0.009,10e-4 -0.0142,0 -0.0209,-0.005 -0.0405,-0.0263 -0.0567,-0.0426 -0.0241,-0.0241 -0.0678,-0.0347 -0.0993,-0.0426 -0.0239,-0.006 -0.0385,-0.0262 -0.0662,-0.0331 -0.0273,-0.007 -0.0567,-0.007 -0.0851,-0.0142 -0.0371,-0.009 -0.0768,-0.0163 -0.11348,-0.0237 -0.0136,-0.003 -0.10982,-0.01 -0.10402,-0.0331 0.004,-0.0142 0.0218,-0.0473 0.0426,-0.0473 0.0285,0 0.0621,0.006 0.0898,0 0.0363,-0.007 0.0735,-0.0142 0.11349,-0.0142 0.0365,0 0.0733,0.002 0.10874,0.009 0.0443,0.009 0.0935,0.003 0.13713,0.0142 0.0343,0.009 0.0871,0.0142 0.12293,0.0142 0.0504,0 0.10915,-0.005 0.16076,-0.005 0.0789,0 0.1493,-0.0189 0.22696,-0.0189 0.0449,0 0.0603,-0.0274 0.0946,-0.0331 0.0174,-0.003 0.0321,-0.008 0.0378,-0.0142 0.006,-0.006 7.4e-4,-0.0128 -0.0236,-0.0189 -0.0297,-0.007 -0.0639,0.003 -0.0946,-0.005 -0.0231,-0.006 -0.0598,-0.0142 -0.0851,-0.0142 -0.0365,0 -0.0677,-0.005 -0.10402,-0.005 -0.026,0 -0.0494,0.008 -0.0756,0.0142 -0.0346,0.009 -0.0678,0 -0.10403,0 -0.0371,0 -0.0764,0 -0.11348,0 -0.0508,0 -0.10417,-0.009 -0.15131,-0.009 -0.0307,0 -0.0608,-0.005 -0.0851,-0.005 -0.0483,0 -0.10429,-1.5e-4 -0.14185,-0.0189 -0.035,-0.0175 -0.0604,-0.0281 -0.0993,-0.0378 -0.018,-0.005 -0.0597,-0.052 -0.0756,-0.052 z m 3.01667,0.0567 c -0.0593,0.0123 -0.12045,0.0195 -0.17495,0.0331 -0.0689,0.0172 -0.11143,0.049 -0.17494,0.0331 -0.0442,-0.011 -0.0862,-0.0144 -0.1324,-0.0236 0.015,0.015 0.008,0.0346 -0.005,0.052 -0.0125,0.0174 -0.033,0.0307 -0.0426,0.0378 -0.001,10e-4 -0.10902,0.0131 -0.11348,0.0142 -0.0256,0.006 -0.0156,0.0236 0,0.0426 0.0156,0.0189 0.0396,0.0359 0.0473,0.0378 0.0585,0.0146 0.13225,0.0496 0.18439,0.0757 0.0224,0.0112 0.0329,0.0201 0.0378,0.0331 0.005,0.013 0.004,0.0314 0.009,0.052 0.0102,0.0407 0.0161,0.053 0.052,0.0709 0.0314,0.0157 0.10184,0.0189 0.13712,0.0189 0.0572,0 0.14168,0.0283 0.18441,0.0426 0.036,0.012 0.0895,0.0517 0.11347,0.0757 0.0249,0.0249 0.0487,0.0397 0.0757,0.0757 0.0312,0.0417 0.0629,0.0645 0.10402,0.0851 0.0356,0.0178 0.0912,0.0172 0.11348,0.0284 0.0406,0.0203 0.09,0.0522 0.11821,0.0804 0.0333,0.0333 0.0598,0.0645 0.0851,0.0898 0.0328,0.0329 0.0407,0.0696 0.0804,0.0993 0.0406,0.0304 0.0732,0.0543 0.10403,0.0851 0.0358,0.0358 0.0678,0.0536 0.0993,0.0851 0.0248,0.0248 0.0493,0.0608 0.0898,0.0709 0.0551,0.0138 0.0902,-0.0214 0.13712,-0.0331 0.023,-0.006 0.10617,0.0808 0.1182,0.0898 0.0279,0.0209 0.0548,0.0624 0.0662,0.0851 0.0129,0.0259 0.0568,0.0615 0.0756,0.0804 0.0364,0.0364 0.0451,0.0438 0.0898,0.0662 0.0183,0.009 0.0392,0.0107 0.0567,0.005 0.0175,-0.006 0.0295,-0.0189 0.0331,-0.0331 0.01,-0.0395 0.025,-0.0606 0.0142,-0.10403 -0.006,-0.0256 -0.002,-0.0547 0.009,-0.0757 0.0119,-0.0209 0.0312,-0.0317 0.0662,-0.0142 0.025,0.0125 0.0409,0.0534 0.052,0.0757 0.0157,0.0314 0.0378,0.073 0.0378,0.11821 0,0.0401 0,0.0663 0,0.10878 0,0.0172 0.19887,0.12796 0.20332,0.13241 0.0255,0.0255 0.0598,0.0415 0.0898,0.0615 0.033,0.022 0.0543,0.0437 0.0993,0.0662 0.0255,0.0127 0.0392,0.0364 0.0473,0.0615 0.008,0.0251 0.01,0.0501 0.005,0.0709 -0.006,0.0234 0.0139,0.0767 0.005,0.1135 -0.007,0.0285 -0.0124,0.0511 -0.009,0.0662 0.003,0.0151 0.0151,0.0217 0.0473,0.0378 0.0466,0.0233 0.0643,0.0603 0.11348,0.0898 0.0257,0.0155 0.0459,0.19588 0.0615,0.227 0.0179,0.0358 0.038,0.0843 0.0284,0.12295 -0.0105,0.042 -0.0284,0.0731 -0.0284,0.11822 0,0.0322 -0.0252,0.0772 -0.0331,0.10877 -0.008,0.0301 -0.0218,0.0619 -0.0284,0.0851 -0.007,0.0232 -0.005,0.0385 0.0284,0.052 0.0438,0.0175 0.11587,0.0378 0.16076,0.0378 0.0475,0 0.0944,0 0.14185,0 0.0225,0 0.0453,0.0453 0.0662,0.0946 0.0209,0.0493 0.0384,0.10233 0.0426,0.12296 0.009,0.0438 0.0202,0.0628 0.0473,0.0898 0.0355,0.0355 0.0874,0.0661 0.0993,0.11349 0.0135,0.0541 0.0322,0.068 0.009,0.1135 -0.0111,0.0222 -0.0888,0.0397 -0.11348,0.052 -0.0355,0.0177 -0.0951,0.0242 -0.14658,0.0378 -0.0257,0.007 -0.0491,0.0168 -0.0662,0.0284 -0.0171,0.0116 -0.0284,0.027 -0.0284,0.0473 0,0.0463 0.0186,0.0657 0.0378,0.10404 0.0209,0.0418 0.0402,0.0741 0.0662,0.10877 0.004,0.006 0.009,0.0139 0.0142,0.0189 0.0288,0.0289 0.0258,0.0738 0.052,0.10877 0.0361,0.0482 0.054,0.089 0.0804,0.14187 0.0254,0.0509 0.0828,0.09 0.11348,0.15132 0.0171,0.0343 0.0473,0.0996 0.0473,0.14661 0,0.0371 0.0196,0.0735 0.0284,0.10876 0.007,0.0269 0.034,0.053 0.0615,0.0709 0.0275,0.018 0.0553,0.0316 0.0804,0.0378 0.0443,0.0111 0.0956,0.005 0.14185,0.005 0.049,0 0.079,-0.0142 0.12294,-0.0142 0.0253,0 0.0612,-0.0659 0.0756,-0.0851 0.0316,-0.0421 0.05,-0.0675 0.0615,-0.11349 0.006,-0.0248 0.0126,-0.0495 0.0142,-0.0757 0.002,-0.0261 -0.003,-0.0507 -0.0237,-0.0709 -0.0172,-0.0172 -0.0201,-0.0342 -0.0189,-0.052 0.001,-0.0178 0.007,-0.0356 0.0189,-0.052 0.007,-0.009 0.009,-0.12216 0.009,-0.12769 0,-0.005 -0.0601,-0.0801 -0.0709,-0.0946 -0.0266,-0.0354 -0.0333,-0.0807 -0.052,-0.11823 -0.0202,-0.0404 -0.0236,-0.0759 -0.0236,-0.12768 0,-0.04 0,-0.0782 0,-0.11823 0,-0.0541 -0.0247,-0.072 -0.052,-0.0993 -0.0287,-0.0287 -0.0275,-0.0534 -0.0378,-0.0946 -0.007,-0.0282 -0.004,-0.0448 0.005,-0.0567 0.009,-0.012 0.025,-0.0199 0.0426,-0.0331 0.0291,-0.0218 0.0378,-0.0679 0.0378,-0.10403 -10e-6,-0.0261 -0.008,-0.0525 -0.009,-0.0709 -10e-4,-0.0184 0.003,-0.0326 0.0236,-0.0378 0.0192,-0.005 0.0409,0.011 0.0567,0.0284 0.0159,0.0174 0.0266,0.0386 0.0331,0.0473 0.0246,0.0329 0.0297,0.0518 0.0615,0.0757 0.0427,0.0321 0.10504,0.0478 0.14185,0.0662 0.0389,0.0195 0.0745,0.0393 0.10402,0.0615 0.0366,0.0274 0.0671,0.0529 0.0898,0.0757 0.0217,0.0217 0.028,0.0642 0.0473,0.0899 0.0202,0.0269 0.0428,0.0333 0.0662,0.0567 0.0252,0.0253 0.0396,0.0745 0.052,0.0993 0.0138,0.0275 0.0233,0.0382 0.0331,0.0378 0.01,-3.4e-4 0.0219,-0.0133 0.0426,-0.0236 0.0131,-0.007 -0.0203,-0.10494 -0.0236,-0.11823 -0.009,-0.037 -0.0614,-0.0896 -0.0757,-0.11822 -0.0153,-0.0305 -0.0103,-0.0436 0,-0.0426 0.0103,10e-4 0.0272,0.013 0.0378,0.0236 0.0313,0.0313 0.0611,0.0419 0.0851,0.0899 0.0104,0.0208 0.0499,0.0499 0.0709,0.0709 0.0308,0.0308 0.0265,0.0589 0.0378,0.10404 0.004,0.016 0.014,0.0198 0.0236,0.0189 0.01,-8.6e-4 0.0217,-0.009 0.0331,-0.0189 0.0228,-0.0202 0.0462,-0.05 0.052,-0.0615 0.0141,-0.0283 0.0184,-0.0598 0.0284,-0.0899 0.013,-0.0391 0.007,-0.0728 -0.005,-0.10404 -0.0114,-0.0312 -0.0305,-0.0596 -0.0426,-0.0898 -0.0108,-0.0271 -0.0276,-0.0507 -0.0426,-0.0757 -0.0455,-0.0758 -0.0831,-0.14732 -0.12293,-0.22699 -0.002,-0.004 -0.003,-0.006 -0.005,-0.009 -0.93643,-1.5559 -2.43385,-2.72982 -4.21766,-3.23936 z m -4.61484,0.62423 c -0.0238,0 -0.0618,0.0451 -0.0756,0.052 -0.0304,0.0152 -0.0622,0.0502 -0.0898,0.0709 -0.0287,0.0216 -0.053,0.0409 -0.0804,0.0615 -0.0312,0.0234 -0.052,0.0284 -0.0993,0.0284 -0.0449,10e-6 -0.0459,0.0206 -0.0804,0.0378 -0.0403,0.0202 -0.0776,0.0843 -0.0946,0.11822 -0.016,0.032 -0.0389,0.072 -0.0567,0.0899 -0.0216,0.0217 -0.0602,0.0348 -0.0851,0.0473 -0.0297,0.0148 -0.0189,0.0734 -0.0189,0.10403 0,0.0204 -0.0797,0.0236 -0.0851,0.0236 -0.0109,0 -0.0737,-0.0926 -0.0804,-0.0993 -0.0334,-0.0335 -0.016,-0.0395 -0.0662,-0.052 -0.0272,-0.007 -0.0492,-0.004 -0.0615,-0.009 -0.0122,-0.005 -0.0189,-0.0184 -0.0189,-0.052 0,-0.0365 0.0437,-0.0531 0.0615,-0.071 0.0216,-0.0216 0.0642,-0.0368 0.0851,-0.0473 0.0304,-0.0152 0.0433,-0.0432 0.0662,-0.0662 0.0285,-0.0285 0.0331,-0.0613 0.0331,-0.10404 0,-0.0133 -0.0673,-0.0407 -0.0804,-0.0473 -0.03,-0.015 -0.0491,-0.0482 -0.0851,-0.0662 -6.5e-4,3.9e-4 -0.004,-3.4e-4 -0.005,0 -0.67793,0.38093 -1.28532,0.86742 -1.80621,1.43761 -0.006,0.0292 -0.009,0.0643 -0.0189,0.0851 -0.0199,0.0397 -0.0477,0.0477 -0.0756,0.0757 -0.0209,0.0209 -0.032,0.06 -0.0473,0.0804 -0.022,0.0293 -0.0552,0.0411 -0.0804,0.0662 -0.0244,0.0244 -0.0236,0.0798 -0.0236,0.11351 0,0.0319 0.0141,0.0436 0.0284,0.0425 0.0143,-10e-4 0.0267,-0.0155 0.0378,-0.0378 0.0138,-0.0276 0.083,-0.0705 0.10876,-0.0898 0.0353,-0.0265 0.0857,-0.0437 0.10402,-0.0804 0.0166,-0.0331 0.0324,-0.0538 0.0426,-0.0946 0.0136,-0.0542 0.0435,-0.0776 0.0709,-0.13242 0.01,0.0306 0.0258,0.0684 0.0568,0.0993 0.0141,0.0142 0.0208,0.0347 0.0189,0.052 -0.002,0.0174 -0.0122,0.0338 -0.0189,0.0473 -0.0106,0.0213 -0.0535,0.0535 -0.0757,0.0757 -0.0269,0.0269 -0.0417,0.0266 -0.0567,0.0568 -0.0163,0.0325 -0.0433,0.0407 -0.052,0.0756 -0.008,0.0327 -0.0249,0.0571 -0.0331,0.0899 -0.0117,0.0467 -0.004,0.0749 -0.0378,0.10877 -0.023,0.023 -0.036,0.0684 -0.0426,0.0946 -0.0116,0.0465 -0.0325,0.0587 -0.0615,0.0804 -0.0316,0.0237 -0.043,0.0726 -0.052,0.10878 -0.0118,0.0474 -0.0682,0.0986 -0.0898,0.14186 -0.0186,0.0371 -0.0331,0.0426 -0.052,0.0804 -0.0131,0.0262 -0.015,0.0695 -0.0236,0.10403 -0.01,0.0384 -0.0312,0.0747 -0.0567,0.10876 -0.004,0.006 -0.0139,0.009 -0.0189,0.0142 -0.0253,0.0252 -0.0426,0.0835 -0.0426,0.11822 0,0.0323 -0.0435,0.0891 -0.052,0.12295 -0.0115,0.046 -0.0205,0.0836 -0.0378,0.11822 -0.0213,0.0427 -0.0415,0.0595 -0.0615,0.0993 -0.0219,0.0439 -0.0347,0.0694 -0.052,0.10404 -0.0139,0.0278 -0.0142,0.0678 -0.0142,0.10405 0,0.0318 -0.0111,0.0822 -0.0189,0.11348 -0.009,0.0346 0,0.0824 0,0.11824 0,0.0463 -0.0166,0.0733 -0.0426,0.0993 -0.0305,0.0305 -0.0499,0.0484 -0.0615,0.0946 -0.007,0.0292 -0.0269,0.0679 -0.0426,0.0993 -0.0208,0.0416 -0.0233,0.0657 -0.052,0.10405 -0.0216,0.0289 -0.0373,0.0738 -0.0473,0.11349 -0.0105,0.0422 -0.014,0.0752 -0.0331,0.11349 -0.0192,0.0385 -0.0234,0.0652 -0.0331,0.10404 -0.009,0.0376 -0.0252,0.0646 -0.0378,0.0899 -0.0182,0.0365 -0.0189,0.0756 -0.0284,0.1135 -0.0103,0.0413 -0.0142,0.0909 -0.0142,0.13239 0,0.0363 -0.0189,0.0807 -0.0189,0.12296 0,0.0436 -0.005,0.0797 -0.0142,0.11823 -0.009,0.0371 -0.005,0.0768 -0.005,0.11822 0,0.0589 -0.0142,0.11513 -0.0142,0.17498 0,0.046 0.0182,0.0538 0.0284,0.0946 0.009,0.0359 0.005,0.0783 0.0142,0.11348 0.004,0.0172 0.009,0.0312 0.009,0.052 0.0143,0.0572 0.052,0.0741 0.052,0.1324 0,0.0458 0.005,0.0665 0.0142,0.10404 0.009,0.0366 0,0.085 0,0.12295 0,0.0379 -0.0146,0.087 -0.0236,0.12296 -10e-4,0.005 0,0.009 0,0.0142 0,0.0452 -0.0142,0.0931 -0.0142,0.14187 0,0.0139 0.028,0.0796 0.0378,0.0993 0.0183,0.0365 0.0282,0.089 0.0378,0.1277 0.0143,0.0571 0.0304,0.10666 0.052,0.16077 0.0172,0.0431 0.0193,0.0766 0.0378,0.12294 0.0121,0.0303 -0.002,0.0871 0.005,0.11351 0.009,0.0368 0.009,0.08 0.009,0.11822 0,0.0431 0.009,0.0772 0.009,0.11822 -10e-6,0.041 0.005,0.0771 0.0142,0.1135 0.0109,0.0435 0.005,0.0757 0.0189,0.10403 0.024,0.048 0.0465,0.0584 0.0567,0.0993 0.0102,0.0409 0.0244,0.0785 0.0331,0.11349 0.0102,0.0409 0.0519,0.0751 0.0615,0.1135 0.0132,0.0528 0.061,0.0998 0.0851,0.15606 0.0149,0.0348 0.0151,0.0775 0.0284,0.10404 0.0126,0.0251 0.0706,0.0471 0.0898,0.0615 0.0179,0.0135 0.0179,0.0286 0.0236,0.0426 0.006,0.014 0.0154,0.0263 0.0426,0.0331 0.0325,0.008 0.0539,0.0404 0.0756,0.0567 0.0286,0.0215 -0.015,-0.0693 -0.0236,-0.10404 -0.01,-0.0393 -0.0492,-0.0805 -0.0662,-0.10876 -0.0159,-0.0265 -0.002,-0.0895 -0.0142,-0.1135 -0.0195,-0.039 -0.037,-0.0724 -0.0473,-0.11349 -0.0109,-0.0437 -0.0317,-0.0842 -0.0426,-0.12769 -0.0111,-0.0444 -0.0279,-0.0747 -0.0473,-0.11349 -0.0232,-0.0463 -0.052,-0.0634 -0.052,-0.11823 0,-0.0352 -0.027,-0.0966 -0.0426,-0.12768 -0.0163,-0.0327 -0.009,-0.0984 -0.009,-0.13714 0,-0.038 -0.0142,-0.0691 -0.0142,-0.10876 0,-0.0469 -0.0128,-0.0938 -0.0236,-0.13714 -0.01,-0.0399 -0.0236,-0.0755 -0.0236,-0.11823 0,-0.0316 0.008,-0.0423 0.0142,-0.0378 0.006,0.004 0.009,0.0252 0.009,0.052 0,0.0294 0.0399,0.0603 0.0473,0.0898 0.0104,0.0417 0.0177,0.085 0.0284,0.12768 0.008,0.0335 -0.009,0.0816 0,0.11823 0.0105,0.0419 0.0331,0.0661 0.0331,0.11349 0,0.0395 0.0142,0.0683 0.0142,0.10405 0,0.0259 0.0314,0.0783 0.0378,0.10403 0.0101,0.0406 0.0183,0.0828 0.0284,0.12295 0.009,0.034 0.0279,0.0783 0.0378,0.11823 0.008,0.0324 0.0284,0.0725 0.052,0.10403 0.0206,0.0274 0.0245,0.0774 0.0378,0.10404 0.0212,0.0423 0.0313,0.0674 0.052,0.10876 0.0168,0.0336 0.0291,0.0597 0.0378,0.0946 0.01,0.0395 0.0442,0.0931 0.0615,0.12769 0.0165,0.033 0.035,0.069 0.0426,0.0993 0.0112,0.0447 0.022,0.0961 0.0425,0.13713 0.0166,0.0332 0.0329,0.0657 0.0473,0.0946 0.0206,0.0413 0.0477,0.0713 0.0756,0.0993 0.0342,0.0342 0.0816,0.0507 0.12293,0.0709 0.0413,0.0202 0.0745,0.0428 0.0851,0.0851 0.009,0.0366 0.039,0.078 0.052,0.10404 0.0193,0.0385 0.0555,0.0744 0.0851,0.10404 0.0785,0.0785 0.14474,0.16221 0.24588,0.21281 0.0342,0.0171 0.057,0.0272 0.0993,0.0378 0.0426,0.0107 0.0773,0.015 0.11347,0.0331 0.0365,0.0182 0.0704,0.0236 0.11349,0.0236 0.0171,0 0.0605,0.0399 0.0898,0.0473 0.0262,0.007 0.0686,-0.009 0.10401,0 0.0487,0.0122 0.0641,-0.0313 0.11349,-0.0189 0.0457,0.0114 0.11581,0.11642 0.15602,0.14659 0.0356,0.0267 0.0727,0.0549 0.11349,0.0898 0.0373,0.032 0.0632,0.0501 0.10875,0.0615 0.0363,0.009 0.0565,0.0141 0.0851,0.0284 0.0306,0.0153 0.082,0.005 0.11821,0.005 0.0347,0 0.0694,0.0505 0.0898,0.0709 0.0485,0.0485 0.10549,0.076 0.13711,0.11822 0.0278,0.0371 0.0437,0.0862 0.0757,0.11822 0.0288,0.0288 0.0691,0.0644 0.10402,0.0993 0.0289,0.0289 0.0618,0.0488 0.0709,0.0851 0.01,0.0388 0.0563,0.0566 0.0851,0.0709 0.0317,0.0159 0.0745,0.0257 0.10402,0.0331 0.0264,0.007 0.069,0.0648 0.0898,0.0804 0.0159,0.0119 0.0974,-0.009 0.12294,-0.009 0.0333,0 0.0742,0.0485 0.0946,0.0757 0.0232,0.031 0.0376,0.0567 0.0804,0.0567 0.044,0 0.0808,-0.0194 0.10875,-0.0473 0.0221,-0.0221 0.0284,-0.0822 0.0284,-0.11349 0,-0.0291 0.0751,0.0373 0.0898,0.052 0.0231,0.0231 0.0533,0.058 0.0709,0.0757 0.0333,0.0333 0.0786,0.0767 0.0946,0.10877 0.0161,0.0321 0.007,0.075 0.0236,0.10877 0.0189,0.0378 0.0343,0.0599 0.0567,0.0898 0.024,0.032 0.0236,0.0577 0.0236,0.10877 0,0.041 0.009,0.0735 0.009,0.11349 0,0.035 -0.0299,0.0487 -0.0378,0.0804 -0.009,0.038 -0.0236,0.0645 -0.0236,0.1135 0,0.034 -0.0615,0.0682 -0.0615,0.11822 0,0.0378 0.0379,0.095 0.0473,0.13241 0.0107,0.0429 0.0227,0.0974 0.0426,0.13715 0.0229,0.0458 0.0584,0.0397 0.0709,0.0898 0.0108,0.0431 0.0135,0.0872 0.0236,0.12768 0.01,0.0382 0.0335,0.0534 0.0426,0.0899 0.008,0.0317 0.0323,0.0607 0.052,0.0804 0.0244,0.0244 0.0659,0.0484 0.0993,0.0567 0.0605,0.0151 0.0828,0.0395 0.11348,0.0804 0.0269,0.0359 0.0405,0.0741 0.0804,0.10404 0.0396,0.0297 0.0572,0.0335 0.0851,0.0615 0.006,0.006 0.0114,0.009 0.0189,0.0142 0.0377,0.0252 0.0481,0.0572 0.0946,0.0804 0.0377,0.0188 0.07,0.0505 0.10402,0.0709 0.0432,0.0259 0.0657,0.0447 0.10876,0.0662 0.037,0.0185 0.0655,0.054 0.0993,0.0709 0.0368,0.0184 0.0641,0.0336 0.10875,0.0426 0.0362,0.007 0.0826,0.0206 0.11349,0.0284 0.0469,0.0117 0.0919,0.0199 0.12766,0.0378 0.0336,0.0168 0.0704,0.0562 0.0898,0.0757 0.0279,0.0279 0.0747,0.0492 0.10876,0.0662 0.0257,0.0129 0.0611,0.0353 0.0851,0.0473 0.0478,0.0239 0.0666,0.0582 0.10875,0.0898 0.0325,0.0244 0.0546,0.0547 0.0804,0.0804 0.0314,0.0314 0.0503,0.074 0.0756,0.0993 0.0302,0.0303 0.0429,0.0628 0.052,0.0993 0.0115,0.0459 0.0431,0.072 0.0615,0.10878 0.0181,0.0362 0.0703,0.0575 0.0946,0.0899 0.0235,0.0314 0.0695,0.0459 0.0946,0.0709 0.0329,0.0329 0.0617,0.0429 0.0899,0.0804 0.0273,0.0365 0.0566,0.0472 0.0756,0.0662 0.0269,0.0269 0.0658,0.04 0.0898,0.052 0.007,0.004 0.0117,0.007 0.0189,0.009 0.20016,-0.0102 0.39547,-0.0258 0.59104,-0.052 0.002,-0.004 0.008,-0.005 0.009,-0.009 0.0125,-0.0499 0.0733,-0.0887 0.0993,-0.12768 0.0269,-0.0403 0.0695,-0.0451 0.10402,-0.052 0.041,-0.008 0.0592,-0.0356 0.0898,-0.0662 0.0313,-0.0313 0.0612,-0.0611 0.0898,-0.0993 0.0283,-0.0377 0.0384,-0.0639 0.0615,-0.0946 0.0272,-0.0363 0.033,-0.0707 0.052,-0.10878 0.0218,-0.0436 0.0448,-0.0768 0.0804,-0.0946 0.0414,-0.0207 0.0533,-0.0523 0.0898,-0.0615 0.0488,-0.0122 0.07,-0.0317 0.11347,-0.0426 0.0352,-0.009 0.0932,-0.0932 0.11349,-0.1135 0.0299,-0.0299 0.0502,-0.0495 0.0804,-0.0898 0.0112,-0.0149 0.0202,-0.0344 0.0331,-0.0473 0.01,-0.0125 0.0184,-0.0206 0.0284,-0.0331 0.0168,-0.021 0.0175,-0.0891 0.0236,-0.11349 0.009,-0.0348 0.0264,-0.0811 0.0426,-0.1135 0.0166,-0.0333 0.0112,-0.0791 0.0284,-0.11349 0.0191,-0.0383 0.0312,-0.0718 0.0473,-0.10404 0.018,-0.036 0.006,-0.078 0.0236,-0.11349 0.0183,-0.0365 0.0292,-0.0725 0.0426,-0.0993 0.0192,-0.0384 0.0122,-0.051 0.0615,-0.0757 0.0263,-0.0132 0.0534,-0.0581 0.0757,-0.0804 0.0208,-0.0208 0.0324,-0.0837 0.0426,-0.10404 0.0177,-0.0355 0.0622,-0.067 0.0851,-0.0899 0.0181,-0.0181 0.0352,-0.0588 0.052,-0.0757 0.0201,-0.0201 0.0233,-0.0788 0.0284,-0.0993 0.008,-0.0326 0.006,-0.0708 0.0142,-0.10404 0.009,-0.0366 -0.0266,-0.0644 -0.0426,-0.0804 -0.0303,-0.0303 -0.0507,-0.0699 -0.0898,-0.0993 -0.0337,-0.0253 -0.0572,-0.0383 -0.0757,-0.0567 -0.0243,-0.0243 -0.0674,-0.0361 -0.0993,-0.052 -0.0272,-0.0136 -0.052,-0.0189 -0.0946,-0.0189 -0.04,0 -0.0829,0 -0.12294,0 -0.0431,0 -0.0658,0.009 -0.10402,0.009 -0.0408,10e-6 -0.068,0.009 -0.10875,0.009 -0.0375,0 -0.076,0 -0.11348,0 -0.0339,0 -0.0595,-0.0189 -0.0993,-0.0189 -0.0407,0 -0.0444,-0.0277 -0.0662,-0.0568 -0.0195,-0.026 -0.0713,-0.0331 -0.10402,-0.0331 -0.0444,0 -0.0856,-0.005 -0.13712,-0.005 -0.0595,0 -0.0694,0.0158 -0.11349,0.0378 -0.0312,0.0156 -0.061,0.0374 -0.0804,0.0568 -0.0226,0.0226 -0.0725,0.0366 -0.0993,0.0473 -0.0353,0.0141 -0.0803,0.008 -0.11348,0 -0.0226,-0.006 -0.0296,-0.0206 -0.0331,-0.0378 -0.004,-0.0172 0,-0.0389 0,-0.0615 0,-0.0438 0.0258,-0.0636 0.052,-0.0898 0.0171,-0.0171 0.0142,-0.0774 0.0142,-0.10404 0,-0.0528 0.006,-0.0595 -0.0142,-0.0993 -0.0171,-0.0342 -0.0518,-0.0471 -0.0709,-0.0662 -0.0226,-0.0226 -0.0397,-0.0633 -0.0615,-0.0851 -0.0208,-0.0208 -0.0425,-0.0614 -0.0567,-0.0898 -0.0141,-0.0282 -0.0542,-0.0437 -0.0804,-0.0567 -0.0325,-0.0163 -0.082,-0.0217 -0.10874,-0.0284 -0.0327,-0.008 -0.0796,0 -0.11349,0 -0.0375,0 -0.0713,0 -0.10875,0 -0.0401,0 -0.0711,0.009 -0.10875,0.009 -0.0282,0 -0.0555,0.0189 -0.0946,0.0189 -0.0308,0 -0.0593,-0.0429 -0.0804,-0.0709 -0.0276,-0.0368 -0.0614,-0.0425 -0.0851,-0.0662 -0.0253,-0.0253 -0.0559,-0.0322 -0.0757,-0.052 -0.0235,-0.0235 -0.0878,-0.0349 -0.11821,-0.0426 -0.0447,-0.0112 -0.0822,-0.0222 -0.11348,-0.0378 -0.0431,-0.0216 -0.0448,-0.0423 -0.0662,-0.0851 -0.0182,-0.0365 -0.0331,-0.0566 -0.0331,-0.0946 0,-0.0301 -0.0184,-0.0793 -0.0284,-0.0993 -0.007,-0.0145 -0.0191,-0.0302 -0.0236,-0.0378 -0.0146,-0.0293 -0.002,-0.0455 0.005,-0.0567 0.007,-0.0113 0.009,-0.0166 -0.0189,-0.0236 -0.003,-8.5e-4 -0.069,0.0612 -0.0757,0.0662 -0.0299,0.0224 -0.0523,0.0178 -0.0946,0.0284 -0.0623,0.0156 -0.0689,0.0129 -0.12293,-0.0142 -0.0225,-0.0112 -0.0262,-0.0246 -0.0331,-0.0331 -0.007,-0.009 -0.0134,-0.0132 -0.0473,-0.005 -0.0345,0.009 -0.0602,0.0325 -0.0898,0.0473 -0.0334,0.0167 -0.0508,0.0204 -0.0804,0.0426 -0.0306,0.023 -0.0852,0.0403 -0.11348,0.0615 -0.0261,0.0196 -0.0953,-0.0169 -0.10876,-0.0236 -0.0355,-0.0178 -0.0364,-0.0795 -0.0426,-0.10404 -0.008,-0.0331 -0.0177,-0.0372 -0.0284,-0.0284 -0.0106,0.009 -0.0236,0.033 -0.0331,0.052 -0.0122,0.0245 -0.03,0.0313 -0.0473,0.0331 -0.0173,0.002 -0.0316,-0.002 -0.0473,-0.009 -0.004,-0.002 0.005,-0.0994 0.005,-0.11349 0,-0.0184 -0.0596,-0.069 -0.0662,-0.0757 -0.0179,-0.0179 -0.0292,-0.0136 -0.0378,0 -0.009,0.0136 -0.0156,0.0359 -0.0236,0.052 -0.0184,0.0368 -0.0192,0.0819 -0.0284,0.12768 -0.008,0.0387 -0.009,0.0792 -0.009,0.11823 0,0.027 -0.0234,0.0471 -0.0426,0.0662 -0.0178,0.0178 -0.0206,-0.007 -0.0189,-0.0426 0.002,-0.0357 0.01,-0.0794 0.005,-0.10403 -0.008,-0.0398 -0.0233,-0.0744 -0.0331,-0.11349 -0.008,-0.0325 -0.007,-0.0651 -0.0189,-0.0899 -0.0118,-0.0237 -0.0326,-0.004 -0.052,0.0236 -0.0194,0.0276 -0.0395,0.0653 -0.0473,0.0757 -0.0302,0.0403 -0.0952,0.0781 -0.11821,0.10877 -0.0109,0.0145 -0.0726,0.0386 -0.0898,0.0473 -0.0397,0.0199 -0.0897,0.0791 -0.12293,0.10403 -0.0316,0.0237 -0.0284,0.0909 -0.0284,0.12769 -10e-6,0.0464 0.0155,0.0398 -0.009,0.0898 -0.0118,0.0236 -0.0308,0.0225 -0.0473,0.0142 -0.0165,-0.008 -0.0268,-0.0221 -0.0331,-0.0284 -0.0263,-0.0263 -0.0467,-0.0377 -0.0851,-0.0473 -0.0419,-0.0105 -0.0745,0.0103 -0.10876,0.0189 -0.0463,0.0116 -0.0886,0.0316 -0.13238,0.0426 -0.0355,0.009 -0.0869,-0.002 -0.11822,-0.009 -0.0265,-0.007 -0.0517,-0.0423 -0.0756,-0.0662 -0.0301,-0.0302 -0.0405,-0.0399 -0.0709,-0.0804 -0.023,-0.0307 -0.0305,-0.0524 -0.0615,-0.0756 -0.0381,-0.0286 -0.0465,-0.0127 -0.0662,-0.052 -0.0169,-0.0338 -0.0283,-0.0567 -0.0473,-0.0757 -0.0191,-0.0191 -0.0142,-0.0664 -0.0142,-0.10403 0,-0.0368 -0.009,-0.0833 -0.009,-0.12296 0,-0.0383 -0.008,-0.0775 -0.0142,-0.10404 -0.008,-0.0332 -0.005,-0.0804 -0.005,-0.1135 0,-0.0278 -0.0473,-0.0556 -0.0709,-0.0615 -0.0392,-0.01 -0.0669,-0.0189 -0.12766,-0.0189 -0.0506,0 -0.0915,0 -0.14185,0 -0.0375,0 -0.076,0 -0.11348,0 -0.0285,0 -0.0356,-0.006 -0.052,-0.0142 -0.006,0 -0.0426,-0.0998 -0.0426,-0.11348 0,-0.0411 -0.009,-0.0735 -0.009,-0.1135 0,-0.0392 -0.007,-0.0761 -0.0142,-0.10403 -0.008,-0.0308 -0.005,-0.0679 -0.0142,-0.10405 -0.008,-0.0327 0,-0.0796 0,-0.11349 0,-0.041 0.009,-0.0606 0.009,-0.10404 0,-0.0291 0.005,-0.0698 0.005,-0.10404 0,-0.044 -0.0248,-0.0762 -0.0615,-0.0946 -0.032,-0.016 -0.0706,-0.009 -0.10875,-0.009 -0.0391,0 -0.0638,0.01 -0.0993,0.0189 -0.0402,0.01 -0.0599,0.0552 -0.0756,0.0709 -0.0268,0.0268 -0.0292,0.0693 -0.0378,0.10404 -0.008,0.0332 -0.005,0.0804 -0.005,0.1135 0,0.0185 -0.0415,0.0715 -0.0473,0.0946 -0.0105,0.0419 -0.068,0.0671 -0.0946,0.0804 -0.0395,0.0197 -0.10739,-0.004 -0.13712,-0.0189 -0.0243,-0.0122 -0.0677,-0.0824 -0.0804,-0.0993 -0.0204,-0.0273 -0.0429,-0.0477 -0.0615,-0.0662 -0.0252,-0.0252 -0.048,-0.0388 -0.0756,-0.0757 -0.0215,-0.0287 -0.0371,-0.06 -0.0473,-0.0804 -0.0179,-0.0358 -0.0229,-0.06 -0.0426,-0.0993 -0.0178,-0.0356 -0.0412,-0.073 -0.0615,-0.11348 -0.0224,-0.0448 -0.0231,-0.0657 -0.052,-0.0946 -0.0299,-0.0299 -0.0378,-0.0716 -0.0378,-0.1135 0,-0.042 -0.0142,-0.0861 -0.0142,-0.12768 0,-0.038 -0.0142,-0.0738 -0.0142,-0.11349 10e-6,-0.038 0,-0.0738 0,-0.1135 10e-6,-0.0351 0.0237,-0.064 0.0237,-0.10404 0,-0.0436 -0.009,-0.063 -0.009,-0.10404 0,-0.0494 0.004,-0.0738 0.0236,-0.12295 0.0127,-0.0317 0.0491,-0.0556 0.0615,-0.0804 0.0149,-0.0298 0.0306,-0.0518 0.052,-0.0804 0.0217,-0.0289 0.0549,-0.0457 0.0898,-0.0567 0.0349,-0.011 0.0711,-0.0201 0.10402,-0.0284 0.0513,-0.0128 0.0944,-0.007 0.14186,0.005 0.0514,0.0129 0.1017,0.0189 0.15603,0.0189 0.0262,0 0.0388,0.0128 0.052,0.0236 0.0133,0.0108 0.0263,0.0206 0.052,0.0142 0.0262,-0.007 0.0189,-0.0912 0.0189,-0.11349 0,-0.0268 -0.0104,-0.0408 -0.009,-0.052 9.8e-4,-0.0112 0.0129,-0.0206 0.0378,-0.0331 0.0436,-0.0218 0.05,-0.0284 0.10403,-0.0284 0.0477,0 0.0924,0.009 0.13712,0.009 0.0265,0 0.0651,0.0302 0.0898,0.0426 0.0241,0.0121 0.0391,0.0122 0.0567,0.0142 0.0176,0.002 0.0337,0.009 0.052,0.0331 0.0251,0.0335 0.0611,0.0564 0.0851,0.0804 0.0262,0.0262 0.0763,0.0405 0.0993,0.052 0.0169,0.008 0.0141,0.0943 0.0189,0.1135 0.009,0.0365 0.0308,0.0663 0.0473,0.0993 0.023,0.0461 0.0338,0.0964 0.052,0.14187 0.013,0.0326 0.0252,0.0646 0.0378,0.0898 0.0199,0.0398 0.0313,0.0582 0.0662,0.0757 0.0287,0.0143 0.0583,0.0158 0.0898,0.0237 0.0373,0.009 0.0676,-0.024 0.0851,-0.0473 0.0135,-0.018 0.01,-0.045 0.005,-0.0709 -0.005,-0.0259 -0.0148,-0.0514 -0.0236,-0.0662 -0.028,-0.0466 -0.0196,-0.0919 -0.0378,-0.1466 -0.0144,-0.0431 -0.0442,-0.0842 -0.0662,-0.1135 -0.0219,-0.0293 -0.026,-0.0804 -0.0426,-0.11349 -0.0177,-0.0353 -0.0288,-0.0631 -0.0378,-0.0993 -0.009,-0.0356 -0.0112,-0.0733 -0.0189,-0.10403 -0.0118,-0.0474 0.0157,-0.0866 0.0473,-0.11822 0.0234,-0.0234 0.0265,-0.0398 0.0331,-0.0662 0.0378,-0.0378 0.058,-0.083 0.0804,-0.12767 0.0191,-0.0382 0.0284,-0.0691 0.0284,-0.11351 0,-0.0232 0.0214,-0.0475 0.0473,-0.0709 0.0258,-0.0234 0.0562,-0.0466 0.0709,-0.0662 0.0275,-0.0366 0.0651,-0.0736 0.0851,-0.11349 0.0168,-0.0337 0.0502,-0.059 0.0615,-0.10404 0.008,-0.0308 0.005,-0.0679 0.0142,-0.10404 0.01,-0.0401 0.0187,-0.0749 0.0284,-0.11349 0.01,-0.0387 0.009,-0.0719 0,-0.10877 -0.009,-0.0359 -0.0239,-0.0715 -0.0378,-0.0993 -0.0188,-0.0375 -0.0447,-0.0589 -0.0662,-0.0804 -0.0169,-0.0169 -0.0142,-0.0863 -0.0142,-0.11348 0,-0.0241 0.0723,-0.0236 0.0946,-0.0236 0.0345,0 0.0754,-0.0224 0.0993,-0.0284 0.0221,-0.006 0.0529,-0.0585 0.0662,-0.0851 0.0166,-0.0332 0.0279,-0.0644 0.0378,-0.10404 0.0107,-0.0428 -0.009,-0.0759 -0.009,-0.11349 0,-0.0323 0.0358,-0.0676 0.0615,-0.0804 0.0369,-0.0184 0.0589,-0.0331 0.10403,-0.0331 0.0438,0 0.0807,0.009 0.12293,0.009 0.0505,0 0.0618,-0.0149 0.0804,-0.052 0.014,-0.028 0.009,-0.0801 0.009,-0.11349 0,-0.0383 -0.002,-0.0758 -0.009,-0.10405 -0.006,-0.023 0.005,-0.0464 0.009,-0.0662 -0.006,-0.0254 0.0456,-0.10233 0.052,-0.10876 0.0247,-0.0247 0.0519,-0.0496 0.0851,-0.0662 0.0284,-0.0142 0.0614,-0.0377 0.0898,-0.0662 0.0307,-0.0307 0.0569,-0.0664 0.0756,-0.0851 0.0277,-0.0277 0.0317,-0.0553 0.0567,-0.0804 0.0118,-0.0118 0.006,0.0864 0,0.0993 -0.009,0.0184 -0.005,0.0314 0.005,0.0473 0.009,0.0159 0.0246,0.0321 0.0284,0.0473 0.006,0.0246 -0.004,0.0411 -0.005,0.052 -6.6e-4,0.0109 0.005,0.0189 0.0378,0.0189 0.0466,0 0.0585,-0.0129 0.0757,-0.0473 0.0183,-0.0367 0.0512,-0.0408 0.0851,-0.0662 0.0257,-0.0193 0.0402,-0.0496 0.0662,-0.0757 0.0306,-0.0306 0.0516,-0.0373 0.0804,-0.0757 0.0247,-0.033 0.0577,-0.0336 0.0946,-0.052 0.0517,-0.0259 0.0281,-0.0614 0.0851,-0.0757 0.0352,-0.009 0.0574,-0.0392 0.0709,-0.0662 0.0141,-0.0283 -0.0236,-0.0691 -0.0236,-0.0993 0,-0.0482 -0.013,-0.0662 -0.0378,-0.0993 -0.0134,-0.0178 -0.0264,-0.0211 -0.0378,-0.0189 -0.0114,0.002 -0.0192,0.01 -0.0284,0.0189 -0.0225,0.0226 -0.0331,0.0804 -0.0473,0.10876 -0.0197,0.0395 -0.01,0.0653 -0.0426,0.0899 -0.024,0.0179 -0.0871,-0.0488 -0.10402,-0.0615 -0.0297,-0.0223 -0.0742,-0.0284 -0.11348,-0.0284 -0.0243,0 -0.0364,0.009 -0.0473,0.0142 -0.0109,0.005 -0.0215,0.004 -0.0378,-0.0284 -0.0131,-0.0261 -0.009,-0.0813 -0.0142,-0.10404 -0.005,-0.0206 -0.0177,-0.0292 -0.0236,-0.0378 -0.006,-0.009 -0.002,-0.0216 0.0189,-0.0426 0.0274,-0.0274 0.0426,-0.0156 0.0426,-0.0662 0,-0.0381 0.033,-0.0661 0.0615,-0.0804 0.0369,-0.0185 0.017,-0.0473 0.0709,-0.0473 0.0375,0 0.0765,-0.0123 0.0993,-0.0236 0.0215,-0.0108 0.0342,-0.0254 0.0331,-0.0378 -10e-4,-0.0124 -0.0127,-0.0189 -0.0378,-0.0189 -0.0473,0 -0.0746,0.0284 -0.12293,0.0284 -0.0299,0 -0.0777,0.0326 -0.10403,0.0378 -0.0379,0.008 -0.074,0.004 -0.11347,0.0142 -0.0406,0.0101 -0.072,0.0416 -0.11349,0.052 -0.0365,0.009 -0.0822,0.0689 -0.0898,0.0993 -0.0118,0.0473 -0.0504,0.0882 -0.0851,0.12296 -0.0347,0.0347 -0.0515,0.0357 -0.0851,0.0189 -0.004,-0.002 0.0508,-0.097 0.0615,-0.11822 0.0245,-0.0489 0.0324,-0.0797 0.0756,-0.12296 0.0328,-0.0328 0.0671,-0.053 0.0946,-0.0804 0.0322,-0.0322 0.0475,-0.0651 0.0898,-0.0757 0.0431,-0.0108 0.0915,-0.005 0.13713,-0.005 0.0433,-2e-5 0.0716,-0.0189 0.10874,-0.0189 0.0346,0 0.0735,-0.048 0.10403,-0.0709 0.035,-0.0263 0.092,-0.025 0.13239,-0.0331 0.046,-0.009 0.065,-0.0213 0.0804,-0.052 0.0169,-0.0339 0.0616,-0.0285 0.0851,-0.052 0.0168,-0.0168 0.0188,-0.0346 0.0236,-0.0473 0.005,-0.0127 0.009,-0.0223 0.0331,-0.0284 0.0372,-0.009 0.0782,-0.007 0.10875,-0.0142 0.0327,-0.008 0.0749,0 0.10876,0 0.0266,0 0.0442,-0.004 0.052,-0.0142 0.008,-0.0102 0.009,-0.0276 0.009,-0.0473 0,-0.0369 -0.0213,-0.0686 -0.0473,-0.0946 -0.0298,-0.0298 -0.0458,-0.0586 -0.0662,-0.0993 -0.0176,-0.0351 -0.0336,-0.0767 -0.0473,-0.10404 -0.0161,-0.0323 -0.0284,-0.0709 -0.0426,-0.0993 -0.0191,-0.0382 -0.0584,-0.0583 -0.0898,-0.0662 -0.0323,-0.008 -0.0715,-0.0431 -0.0898,-0.0615 -0.0223,-0.0223 -0.0443,-0.045 -0.0662,-0.0615 -0.0314,-0.0236 -0.0463,-0.0264 -0.0615,-0.0568 -0.0143,-0.0287 -0.0342,-0.0543 -0.052,-0.0898 -0.0138,-0.0276 -0.0338,-0.0439 -0.0473,-0.0709 -0.0143,-0.0287 -0.004,-0.0745 -0.0142,-0.0946 -0.0136,-0.0272 -0.0237,-0.0711 -0.0378,-0.0993 -0.0159,-0.0318 -0.026,-0.0378 -0.0426,-0.071 -0.0211,-0.0422 0.005,-0.0661 -0.0237,-0.0946 -0.0269,-0.027 -0.0285,-0.0497 -0.0615,-0.0662 -0.0202,-0.0101 -0.0282,-0.0194 -0.0378,-0.0236 -0.01,-0.004 -0.0198,-0.002 -0.0426,0.009 -0.004,0.002 -0.0338,0.0723 -0.0378,0.0804 -0.0172,0.0343 -0.0412,0.0412 -0.0756,0.0757 -0.0318,0.0318 -0.0501,0.053 -0.0662,0.0851 -0.0142,0.0285 -0.0713,0.009 -0.0898,0.005 -0.0171,-0.004 -0.0203,-0.0217 -0.0189,-0.0426 10e-4,-0.0209 0.004,-0.0443 0,-0.0615 -0.008,-0.0327 0,-0.0796 0,-0.11348 0,-0.0163 0.0177,-0.0167 0.0378,-0.0189 0.0201,-0.002 0.0452,-0.007 0.0567,-0.0189 0.0142,-0.0142 0.0226,-0.0222 0.0237,-0.0331 9.8e-4,-0.0109 -0.005,-0.0244 -0.0237,-0.0426 -0.0212,-0.0212 -0.0744,-0.0127 -0.0993,-0.0189 -0.0527,-0.0132 -0.0735,-0.008 -0.11349,-0.0378 -0.0354,-0.0266 -0.056,-0.049 -0.0662,-0.0898 -0.007,-0.0267 -0.063,-0.0217 -0.0898,-0.0284 -0.0378,-0.009 -0.0769,-0.009 -0.1182,-0.009 -0.0354,-10e-6 -0.0624,0.0286 -0.0993,0.0378 -0.0207,0.005 -0.0382,-0.003 -0.052,-0.005 -0.0138,-10e-4 -0.0253,0.002 -0.0331,0.0331 -0.0104,0.0416 -0.0272,0.0685 -0.0426,0.0993 -0.0127,0.0253 -0.0142,0.067 -0.0142,0.10404 0,0.0461 -0.0125,0.0541 0,0.10404 0.008,0.034 -0.003,0.0788 -0.009,0.10403 -0.01,0.0385 0.01,0.0751 0,0.1135 -0.0123,0.0491 -0.0259,0.0663 -0.005,0.10877 0.0197,0.0393 0.0404,0.048 0.052,0.0946 0.009,0.0375 -0.0142,0.0759 -0.0142,0.1135 0,0.0325 -0.0476,0.0713 -0.0615,0.0899 -0.0174,0.0232 -0.0378,0.0627 -0.0378,0.0946 0,0.0259 -0.0616,0.045 -0.0757,0.052 -0.0376,0.0188 -0.0576,0.05 -0.0804,0.0804 -0.0177,0.0236 -0.0189,0.0798 -0.0189,0.10877 0,0.037 -0.009,0.0742 -0.009,0.11349 0,0.0375 0,0.076 0,0.11351 0,0.0384 0.009,0.0573 0,0.0946 -0.009,0.0358 -0.0522,0.0592 -0.0756,0.0709 -0.0221,0.0111 -0.0433,-10e-4 -0.0567,-0.0189 -0.0135,-0.0177 -0.0236,-0.043 -0.0236,-0.0567 0,-0.04 0,-0.0829 0,-0.12296 0,-0.0319 -0.009,-0.0697 -0.009,-0.10403 0,-0.04 0,-0.0782 0,-0.11823 0,-0.0463 -0.0145,-0.0675 -0.0237,-0.10403 -0.006,-0.023 -0.0581,-0.0581 -0.0756,-0.0757 -0.0258,-0.0258 -0.0607,-0.0469 -0.0898,-0.0615 -0.0239,-0.012 -0.0585,-0.0443 -0.0757,-0.0615 -0.0361,-0.0361 -0.0582,-0.0503 -0.0756,-0.0851 -0.018,-0.036 -0.0651,-0.0426 -0.10402,-0.0426 -0.0413,0 -0.0817,-0.009 -0.11348,-0.0331 -0.0229,-0.0172 -0.0284,-0.0749 -0.0284,-0.0993 0,-0.0474 -0.006,-0.0853 -0.0142,-0.12768 -0.007,-0.0348 -0.003,-0.0831 0.005,-0.11349 0.0107,-0.0426 0.0569,-0.076 0.0709,-0.10404 0.0196,-0.0391 0.0817,-0.0675 0.11348,-0.0993 0.0305,-0.0306 0.047,-0.0754 0.0851,-0.10404 0.0483,-0.0363 0.0985,-0.0634 0.1513,-0.0898 0.0279,-0.014 0.0316,-0.0537 0.0426,-0.0757 0.0197,-0.0394 0.0319,-0.0744 0.0567,-0.0993 0.0305,-0.0305 0.0573,-0.0573 0.0851,-0.0851 0.0242,-0.0242 0.0918,-0.0189 0.10402,-0.0189 0.0167,0 0.0471,0.0895 0.052,0.0993 0.0103,0.0207 0.0182,0.0322 0.0331,0.0378 0.0149,0.006 0.0378,0.004 0.0567,0 0.0378,-0.008 0.0814,-0.028 0.13239,-0.0426 0.0284,-0.008 0.0623,-0.0619 0.0898,-0.0757 0.0268,-0.0134 0.0284,-0.0759 0.0284,-0.10876 0,-0.0431 -0.005,-0.0658 -0.005,-0.10403 0,-0.0214 -0.0626,-0.0455 -0.0757,-0.052 -0.0183,-0.009 -0.02,-0.0301 -0.0142,-0.052 0.006,-0.0219 0.0201,-0.0437 0.0284,-0.052 0.0234,-0.0234 0.064,-0.0396 0.0946,-0.0473 0.0407,-0.0102 0.0779,-0.008 0.10875,-0.0236 0.0333,-0.0166 0.0421,-0.0374 0.0662,-0.0615 0.0374,-0.0375 0.0412,-0.0609 0.052,-0.10404 0.008,-0.0317 0.004,-0.0811 0.009,-0.10403 0.01,-0.0382 0.046,-0.0739 0.0615,-0.0946 0.0114,-0.0152 0.0161,-0.0285 0.0284,-0.0378 0.0123,-0.009 0.0281,-0.0142 0.0567,-0.0142 0.0273,0 0.045,10e-4 0.0567,0.009 0.0117,0.008 0.0186,0.023 0.0284,0.0426 0.014,0.028 0.005,0.0801 0.005,0.1135 0,0.0402 -0.0312,0.0548 -0.052,0.0757 -0.0188,0.0188 0.0659,0.0589 0.0757,0.0662 0.0151,0.0113 0.007,0.0356 -0.009,0.0615 -0.0161,0.0259 -0.0396,0.0509 -0.0426,0.0568 -0.0123,0.0247 -0.0436,0.0494 -0.0615,0.0851 -0.0238,0.0475 -0.0285,0.0544 -0.0946,0.0709 -0.0429,0.0107 -0.0779,0.0437 -0.10402,0.0567 -0.0187,0.009 -0.0194,0.0225 -0.0142,0.0378 0.005,0.0153 0.0133,0.0322 0.0189,0.0378 0.0328,0.0328 0.0469,0.0318 0.0898,0.0426 0.051,0.0127 0.0691,-0.002 0.0993,0.0378 0.0205,0.0274 0.029,0.0391 0.0426,0.0662 0.0192,0.0385 0.0415,0.0619 0.052,0.10403 0.005,0.0187 0.0749,0.0256 0.0993,0.0378 0.0318,0.0159 0.0813,0.0194 0.10875,0.0331 0.0348,0.0174 0.0508,0.0281 0.0898,0.0378 0.0315,0.008 0.0418,0.0235 0.0804,0.0331 0.023,0.006 0.0373,0.008 0.0473,0 0.01,-0.008 0.0138,-0.0222 0.0189,-0.0426 0.004,-0.0169 -0.0143,-0.0379 -0.0331,-0.052 -0.0188,-0.0142 -0.0374,-0.0211 -0.0426,-0.0237 -0.0396,-0.0198 -0.055,-0.0267 -0.0804,-0.052 -0.0206,-0.0206 -0.0298,-0.0386 -0.0284,-0.052 0.001,-0.0134 0.0134,-0.0229 0.0284,-0.0378 0.0145,-0.0146 0.0302,-0.01 0.0473,0 0.0171,0.01 0.0363,0.0268 0.0426,0.0331 0.0164,0.0164 0.0356,0.0118 0.052,0 0.0164,-0.0118 0.0263,-0.0342 0.0284,-0.0426 0.008,-0.0301 0.0142,-0.0498 0.0142,-0.0946 0,-0.0468 -0.0312,-0.0547 -0.0189,-0.10404 0.005,-0.0208 -0.0125,-0.0363 -0.0331,-0.0473 -0.0206,-0.0109 -0.0449,-0.0195 -0.0567,-0.0284 -0.038,-0.0285 -0.0564,-0.0277 -0.0756,-0.0662 -0.0139,-0.0277 -0.004,-0.0424 0.009,-0.0473 0.0139,-0.005 0.0319,-0.003 0.0426,0 0.043,0.0107 0.0508,0.0319 0.0804,0.0615 0.0337,0.0337 0.0334,0.0522 0.0709,0.0709 0.0361,0.0181 0.036,0.0473 0.0756,0.0473 0.0252,0 0.0284,-0.0763 0.0284,-0.0993 0,-0.0404 -0.0189,-0.0703 -0.0189,-0.1135 0,-0.0171 0.0399,-0.0467 0.0473,-0.0615 0.0112,-0.0224 0.0101,-0.0419 0,-0.0568 -0.0101,-0.0148 -0.0276,-0.0276 -0.0378,-0.0378 -0.0269,-0.027 -0.0501,-0.0387 -0.0662,-0.0709 -0.0185,-0.037 -0.0577,-0.0529 -0.0898,-0.0851 -0.005,-0.01 -0.021,4.3e-4 -0.0378,0.005 -0.0168,0.004 -0.0335,0.003 -0.0426,-0.0331 -0.009,-0.0348 0.0111,-0.0821 0.0189,-0.1135 0.009,-0.0358 0.0292,-0.046 0.0378,-0.0804 0.007,-0.027 0.0216,-0.0348 0.0284,-0.0426 0.007,-0.008 0.008,-0.0166 -0.005,-0.0426 -0.009,-0.0182 -0.0575,-0.0382 -0.0756,-0.0473 -0.0301,-0.0151 -0.049,-0.0395 -0.0662,-0.0567 -0.0166,-0.0166 -0.009,-0.0882 -0.009,-0.1135 0,-0.0189 -0.009,-0.0341 -0.0237,-0.0426 -0.0145,-0.008 -0.0319,-0.0112 -0.0473,-0.0189 -0.0272,-0.0136 -0.0584,-0.0142 -0.0993,-0.0142 -0.0327,0 -0.0831,-0.007 -0.11347,-0.0142 -0.0349,-0.009 -0.0806,0.008 -0.10402,0.0142 -0.0327,0.008 -0.0796,0 -0.11348,0 -0.0388,0 -0.0526,-0.0143 -0.0898,-0.0236 -0.024,-0.006 -0.0793,0.042 -0.0993,0.052 -0.0203,0.0102 -0.029,0.003 -0.0331,-0.0142 -0.004,-0.0168 -0.005,-0.0404 -0.005,-0.0568 0,-0.0375 0,-0.076 0,-0.1135 0,-0.016 -0.0117,-0.0245 -0.0284,-0.0284 -0.0167,-0.004 -0.0375,-0.005 -0.052,-0.005 z m 4.09946,0.45871 c -0.0201,0.004 -0.0371,0.0208 -0.0426,0.0426 -0.006,0.0252 -0.009,0.0612 -0.0142,0.0804 -0.002,0.006 -0.0935,-0.0118 -0.14658,0.009 -0.0224,0.009 -0.0546,0.0231 -0.0757,0.0284 -0.0289,0.007 -0.0202,0.0279 -0.0142,0.052 0.008,0.0301 0.0923,0.0361 0.1182,0.0426 0.0181,0.005 0.0424,0.0377 0.0615,0.0567 0.0189,0.0189 0.0511,0.0324 0.0709,0.0473 0.0154,0.0116 0.0318,0.0459 0.052,0.0662 0.021,0.021 0.0573,0.0309 0.0851,0.0378 0.0337,0.008 0.0548,-0.009 0.0898,-0.009 0.0286,0 0.0535,0.0142 0.0851,0.0142 0.0327,0 0.0555,-0.0142 0.0851,-0.0142 0.0241,0 0.0339,-0.0389 0.0473,-0.0567 0.0176,-0.0235 0.0189,-0.0597 0.0189,-0.0899 0,-0.0279 -0.009,-0.0554 -0.0142,-0.0757 -0.006,-0.024 -0.0535,-0.0361 -0.0662,-0.0615 -0.0159,-0.0318 -0.0169,-0.0398 -0.052,-0.0662 -0.024,-0.018 -0.0674,-0.0384 -0.0851,-0.0473 -0.0281,-0.0141 -0.0486,-0.0258 -0.0709,-0.0426 -0.0148,-0.0111 -0.0372,-0.0142 -0.0615,-0.0142 -0.0159,0 -0.0361,0 -0.052,0 -0.007,-0.002 -0.0122,-10e-4 -0.0189,0 z m 1.66436,0.61004 c -0.0305,0.004 -0.0378,0.0499 -0.0378,0.0898 0,0.0403 -0.0539,0.0771 -0.0709,0.0898 -0.0233,0.0175 0.0947,0.0639 0.10403,0.0662 0.0399,0.01 0.0731,0.0439 0.11347,0.052 0.0291,0.006 0.0774,0.0376 0.11349,0.052 0.0207,0.008 0.0271,0.0386 0.0331,0.0709 0.006,0.0323 0.009,0.0652 0.009,0.0851 0,0.0411 -2.4e-4,0.0842 0.009,0.12295 0.0101,0.0404 0.0215,0.0559 0.009,0.10403 -0.006,0.023 -0.009,0.0406 -0.009,0.0567 -9.1e-4,0.0162 0.002,0.03 0.0189,0.0473 0.0311,0.0311 0.11853,0.0145 0.15604,0.052 0.0371,0.0371 0.0661,0.0623 0.10874,0.1135 0.0219,0.0263 -0.002,0.0736 0.0284,0.10403 0.0209,0.0209 0.09,0.0248 0.11348,0.0189 0.0165,-0.004 0.0244,-0.0977 0.0284,-0.1135 0.005,-0.0198 0.034,-0.0301 0.0662,-0.0331 0.0322,-0.003 0.0691,0.001 0.0851,0.009 0.0284,0.0142 0.0314,0.0586 0.0236,0.0898 -0.006,0.0235 -9.2e-4,0.039 0.009,0.052 0.0104,0.013 0.0257,0.0247 0.0426,0.0331 0.0311,0.0155 0.0727,0.0102 0.0946,0.005 0.0347,-0.009 0.0503,-0.058 0.0662,-0.0899 0.0108,-0.0216 0.0154,-0.0379 0.0189,-0.052 0.003,-0.0141 0.006,-0.0266 0.0284,-0.0378 0.0318,-0.0159 0.0466,-0.0405 0.0378,-0.0757 -0.01,-0.0383 -0.0203,-0.0737 -0.0378,-0.10876 -0.0233,-0.0467 -0.0726,-0.0639 -0.11348,-0.0946 -0.0312,-0.0235 -0.0281,-0.0318 -0.0378,-0.0709 -0.007,-0.0263 -0.0516,-0.0471 -0.0804,-0.0615 -0.0265,-0.0132 -0.0438,-0.0598 -0.0756,-0.0757 -0.0462,-0.0231 -0.0906,-0.0301 -0.13239,-0.0615 -0.0425,-0.0319 -0.0799,-0.0434 -0.12294,-0.0757 -0.0416,-0.0312 -0.0781,-0.0686 -0.11348,-0.10403 -0.0349,-0.0349 -0.0691,-0.0502 -0.0946,-0.0757 -0.0313,-0.0313 -0.0804,-0.0496 -0.11348,-0.0662 -0.0428,-0.0214 -0.0669,-0.0466 -0.10403,-0.0615 -0.0449,-0.018 -0.0768,-0.0228 -0.11821,-0.0331 -0.0141,-0.004 -0.03,-0.0161 -0.0425,-0.0236 -0.005,-10e-4 -0.01,-5.6e-4 -0.0142,0 z m -4.13255,2.24627 c -0.0127,0.0127 -0.036,10e-4 -0.052,0.009 -0.0172,0.009 -0.0245,0.0413 -0.0284,0.0568 -0.006,0.0254 -0.004,0.049 -0.009,0.0757 -0.006,0.0303 0.003,0.0783 0.009,0.10403 0.005,0.0204 -0.0276,0.0458 -0.0378,0.0662 -0.0105,0.021 -0.024,0.0382 -0.0378,0.0567 -0.0163,0.0217 -0.0138,0.069 -0.0189,0.0946 -0.006,0.0304 -0.008,0.054 -0.0142,0.0804 -0.005,0.02 -0.005,0.0398 -0.005,0.0615 0,0.0164 0.0389,0.0265 0.052,0.0331 0.0141,0.007 0.0216,-0.01 0.0284,-0.0284 0.007,-0.0187 0.0125,-0.0409 0.0236,-0.052 0.0228,-0.0228 0.0346,-0.0331 0.0662,-0.0331 0.0206,0 0.0428,-0.005 0.0662,-0.005 0.0131,0 0.04,0.008 0.052,0.0142 0.0228,0.0114 0.0367,0.0225 0.052,0.0378 0.0183,0.0183 0.0129,0.0399 0.0426,0.0473 0.0241,0.006 0.0394,0.0189 0.0662,0.0189 0.0275,0 0.0529,0 0.0804,0 0.02,0 0.0412,0 0.0615,0 0.0288,0 0.0284,-0.0183 0.0284,-0.0473 0,-0.0254 0.004,-0.0431 0.009,-0.0662 0.006,-0.0236 -0.005,-0.0393 -0.009,-0.0568 -0.005,-0.0205 -0.0388,-0.0436 -0.052,-0.0567 -0.0294,-0.0294 -0.0616,-0.0243 -0.0709,-0.0615 -0.004,-0.0173 0.005,-0.043 0.005,-0.0615 0,-0.018 0.005,-0.0365 0.005,-0.0567 0,-0.0242 -0.0152,-0.0351 -0.0236,-0.052 -0.0104,-0.0209 -0.0299,-0.0189 -0.052,-0.0189 -0.0208,0 -0.0503,-0.005 -0.0709,-0.009 -0.0233,-0.005 -0.0362,-0.003 -0.052,-0.0189 -0.0173,-0.0173 -0.0331,-0.0146 -0.0331,-0.0426 0,-0.0146 -0.01,-0.0306 -0.0142,-0.0473 -0.005,-0.0198 -0.009,-0.0268 -0.0236,-0.0378 -0.009,-0.007 -0.0327,-0.005 -0.0426,-0.005 z m 7.03101,0.1797 c -0.0241,0.003 -0.025,0.0912 -0.052,0.11823 -0.025,0.025 -0.0505,0.0316 -0.0709,0.052 -0.0351,0.0351 -0.0774,0.0679 -0.11348,0.10405 -0.0309,0.0309 -0.036,0.0924 -0.052,0.13242 -0.0115,0.0286 0,0.0914 0,0.12295 0,0.0402 -0.0461,0.10345 -0.0615,0.14186 -0.01,0.0241 -0.0178,0.0351 -0.0331,0.0426 -0.0153,0.007 -0.0354,0.008 -0.0615,0.0142 -0.0423,0.0106 -0.0766,0.0194 -0.11348,0.0378 -0.0269,0.0135 -0.0477,0.0717 -0.0615,0.0993 -0.0143,0.0286 -0.006,0.0823 -0.0142,0.11349 -0.0126,0.0505 -0.01,0.10756 0,0.15605 0.008,0.0397 0.0141,0.0755 0.0236,0.1135 0.0103,0.0411 -0.008,0.0777 -0.0142,0.10403 -0.01,0.0398 -0.0236,0.0755 -0.0331,0.1135 -0.01,0.0386 0.0378,0.0772 0.0378,0.11823 0,0.0433 0.0111,0.0833 0,0.12768 -0.007,0.0289 0.006,0.0711 0.0236,0.1135 0.0172,0.0424 0.0405,0.0862 0.0473,0.11349 0.005,0.0188 -0.098,0.1433 -0.10875,0.17024 -0.0137,0.0342 -0.0336,0.0797 -0.0567,0.11823 -0.0234,0.039 0.005,0.0829 0.005,0.12296 0,0.0417 0.009,0.0878 0.009,0.13241 0,0.0548 0.009,0.11099 0.009,0.16552 0,0.049 -0.0498,0.11868 -0.0615,0.1655 -0.0111,0.0445 8e-4,0.10089 0.0189,0.13716 0.0135,0.027 -0.011,0.096 -0.0189,0.12766 -0.0133,0.0533 0.0142,0.11291 0.0142,0.16552 0,0.007 0,0.0161 0,0.0236 0,0.073 0.0596,0.17052 0.0756,0.25063 0.009,0.0438 -0.0158,0.068 -0.0236,0.0993 -0.012,0.0479 0.014,0.0843 0.0236,0.12295 0.0157,0.0627 0.003,0.11679 -0.0236,0.17024 -0.0135,0.027 -0.0138,0.0475 -0.009,0.0709 0.004,0.0235 0.0143,0.0475 0.0236,0.0709 0.0181,0.0454 0.002,0.10691 0.0142,0.15605 0.0104,0.0418 -0.005,0.11793 -0.005,0.16552 0,0.0343 -0.0138,0.0505 -0.0236,0.0709 -0.01,0.0204 -0.0151,0.0436 -0.005,0.0851 0.002,0.01 0.002,0.0231 0.005,0.0331 0.009,0.0349 0.0815,0.10843 0.11347,0.13242 0.0223,0.0167 0.0288,0.0347 0.0331,0.052 0.004,0.0173 0.005,0.0346 0.005,0.0615 0,0.0567 0.006,0.0913 0.0426,0.12768 0.0222,0.0223 0.0652,0.0192 0.0898,0.052 0.0202,0.027 0.0189,0.10264 0.0189,0.13714 0,0.0421 10e-4,0.0663 0.0142,0.0898 0.0131,0.0236 0.0372,0.0467 0.0662,0.0757 0.0125,0.0125 0.0253,0.0206 0.0378,0.0331 0.0297,0.0297 0.035,0.0823 0.0662,0.11349 0.0289,0.0289 0.0739,0.0653 0.11349,0.0851 0.0239,0.0119 0.0487,0.004 0.0709,-0.009 0.0222,-0.0131 0.0408,-0.0306 0.0568,-0.0426 0.0466,-0.0349 0.0812,-0.0678 0.10402,-0.11349 0.0309,-0.0619 0.0855,-0.12953 0.0993,-0.19861 0.005,-0.0266 0.0127,-0.0438 0.0284,-0.0568 0.0156,-0.013 0.0401,-0.0224 0.0615,-0.0331 0.0382,-0.0191 0.0743,-0.0607 0.0946,-0.0946 0.0224,-0.0373 0.0626,-0.0624 0.10403,-0.052 0.0319,0.008 0.0543,0.0316 0.0709,0.0567 0.0167,0.0252 0.0315,0.0504 0.0378,0.0757 0.0101,0.0405 -0.0308,0.09 -0.0473,0.12294 -0.0276,0.0552 -0.0147,0.0968 -0.052,0.1466 -0.0333,0.0445 -0.05,0.10953 -0.0709,0.15133 -0.0282,0.0564 -0.021,0.14265 -0.0331,0.20335 -0.005,0.027 -0.0247,0.0806 -0.0378,0.11349 -0.0153,0.0383 -0.0331,0.11116 -0.0331,0.15133 0,0.0532 -0.0556,0.0969 -0.0804,0.14659 -0.0294,0.0589 -0.0514,0.11914 -0.0757,0.17971 -0.0183,0.0458 -0.0407,0.0946 -0.0662,0.13714 -0.0226,0.0378 -0.0418,0.0772 -0.052,0.11822 -0.009,0.0378 -0.0344,0.0688 -0.052,0.10404 -0.0167,0.0333 -0.0197,0.0677 -0.0378,0.10404 -0.0337,0.0675 -0.10906,0.18471 -0.16549,0.24117 -0.0487,0.0487 -0.11178,0.11481 -0.13713,0.16551 -0.0166,0.0333 -0.027,0.0587 -0.0426,0.0899 -0.0227,0.0454 -0.053,0.0965 -0.0804,0.15133 -0.0192,0.0383 -0.0523,0.0573 -0.0709,0.0946 -0.0193,0.0387 -0.0281,0.0547 -0.0331,0.0757 1.08113,-1.26697 1.74002,-2.91025 1.74002,-4.70533 0,-0.9161 -0.17679,-1.78899 -0.48702,-2.59621 -0.0316,0.002 -0.0876,0.0142 -0.12294,0.0142 -0.0228,10e-6 -0.0397,0.0176 -0.052,0.0378 -0.0123,0.0202 -0.0196,0.0453 -0.0236,0.0615 -0.0112,0.0448 -0.009,0.0957 0.005,0.14186 0.0135,0.0461 0.0362,0.0882 0.0615,0.11349 0.0192,0.0192 0.0308,0.0378 0.0284,0.052 -0.002,0.0142 -0.0167,0.0237 -0.0473,0.0237 -0.0331,0 -0.0525,-0.005 -0.0662,-0.0142 -0.0137,-0.009 -0.0209,-0.0209 -0.0378,-0.0378 -0.032,-0.0321 -0.0612,-0.059 -0.10403,-0.0804 -0.0378,-0.0189 -0.0702,-0.0351 -0.10401,-0.052 -0.0243,-0.0122 -0.045,-0.0805 -0.0568,-0.10403 -0.0185,-0.037 -0.0331,-0.0742 -0.0331,-0.11824 0,-0.0299 -0.0305,-0.0751 -0.0426,-0.0993 -0.0146,-0.0292 -0.0349,-0.0603 -0.052,-0.0946 -0.0191,-0.0382 -0.0366,-0.0641 -0.0709,-0.0898 -0.004,-0.003 -0.006,-0.005 -0.009,-0.005 z m -8.96489,3.93925 c -0.005,0.002 -0.0117,0.007 -0.0189,0.0142 -0.0209,0.0209 -0.016,0.0168 -0.052,-0.005 0.008,0 0.0987,0.10939 0.11821,0.14187 0.009,0.0153 0.0353,0.02 0.0615,0.0189 0.0261,-10e-4 0.0512,-0.006 0.0662,-0.009 0.0335,-0.007 0.0422,-0.0267 0.0378,-0.0473 -0.004,-0.0206 -0.022,-0.0441 -0.0378,-0.052 -0.041,-0.0205 -0.0691,-0.0362 -0.11348,-0.0473 -0.0368,-0.009 -0.0457,-0.0211 -0.0615,-0.0142 z m 0.0851,0.31683 c -0.028,0.005 -0.0701,0.0228 -0.0851,0.0378 -0.0119,0.0119 -0.002,0.0341 0.009,0.0567 0.0115,0.0227 0.0279,0.0417 0.0331,0.052 0.0145,0.029 0.1004,0.0378 0.1324,0.0378 0.0269,0 0.0391,-0.0121 0.0426,-0.0284 0.003,-0.0162 -6.2e-4,-0.0356 -0.005,-0.052 -0.007,-0.0296 -0.044,-0.0582 -0.0615,-0.0757 -0.0178,-0.0178 -0.002,-0.004 -0.0426,-0.0284 -0.006,-10e-4 -0.0143,-0.002 -0.0236,0 z m -0.383,0.25537 c -0.0541,-1.4e-4 -0.10481,0.002 -0.15603,0.0426 -0.0622,0.0497 -0.13748,0.1401 -0.17967,0.15605 0.009,0.0233 0.0168,0.0435 0.0331,0.052 0.0163,0.008 0.041,0.008 0.0662,-0.005 0.0413,-0.0207 0.0688,-0.0297 0.10402,-0.0473 0.0365,-0.0183 0.0646,-0.0331 0.10403,-0.0331 0.0506,0 0.0843,0.0175 0.12766,0.0284 0.0328,0.008 0.0578,0.0194 0.0946,0.0378 0.0383,0.0191 0.0734,0.0355 0.10402,0.0662 0.0298,0.0298 0.0848,0.0447 0.11348,0.0662 0.0295,0.0221 0.0839,0.0461 0.11348,0.0757 0.0192,0.0192 0.0598,0.0606 0.0898,0.0757 0.0318,0.0159 0.0589,0.0126 0.0851,0.005 0.0262,-0.008 0.0534,-0.0189 0.0898,-0.0189 0.0266,0 0.0717,0.003 0.11348,0.005 0.0418,0.002 0.0784,0.002 0.0946,-0.0142 0.01,-0.01 0.0239,-0.0237 0.0284,-0.0378 0.004,-0.0141 -3.4e-4,-0.0261 -0.0284,-0.0331 -0.04,-0.01 -0.0752,-0.0223 -0.11821,-0.0331 -0.0595,-0.0149 -0.0407,-0.0416 -0.0898,-0.0662 -0.0557,-0.0279 -0.0722,-0.0358 -0.13713,-0.052 -0.0425,-0.0106 -0.10704,-0.0172 -0.14185,-0.052 -0.0313,-0.0313 -0.0481,-0.0879 -0.0804,-0.10405 -0.0564,-0.0282 -0.0996,-0.0672 -0.1655,-0.0804 -0.0658,-0.0131 -0.14621,-0.0331 -0.21278,-0.0331 -0.0196,0 -0.034,4e-5 -0.052,0 z m 1.26247,0.43033 c -0.0107,-9.7e-4 -0.0224,0.002 -0.0331,0.005 -0.044,0.011 -0.15874,6.7e-4 -0.1655,0.0142 -0.007,0.0125 -0.0171,0.0248 -0.0236,0.0378 -0.0152,0.0304 -0.0127,0.0403 -0.005,0.0473 0.008,0.007 0.0228,0.009 0.0378,0.0236 0.006,0.006 0.019,0.024 0.0236,0.0426 0.005,0.0185 1.5e-4,0.0377 -0.0189,0.0473 -0.004,0.002 -0.0963,0.0486 -0.0946,0.052 0.0125,0.0249 0.0253,0.0331 0.0804,0.0331 0.0459,0 0.0774,0.006 0.11821,0.0142 0.0274,0.005 0.0875,0.0207 0.11348,0.0142 0.0615,-0.0154 0.10744,-0.0318 0.14658,-0.0709 0.033,-0.033 0.0335,-0.0178 0.0946,-0.0331 0.0211,-0.005 0.0464,-0.004 0.0615,-0.009 0.0151,-0.005 0.0236,-0.0158 0.0236,-0.0426 0,-0.0284 -0.0327,-0.0662 -0.0709,-0.0662 -0.0335,0 -0.078,10e-4 -0.10875,-0.0142 -0.0428,-0.0214 -0.0431,-0.0581 -0.0946,-0.0709 -0.0242,-0.006 -0.0529,-0.0207 -0.0851,-0.0236 z m 0.53902,0.16551 c -0.0149,-0.004 -0.0228,0.0179 -0.0236,0.0426 -8.4e-4,0.0247 0.007,0.0516 0.009,0.0615 0.005,0.0219 0.0824,0.0331 0.10875,0.0331 0.0263,0 0.0474,7.7e-4 0.0567,-0.005 0.009,-0.005 0.007,-0.0152 -0.005,-0.0378 -0.016,-0.0319 -0.0253,-0.0694 -0.0567,-0.0851 -0.026,-0.013 -0.0616,-0.009 -0.0898,-0.009 z m 0.42555,0.0331 c -0.008,0.006 -0.0121,0.0266 -0.009,0.0473 0.003,0.0207 0.0135,0.0388 0.0473,0.0473 0.0333,0.008 0.0825,0.005 0.10402,0 0.0175,-0.004 0.0107,-0.0186 -0.005,-0.0378 -0.0154,-0.0192 -0.0359,-0.0392 -0.052,-0.0473 -0.0194,-0.01 -0.0563,-0.009 -0.0804,-0.009 -0.002,-9.8e-4 -0.003,-0.002 -0.005,0 z m -1.54616,0.0473 c -0.006,3.9e-4 -0.0174,0.005 -0.0236,0.005 -0.006,-0.005 -0.073,-0.001 -0.10402,0.0142 -0.0217,0.0108 -0.0358,0.0214 -0.0426,0.0331 -0.007,0.0117 -0.007,0.0284 0.005,0.052 0.0123,0.0246 0.0139,0.0409 0.0189,0.052 0.005,0.0111 0.0146,0.0167 0.0426,0.0236 0.0454,0.0113 0.0862,0.0255 0.12765,0.005 0.032,-0.016 0.0473,-0.0623 0.0473,-0.0993 0,-0.0456 -0.0128,-0.0706 -0.052,-0.0804 -0.006,-0.002 -0.0126,-0.005 -0.0189,-0.005 z m 1.74475,0.17024 c -0.0242,0.005 -0.02,0.0415 0.005,0.0662 0.0295,0.0295 0.0604,0.0195 0.0804,0.009 0.0218,-0.0109 0.0135,-0.029 -0.005,-0.0426 -0.0182,-0.0136 -0.0459,-0.0234 -0.0473,-0.0236 -0.0143,-0.007 -0.025,-0.0112 -0.0331,-0.009 z m 0.14658,0.20808 c -0.0127,0.01 -0.052,0.0421 -0.052,0.0615 0,0.0185 0.0192,0.0183 0.0426,0.0142 0.0233,-0.004 0.0482,-0.0123 0.052,-0.0142 0.0219,-0.011 -0.0176,-0.0455 -0.0378,-0.0615 -7.1e-4,3.4e-4 -0.004,-5.8e-4 -0.005,0 z m 0.0284,0.17025 c 7.9e-4,10e-4 0.004,0.008 0.005,0.009 0.004,-0.003 0.005,-0.009 0.005,-0.009 -4.8e-4,-2e-4 -0.005,-0.002 -0.009,0 z m 0.005,0.009 c -0.0167,0.014 -0.0691,0.0496 -0.0756,0.0757 -0.006,0.0222 0.0923,-0.004 0.0946,-0.005 0.022,-0.011 -0.004,-0.048 -0.0189,-0.0709 z m 0.19859,0.052 c -0.002,0.0224 -0.0257,0.0836 -0.005,0.0993 0.031,0.0232 0.0451,0.0166 0.052,0.005 0.007,-0.0119 0.006,-0.0302 0,-0.0426 -0.0118,-0.0237 -0.0256,-0.0393 -0.0473,-0.0615 z" />
          </g>
        </g>
      </g>
    </g>
  </g>
</svg>
