<?xml version="1.0" encoding="UTF-8" standalone="no"?>
<!-- Created with Inkscape (http://www.inkscape.org/) -->

<svg
   xmlns:dc="http://purl.org/dc/elements/1.1/"
   xmlns:cc="http://creativecommons.org/ns#"
   xmlns:rdf="http://www.w3.org/1999/02/22-rdf-syntax-ns#"
   xmlns:svg="http://www.w3.org/2000/svg"
   xmlns="http://www.w3.org/2000/svg"
   xmlns:sodipodi="http://sodipodi.sourceforge.net/DTD/sodipodi-0.dtd"
   xmlns:inkscape="http://www.inkscape.org/namespaces/inkscape"
   width="97.199997pt"
   height="104pt"
   id="svg2"
   sodipodi:version="0.32"
   inkscape:version="0.47pre2 r22153"
   version="1.0"
   sodipodi:docname="simple-emulab-logo.svg"
   inkscape:export-filename="/home/ricci/www/emulab.png"
   inkscape:export-xdpi="90"
   inkscape:export-ydpi="90">
  <defs
     id="defs4">
    <inkscape:perspective
       sodipodi:type="inkscape:persp3d"
       inkscape:vp_x="0 : 65 : 1"
       inkscape:vp_y="0 : 1000 : 0"
       inkscape:vp_z="121.5 : 65 : 1"
       inkscape:persp3d-origin="60.75 : 43.333333 : 1"
       id="perspective57" />
  </defs>
  <sodipodi:namedview
     id="base"
     pagecolor="#ffffff"
     bordercolor="#666666"
     borderopacity="1.0"
     inkscape:pageopacity="0.0"
     inkscape:pageshadow="2"
     inkscape:zoom="5.1538462"
     inkscape:cx="60.75"
     inkscape:cy="57.238806"
     inkscape:document-units="px"
     inkscape:current-layer="layer3"
     inkscape:window-width="960"
     inkscape:window-height="839"
     inkscape:window-x="140"
     inkscape:window-y="55"
     showgrid="false"
     inkscape:window-maximized="0" />
  <metadata
     id="metadata7">
    <rdf:RDF>
      <cc:Work
         rdf:about="">
        <dc:format>image/svg+xml</dc:format>
        <dc:type
           rdf:resource="http://purl.org/dc/dcmitype/StillImage" />
        <dc:title>Emulab Logo</dc:title>
        <dc:date>3/27/06</dc:date>
        <dc:creator>
          <cc:Agent>
            <dc:title>Robert Ricci</dc:title>
          </cc:Agent>
        </dc:creator>
        <dc:rights>
          <cc:Agent>
            <dc:title>University of Utah, School of Computing, Flux Group</dc:title>
          </cc:Agent>
        </dc:rights>
      </cc:Work>
    </rdf:RDF>
  </metadata>
  <g
     inkscape:groupmode="layer"
     id="layer3"
     inkscape:label="Text"
     style="display:inline">
    <g
       style="font-size:32px;font-style:normal;font-variant:normal;font-weight:normal;font-stretch:normal;text-align:start;line-height:125%;writing-mode:lr-tb;text-anchor:start;fill:#000000;fill-opacity:1;stroke:none;font-family:Emblem"
       id="text3315">
      <path
         d="m 22.394531,116.47266 -13.5937497,0 c -5.3e-6,1.21354 0.5104109,2.23698 1.5312497,3.07031 1.005201,0.83334 2.158846,1.25 3.460938,1.25 1.874988,0 3.453111,-0.85416 4.734375,-2.5625 l 2.976562,1.66406 c -0.984392,1.26042 -2.138036,2.24219 -3.460937,2.94531 -1.32293,0.72396 -2.708345,1.08594 -4.15625,1.08594 -2.729174,0 -4.9479223,-0.89583 -6.6562503,-2.6875 -1.578127,-1.66145 -2.3671887,-3.66666 -2.3671875,-6.01562 -1.2e-6,-2.32291 0.7890605,-4.3177 2.3671875,-5.98438 1.708328,-1.81248 3.9270763,-2.71873 6.6562503,-2.71875 2.026029,2e-5 3.872381,0.737 5.539062,2.21094 1.979149,1.77085 2.968731,4.12761 2.96875,7.07031 l 0,0.67188 m -4.125,-2.94532 c -0.385431,-1.2604 -0.992201,-2.21873 -1.820312,-2.875 -0.854179,-0.64061 -1.856782,-0.96092 -3.007813,-0.96093 -1.135425,10e-6 -2.117195,0.33074 -2.945312,0.99218 -0.854173,0.68231 -1.4192766,1.63022 -1.6953127,2.84375 l 9.4687497,0"
         style=""
         id="path2864" />
      <path
         d="m 47.707031,123.48047 -3.515625,0 0,-10.30469 c -2e-5,-0.95832 -0.257833,-1.71613 -0.773437,-2.27344 -0.510436,-0.55207 -1.148456,-0.82811 -1.914063,-0.82812 -0.89585,1e-5 -1.611995,0.28647 -2.148437,0.85937 -0.531265,0.57814 -0.79689,1.48699 -0.796875,2.72657 l 0,9.82031 -3.523438,0 0,-9.82031 c -1.1e-5,-1.21874 -0.265636,-2.1276 -0.796875,-2.72657 -0.536468,-0.5729 -1.252613,-0.85936 -2.148437,-0.85937 -0.765633,1e-5 -1.406257,0.27866 -1.921875,0.83594 -0.510423,0.55209 -0.765631,1.3073 -0.765625,2.26562 l 0,10.30469 -3.515625,0 0,-10.33594 c -2e-6,-2.04686 0.575518,-3.66926 1.726562,-4.86719 1.130203,-1.17185 2.549473,-1.75779 4.257813,-1.75781 1.234365,2e-5 2.278635,0.25523 3.132812,0.76563 0.833321,0.53647 1.419258,1.26303 1.757813,2.17968 0.36457,-0.87498 0.984361,-1.58852 1.859375,-2.14062 0.874984,-0.53644 1.908837,-0.80467 3.101562,-0.80469 1.68748,2e-5 3.085917,0.57554 4.195313,1.72656 1.192685,1.2396 1.789038,2.87241 1.789062,4.89844 l 0,10.33594"
         style=""
         id="path2866" />
      <path
         d="m 67.144531,116.53516 c -1.7e-5,2.23958 -0.757829,4.05208 -2.273437,5.4375 -1.411472,1.30208 -3.151054,1.95312 -5.21875,1.95312 -2.046883,0 -3.773444,-0.65104 -5.179688,-1.95312 -1.515628,-1.38542 -2.273439,-3.19792 -2.273437,-5.4375 l 0,-9.57032 3.515625,0 0,9.25 c -6e-6,1.19793 0.382806,2.19272 1.148437,2.98438 0.770826,0.78646 1.700512,1.17969 2.789063,1.17969 1.130197,0 2.080717,-0.39583 2.851562,-1.1875 0.744779,-0.76562 1.117174,-1.75781 1.117188,-2.97657 l 0,-9.25 3.523437,0 0,9.57032"
         style=""
         id="path2868" />
      <path
         d="m 78.542969,121.11328 -1.53125,2.8125 c -1.942714,-0.91666 -3.276046,-1.77864 -4,-2.58594 -0.875003,-0.96353 -1.312503,-2.2552 -1.3125,-3.875 l 0,-15.39062 3.515625,0 0,14.75 c -6e-6,0.91667 0.106765,1.59896 0.320312,2.04687 0.192702,0.44792 0.567702,0.83334 1.125,1.15625 l 1.882813,1.08594"
         style=""
         id="path2870" />
      <path
         d="m 96.667969,123.48047 -3.515625,0 0,-2.01563 c -0.598973,0.76563 -1.367201,1.36198 -2.304688,1.78907 -0.958345,0.44791 -2.002615,0.67187 -3.132812,0.67187 -2.541674,0 -4.622401,-0.91666 -6.242188,-2.75 -1.494793,-1.68229 -2.242188,-3.66666 -2.242187,-5.95312 -10e-7,-2.21874 0.768227,-4.17968 2.304687,-5.88282 1.687495,-1.88019 3.799472,-2.82029 6.335938,-2.82031 1.171864,2e-5 2.216134,0.22398 3.132812,0.67188 0.89582,0.44793 1.591132,1.04689 2.085938,1.79687 l 0.0625,-2.02344 3.515625,0 0,16.51563 m -3.390625,-8.25781 c -1.5e-5,-1.46874 -0.502619,-2.72656 -1.507813,-3.77344 -1.000012,-1.04686 -2.203136,-1.5703 -3.609375,-1.57031 -1.453133,10e-6 -2.679695,0.51303 -3.679687,1.53906 -1.026047,1.04688 -1.539067,2.31511 -1.539063,3.80469 -4e-6,1.47396 0.513016,2.73438 1.539063,3.78125 1.020826,1.04167 2.247387,1.5625 3.679687,1.5625 1.385406,0 2.591134,-0.52083 3.617188,-1.5625 0.999985,-1.02604 1.499985,-2.28646 1.5,-3.78125"
         style=""
         id="path2872" />
      <path
         d="m 118.57422,115.22266 c -2e-5,2.64584 -0.88544,4.79167 -2.65625,6.4375 -1.61981,1.51041 -3.57033,2.26562 -5.85156,2.26562 -1.15626,0 -2.22397,-0.23437 -3.20313,-0.70312 -1.00521,-0.44792 -1.72136,-1.03386 -2.14844,-1.75782 l -0.0625,2.01563 -3.51562,0 0,-21.40625 3.51562,0 0,6.91406 c 0.44791,-0.68748 1.18489,-1.27602 2.21094,-1.76562 1.02603,-0.46874 2.09374,-0.70311 3.20313,-0.70313 2.28123,2e-5 4.23175,0.75783 5.85156,2.27344 1.77081,1.64064 2.65623,3.78386 2.65625,6.42969 m -3.71094,0 c -1e-5,-1.53645 -0.47918,-2.8151 -1.4375,-3.83594 -0.98439,-1.0052 -2.21095,-1.5078 -3.67969,-1.50781 -1.47396,10e-6 -2.69011,0.50261 -3.64843,1.50781 -0.96355,1.00001 -1.44532,2.27865 -1.44532,3.83594 0,1.51563 0.48177,2.78646 1.44532,3.8125 0.95832,1.02083 2.17447,1.53125 3.64843,1.53125 1.46874,0 2.6953,-0.51042 3.67969,-1.53125 0.95832,-1.00521 1.43749,-2.27604 1.4375,-3.8125"
         style=""
         id="path2874" />
    </g>
  </g>
  <g
     inkscape:label="Logo"
     inkscape:groupmode="layer"
     id="layer1">
    <g
       id="g3266"
       style="stroke:#000000;stroke-width:1.5;stroke-miterlimit:4;stroke-dasharray:none;stroke-opacity:1"
       inkscape:label="logo group"
       transform="translate(14.08302,0.10164)">
      <g
         id="g3182"
         style="stroke:#000000;stroke-width:1.5;stroke-miterlimit:4;stroke-dasharray:none;stroke-opacity:1">
        <path
           sodipodi:type="arc"
           style="opacity:1;color:#000000;fill:#ccfdd1;fill-opacity:1;fill-rule:evenodd;stroke:#000000;stroke-width:1.31111431;stroke-linecap:butt;stroke-linejoin:round;marker:none;marker-start:none;marker-mid:none;marker-end:none;stroke-miterlimit:4;stroke-dasharray:none;stroke-dashoffset:0;stroke-opacity:1;visibility:visible;display:inline;overflow:visible"
           id="path1394"
           sodipodi:cx="38.125"
           sodipodi:cy="-8.125"
           sodipodi:rx="5.5140939"
           sodipodi:ry="5.5140939"
           d="m 43.639094,-8.125 c 0,3.04535 -2.468744,5.5140939 -5.514094,5.5140939 -3.04535,0 -5.514094,-2.4687439 -5.514094,-5.5140939 0,-3.04535 2.468744,-5.514094 5.514094,-5.514094 3.04535,0 5.514094,2.468744 5.514094,5.514094 z"
           transform="matrix(1.144103,0,0,1.144027,16.21204,20.04604)" />
        <path
           sodipodi:type="arc"
           style="opacity:1;color:#000000;fill:#ccfdd1;fill-opacity:1;fill-rule:evenodd;stroke:#000000;stroke-width:1.31111431;stroke-linecap:butt;stroke-linejoin:round;marker:none;marker-start:none;marker-mid:none;marker-end:none;stroke-miterlimit:4;stroke-dasharray:none;stroke-dashoffset:0;stroke-opacity:1;visibility:visible;display:inline;overflow:visible"
           id="path2278"
           sodipodi:cx="38.125"
           sodipodi:cy="-8.125"
           sodipodi:rx="5.5140939"
           sodipodi:ry="5.5140939"
           d="m 43.639094,-8.125 c 0,3.04535 -2.468744,5.5140939 -5.514094,5.5140939 -3.04535,0 -5.514094,-2.4687439 -5.514094,-5.5140939 0,-3.04535 2.468744,-5.514094 5.514094,-5.514094 3.04535,0 5.514094,2.468744 5.514094,5.514094 z"
           transform="matrix(1.144103,0,0,1.144027,33.40521,20.78061)" />
        <path
           sodipodi:type="arc"
           style="opacity:1;color:#000000;fill:#ccfdd1;fill-opacity:1;fill-rule:evenodd;stroke:#000000;stroke-width:1.31111431;stroke-linecap:butt;stroke-linejoin:round;marker:none;marker-start:none;marker-mid:none;marker-end:none;stroke-miterlimit:4;stroke-dasharray:none;stroke-dashoffset:0;stroke-opacity:1;visibility:visible;display:inline;overflow:visible"
           id="path2280"
           sodipodi:cx="38.125"
           sodipodi:cy="-8.125"
           sodipodi:rx="5.5140939"
           sodipodi:ry="5.5140939"
           d="m 43.639094,-8.125 c 0,3.04535 -2.468744,5.5140939 -5.514094,5.5140939 -3.04535,0 -5.514094,-2.4687439 -5.514094,-5.5140939 0,-3.04535 2.468744,-5.514094 5.514094,-5.514094 3.04535,0 5.514094,2.468744 5.514094,5.514094 z"
           transform="matrix(1.144103,0,0,1.144027,42.49658,35.55408)" />
        <path
           sodipodi:type="arc"
           style="opacity:1;color:#000000;fill:#ccfdd1;fill-opacity:1;fill-rule:evenodd;stroke:#000000;stroke-width:1.31111431;stroke-linecap:butt;stroke-linejoin:round;marker:none;marker-start:none;marker-mid:none;marker-end:none;stroke-miterlimit:4;stroke-dasharray:none;stroke-dashoffset:0;stroke-opacity:1;visibility:visible;display:inline;overflow:visible"
           id="path2282"
           sodipodi:cx="38.125"
           sodipodi:cy="-8.125"
           sodipodi:rx="5.5140939"
           sodipodi:ry="5.5140939"
           d="m 43.639094,-8.125 c 0,3.04535 -2.468744,5.5140939 -5.514094,5.5140939 -3.04535,0 -5.514094,-2.4687439 -5.514094,-5.5140939 0,-3.04535 2.468744,-5.514094 5.514094,-5.514094 3.04535,0 5.514094,2.468744 5.514094,5.514094 z"
           transform="matrix(1.144103,0,0,1.144027,34.16281,50.70637)" />
        <path
           sodipodi:type="arc"
           style="opacity:1;color:#000000;fill:#ccfdd1;fill-opacity:1;fill-rule:evenodd;stroke:#000000;stroke-width:1.31111431;stroke-linecap:butt;stroke-linejoin:round;marker:none;marker-start:none;marker-mid:none;marker-end:none;stroke-miterlimit:4;stroke-dasharray:none;stroke-dashoffset:0;stroke-opacity:1;visibility:visible;display:inline;overflow:visible"
           id="path2284"
           sodipodi:cx="38.125"
           sodipodi:cy="-8.125"
           sodipodi:rx="5.5140939"
           sodipodi:ry="5.5140939"
           d="m 43.639094,-8.125 c 0,3.04535 -2.468744,5.5140939 -5.514094,5.5140939 -3.04535,0 -5.514094,-2.4687439 -5.514094,-5.5140939 0,-3.04535 2.468744,-5.514094 5.514094,-5.514094 3.04535,0 5.514094,2.468744 5.514094,5.514094 z"
           transform="matrix(1.144103,0,0,1.144027,16.61142,50.32757)" />
        <path
           sodipodi:type="arc"
           style="opacity:1;color:#000000;fill:#ccfdd1;fill-opacity:1;fill-rule:evenodd;stroke:#000000;stroke-width:1.31111431;stroke-linecap:butt;stroke-linejoin:round;marker:none;marker-start:none;marker-mid:none;marker-end:none;stroke-miterlimit:4;stroke-dasharray:none;stroke-dashoffset:0;stroke-opacity:1;visibility:visible;display:inline;overflow:visible"
           id="path2286"
           sodipodi:cx="38.125"
           sodipodi:cy="-8.125"
           sodipodi:rx="5.5140939"
           sodipodi:ry="5.5140939"
           d="m 43.639094,-8.125 c 0,3.04535 -2.468744,5.5140939 -5.514094,5.5140939 -3.04535,0 -5.514094,-2.4687439 -5.514094,-5.5140939 0,-3.04535 2.468744,-5.514094 5.514094,-5.514094 3.04535,0 5.514094,2.468744 5.514094,5.514094 z"
           transform="matrix(1.144103,0,0,1.144027,7.014966,35.30154)" />
        <path
           sodipodi:type="arc"
           style="opacity:1;color:#000000;fill:#1be12d;fill-opacity:1;fill-rule:evenodd;stroke:#000000;stroke-width:1.31111431;stroke-linecap:butt;stroke-linejoin:round;marker:none;marker-start:none;marker-mid:none;marker-end:none;stroke-miterlimit:4;stroke-dasharray:none;stroke-dashoffset:0;stroke-opacity:1;visibility:visible;display:inline;overflow:visible"
           id="path2288"
           sodipodi:cx="38.125"
           sodipodi:cy="-8.125"
           sodipodi:rx="5.5140939"
           sodipodi:ry="5.5140939"
           d="m 43.639094,-8.125 c 0,3.04535 -2.468744,5.5140939 -5.514094,5.5140939 -3.04535,0 -5.514094,-2.4687439 -5.514094,-5.5140939 0,-3.04535 2.468744,-5.514094 5.514094,-5.514094 3.04535,0 5.514094,2.468744 5.514094,5.514094 z"
           transform="matrix(1.144103,0,0,1.144027,24.4401,35.30155)" />
        <path
           style="fill:none;fill-opacity:0.75;fill-rule:evenodd;stroke:#000000;stroke-width:1.5;stroke-linecap:butt;stroke-linejoin:miter;stroke-miterlimit:4;stroke-dasharray:none;stroke-opacity:1;display:inline"
           d="M 63.008265,16.283608 L 65.154839,20.576756"
           id="path3164" />
        <path
           style="fill:none;fill-opacity:0.75;fill-rule:evenodd;stroke:#000000;stroke-width:1.5;stroke-linecap:butt;stroke-linejoin:miter;stroke-miterlimit:4;stroke-dasharray:none;stroke-opacity:1;display:inline"
           d="M 73.993674,16.914953 L 71.342024,20.703025"
           id="path3166" />
        <path
           style="fill:none;fill-opacity:0.75;fill-rule:evenodd;stroke:#000000;stroke-width:1.5;stroke-linecap:butt;stroke-linejoin:miter;stroke-miterlimit:4;stroke-dasharray:none;stroke-opacity:1;display:inline"
           d="M 79.549513,26.511402 L 74.49875,26.511402"
           id="path3168" />
        <path
           style="fill:none;fill-opacity:0.75;fill-rule:evenodd;stroke:#000000;stroke-width:1.5;stroke-linecap:butt;stroke-linejoin:miter;stroke-miterlimit:4;stroke-dasharray:none;stroke-opacity:1;display:inline"
           d="M 74.372481,36.107851 L 71.342024,31.562165"
           id="path3170" />
        <path
           style="fill:none;fill-opacity:0.75;fill-rule:evenodd;stroke:#000000;stroke-width:1.5;stroke-linecap:butt;stroke-linejoin:miter;stroke-miterlimit:4;stroke-dasharray:none;stroke-opacity:1;display:inline"
           d="M 62.755727,35.476506 L 65.407377,31.562165"
           id="path3172" />
        <path
           style="fill:none;fill-opacity:0.75;fill-rule:evenodd;stroke:#000000;stroke-width:1.5;stroke-linecap:butt;stroke-linejoin:miter;stroke-miterlimit:4;stroke-dasharray:none;stroke-opacity:1;display:inline"
           d="M 56.694812,26.637671 L 61.745574,26.637671"
           id="path3174" />
      </g>
      <g
         transform="translate(-8.144354,45.63475)"
         id="g3197"
         style="stroke:#000000;stroke-width:1.5;stroke-miterlimit:4;stroke-dasharray:none;stroke-opacity:1">
        <path
           sodipodi:type="arc"
           style="opacity:1;color:#000000;fill:#f8b9b9;fill-opacity:1;fill-rule:evenodd;stroke:#000000;stroke-width:1.31111431;stroke-linecap:butt;stroke-linejoin:round;marker:none;marker-start:none;marker-mid:none;marker-end:none;stroke-miterlimit:4;stroke-dasharray:none;stroke-dashoffset:0;stroke-opacity:1;visibility:visible;display:inline;overflow:visible"
           id="path3199"
           sodipodi:cx="38.125"
           sodipodi:cy="-8.125"
           sodipodi:rx="5.5140939"
           sodipodi:ry="5.5140939"
           d="m 43.639094,-8.125 c 0,3.04535 -2.468744,5.5140939 -5.514094,5.5140939 -3.04535,0 -5.514094,-2.4687439 -5.514094,-5.5140939 0,-3.04535 2.468744,-5.514094 5.514094,-5.514094 3.04535,0 5.514094,2.468744 5.514094,5.514094 z"
           transform="matrix(1.144103,0,0,1.144027,16.21204,20.04604)" />
        <path
           sodipodi:type="arc"
           style="opacity:1;color:#000000;fill:#f8b9b9;fill-opacity:1;fill-rule:evenodd;stroke:#000000;stroke-width:1.31111431;stroke-linecap:butt;stroke-linejoin:round;marker:none;marker-start:none;marker-mid:none;marker-end:none;stroke-miterlimit:4;stroke-dasharray:none;stroke-dashoffset:0;stroke-opacity:1;visibility:visible;display:inline;overflow:visible"
           id="path3201"
           sodipodi:cx="38.125"
           sodipodi:cy="-8.125"
           sodipodi:rx="5.5140939"
           sodipodi:ry="5.5140939"
           d="m 43.639094,-8.125 c 0,3.04535 -2.468744,5.5140939 -5.514094,5.5140939 -3.04535,0 -5.514094,-2.4687439 -5.514094,-5.5140939 0,-3.04535 2.468744,-5.514094 5.514094,-5.514094 3.04535,0 5.514094,2.468744 5.514094,5.514094 z"
           transform="matrix(1.144103,0,0,1.144027,33.40521,20.78061)" />
        <path
           sodipodi:type="arc"
           style="opacity:1;color:#000000;fill:#f8b9b9;fill-opacity:1;fill-rule:evenodd;stroke:#000000;stroke-width:1.31111431;stroke-linecap:butt;stroke-linejoin:round;marker:none;marker-start:none;marker-mid:none;marker-end:none;stroke-miterlimit:4;stroke-dasharray:none;stroke-dashoffset:0;stroke-opacity:1;visibility:visible;display:inline;overflow:visible"
           id="path3203"
           sodipodi:cx="38.125"
           sodipodi:cy="-8.125"
           sodipodi:rx="5.5140939"
           sodipodi:ry="5.5140939"
           d="m 43.639094,-8.125 c 0,3.04535 -2.468744,5.5140939 -5.514094,5.5140939 -3.04535,0 -5.514094,-2.4687439 -5.514094,-5.5140939 0,-3.04535 2.468744,-5.514094 5.514094,-5.514094 3.04535,0 5.514094,2.468744 5.514094,5.514094 z"
           transform="matrix(1.144103,0,0,1.144027,42.49658,35.55408)" />
        <path
           sodipodi:type="arc"
           style="opacity:1;color:#000000;fill:#f8b9b9;fill-opacity:1;fill-rule:evenodd;stroke:#000000;stroke-width:1.31111431;stroke-linecap:butt;stroke-linejoin:round;marker:none;marker-start:none;marker-mid:none;marker-end:none;stroke-miterlimit:4;stroke-dasharray:none;stroke-dashoffset:0;stroke-opacity:1;visibility:visible;display:inline;overflow:visible"
           id="path3205"
           sodipodi:cx="38.125"
           sodipodi:cy="-8.125"
           sodipodi:rx="5.5140939"
           sodipodi:ry="5.5140939"
           d="m 43.639094,-8.125 c 0,3.04535 -2.468744,5.5140939 -5.514094,5.5140939 -3.04535,0 -5.514094,-2.4687439 -5.514094,-5.5140939 0,-3.04535 2.468744,-5.514094 5.514094,-5.514094 3.04535,0 5.514094,2.468744 5.514094,5.514094 z"
           transform="matrix(1.144103,0,0,1.144027,34.16281,50.70637)" />
        <path
           sodipodi:type="arc"
           style="opacity:1;color:#000000;fill:#f8b9b9;fill-opacity:1;fill-rule:evenodd;stroke:#000000;stroke-width:1.31111431;stroke-linecap:butt;stroke-linejoin:round;marker:none;marker-start:none;marker-mid:none;marker-end:none;stroke-miterlimit:4;stroke-dasharray:none;stroke-dashoffset:0;stroke-opacity:1;visibility:visible;display:inline;overflow:visible"
           id="path3207"
           sodipodi:cx="38.125"
           sodipodi:cy="-8.125"
           sodipodi:rx="5.5140939"
           sodipodi:ry="5.5140939"
           d="m 43.639094,-8.125 c 0,3.04535 -2.468744,5.5140939 -5.514094,5.5140939 -3.04535,0 -5.514094,-2.4687439 -5.514094,-5.5140939 0,-3.04535 2.468744,-5.514094 5.514094,-5.514094 3.04535,0 5.514094,2.468744 5.514094,5.514094 z"
           transform="matrix(1.144103,0,0,1.144027,16.61142,50.32757)" />
        <path
           sodipodi:type="arc"
           style="opacity:1;color:#000000;fill:#f8b9b9;fill-opacity:1;fill-rule:evenodd;stroke:#000000;stroke-width:1.31111431;stroke-linecap:butt;stroke-linejoin:round;marker:none;marker-start:none;marker-mid:none;marker-end:none;stroke-miterlimit:4;stroke-dasharray:none;stroke-dashoffset:0;stroke-opacity:1;visibility:visible;display:inline;overflow:visible"
           id="path3209"
           sodipodi:cx="38.125"
           sodipodi:cy="-8.125"
           sodipodi:rx="5.5140939"
           sodipodi:ry="5.5140939"
           d="m 43.639094,-8.125 c 0,3.04535 -2.468744,5.5140939 -5.514094,5.5140939 -3.04535,0 -5.514094,-2.4687439 -5.514094,-5.5140939 0,-3.04535 2.468744,-5.514094 5.514094,-5.514094 3.04535,0 5.514094,2.468744 5.514094,5.514094 z"
           transform="matrix(1.144103,0,0,1.144027,7.014966,35.30154)" />
        <path
           sodipodi:type="arc"
           style="opacity:1;color:#000000;fill:#e21a1a;fill-opacity:1;fill-rule:evenodd;stroke:#000000;stroke-width:1.31111431;stroke-linecap:butt;stroke-linejoin:round;marker:none;marker-start:none;marker-mid:none;marker-end:none;stroke-miterlimit:4;stroke-dasharray:none;stroke-dashoffset:0;stroke-opacity:1;visibility:visible;display:inline;overflow:visible"
           id="path3211"
           sodipodi:cx="38.125"
           sodipodi:cy="-8.125"
           sodipodi:rx="5.5140939"
           sodipodi:ry="5.5140939"
           d="m 43.639094,-8.125 c 0,3.04535 -2.468744,5.5140939 -5.514094,5.5140939 -3.04535,0 -5.514094,-2.4687439 -5.514094,-5.5140939 0,-3.04535 2.468744,-5.514094 5.514094,-5.514094 3.04535,0 5.514094,2.468744 5.514094,5.514094 z"
           transform="matrix(1.144103,0,0,1.144027,24.4401,35.30155)" />
        <path
           style="fill:none;fill-opacity:0.75;fill-rule:evenodd;stroke:#000000;stroke-width:1.5;stroke-linecap:butt;stroke-linejoin:miter;stroke-miterlimit:4;stroke-dasharray:none;stroke-opacity:1;display:inline"
           d="M 63.008265,16.283608 L 65.154839,20.576756"
           id="path3213" />
        <path
           style="fill:none;fill-opacity:0.75;fill-rule:evenodd;stroke:#000000;stroke-width:1.5;stroke-linecap:butt;stroke-linejoin:miter;stroke-miterlimit:4;stroke-dasharray:none;stroke-opacity:1;display:inline"
           d="M 73.993674,16.914953 L 71.342024,20.703025"
           id="path3215" />
        <path
           style="fill:none;fill-opacity:0.75;fill-rule:evenodd;stroke:#000000;stroke-width:1.5;stroke-linecap:butt;stroke-linejoin:miter;stroke-miterlimit:4;stroke-dasharray:none;stroke-opacity:1;display:inline"
           d="M 79.549513,26.511402 L 74.49875,26.511402"
           id="path3217" />
        <path
           style="fill:none;fill-opacity:0.75;fill-rule:evenodd;stroke:#000000;stroke-width:1.5;stroke-linecap:butt;stroke-linejoin:miter;stroke-miterlimit:4;stroke-dasharray:none;stroke-opacity:1;display:inline"
           d="M 74.372481,36.107851 L 71.342024,31.562165"
           id="path3219" />
        <path
           style="fill:none;fill-opacity:0.75;fill-rule:evenodd;stroke:#000000;stroke-width:1.5;stroke-linecap:butt;stroke-linejoin:miter;stroke-miterlimit:4;stroke-dasharray:none;stroke-opacity:1;display:inline"
           d="M 62.755727,35.476506 L 65.407377,31.562165"
           id="path3221" />
        <path
           style="fill:none;fill-opacity:0.75;fill-rule:evenodd;stroke:#000000;stroke-width:1.5;stroke-linecap:butt;stroke-linejoin:miter;stroke-miterlimit:4;stroke-dasharray:none;stroke-opacity:1;display:inline"
           d="M 56.694812,26.637671 L 61.745574,26.637671"
           id="path3223" />
      </g>
      <g
         transform="translate(-43.41543,14.17606)"
         id="g3225"
         style="stroke:#000000;stroke-width:1.5;stroke-miterlimit:4;stroke-dasharray:none;stroke-opacity:1">
        <path
           sodipodi:type="arc"
           style="opacity:1;color:#000000;fill:#a5bfff;fill-opacity:1;fill-rule:evenodd;stroke:#000000;stroke-width:1.31111431;stroke-linecap:butt;stroke-linejoin:round;marker:none;marker-start:none;marker-mid:none;marker-end:none;stroke-miterlimit:4;stroke-dasharray:none;stroke-dashoffset:0;stroke-opacity:1;visibility:visible;display:inline;overflow:visible"
           id="path3227"
           sodipodi:cx="38.125"
           sodipodi:cy="-8.125"
           sodipodi:rx="5.5140939"
           sodipodi:ry="5.5140939"
           d="m 43.639094,-8.125 c 0,3.04535 -2.468744,5.5140939 -5.514094,5.5140939 -3.04535,0 -5.514094,-2.4687439 -5.514094,-5.5140939 0,-3.04535 2.468744,-5.514094 5.514094,-5.514094 3.04535,0 5.514094,2.468744 5.514094,5.514094 z"
           transform="matrix(1.144103,0,0,1.144027,16.21204,20.04604)" />
        <path
           sodipodi:type="arc"
           style="opacity:1;color:#000000;fill:#a5bfff;fill-opacity:1;fill-rule:evenodd;stroke:#000000;stroke-width:1.31111431;stroke-linecap:butt;stroke-linejoin:round;marker:none;marker-start:none;marker-mid:none;marker-end:none;stroke-miterlimit:4;stroke-dasharray:none;stroke-dashoffset:0;stroke-opacity:1;visibility:visible;display:inline;overflow:visible"
           id="path3229"
           sodipodi:cx="38.125"
           sodipodi:cy="-8.125"
           sodipodi:rx="5.5140939"
           sodipodi:ry="5.5140939"
           d="m 43.639094,-8.125 c 0,3.04535 -2.468744,5.5140939 -5.514094,5.5140939 -3.04535,0 -5.514094,-2.4687439 -5.514094,-5.5140939 0,-3.04535 2.468744,-5.514094 5.514094,-5.514094 3.04535,0 5.514094,2.468744 5.514094,5.514094 z"
           transform="matrix(1.144103,0,0,1.144027,33.40521,20.78061)" />
        <path
           sodipodi:type="arc"
           style="opacity:1;color:#000000;fill:#a5bfff;fill-opacity:1;fill-rule:evenodd;stroke:#000000;stroke-width:1.31111431;stroke-linecap:butt;stroke-linejoin:round;marker:none;marker-start:none;marker-mid:none;marker-end:none;stroke-miterlimit:4;stroke-dasharray:none;stroke-dashoffset:0;stroke-opacity:1;visibility:visible;display:inline;overflow:visible"
           id="path3231"
           sodipodi:cx="38.125"
           sodipodi:cy="-8.125"
           sodipodi:rx="5.5140939"
           sodipodi:ry="5.5140939"
           d="m 43.639094,-8.125 c 0,3.04535 -2.468744,5.5140939 -5.514094,5.5140939 -3.04535,0 -5.514094,-2.4687439 -5.514094,-5.5140939 0,-3.04535 2.468744,-5.514094 5.514094,-5.514094 3.04535,0 5.514094,2.468744 5.514094,5.514094 z"
           transform="matrix(1.144103,0,0,1.144027,42.49658,35.55408)" />
        <path
           sodipodi:type="arc"
           style="opacity:1;color:#000000;fill:#a5bfff;fill-opacity:1;fill-rule:evenodd;stroke:#000000;stroke-width:1.31111431;stroke-linecap:butt;stroke-linejoin:round;marker:none;marker-start:none;marker-mid:none;marker-end:none;stroke-miterlimit:4;stroke-dasharray:none;stroke-dashoffset:0;stroke-opacity:1;visibility:visible;display:inline;overflow:visible"
           id="path3233"
           sodipodi:cx="38.125"
           sodipodi:cy="-8.125"
           sodipodi:rx="5.5140939"
           sodipodi:ry="5.5140939"
           d="m 43.639094,-8.125 c 0,3.04535 -2.468744,5.5140939 -5.514094,5.5140939 -3.04535,0 -5.514094,-2.4687439 -5.514094,-5.5140939 0,-3.04535 2.468744,-5.514094 5.514094,-5.514094 3.04535,0 5.514094,2.468744 5.514094,5.514094 z"
           transform="matrix(1.144103,0,0,1.144027,34.16281,50.70637)" />
        <path
           sodipodi:type="arc"
           style="opacity:1;color:#000000;fill:#a5bfff;fill-opacity:1;fill-rule:evenodd;stroke:#000000;stroke-width:1.31111431;stroke-linecap:butt;stroke-linejoin:round;marker:none;marker-start:none;marker-mid:none;marker-end:none;stroke-miterlimit:4;stroke-dasharray:none;stroke-dashoffset:0;stroke-opacity:1;visibility:visible;display:inline;overflow:visible"
           id="path3235"
           sodipodi:cx="38.125"
           sodipodi:cy="-8.125"
           sodipodi:rx="5.5140939"
           sodipodi:ry="5.5140939"
           d="m 43.639094,-8.125 c 0,3.04535 -2.468744,5.5140939 -5.514094,5.5140939 -3.04535,0 -5.514094,-2.4687439 -5.514094,-5.5140939 0,-3.04535 2.468744,-5.514094 5.514094,-5.514094 3.04535,0 5.514094,2.468744 5.514094,5.514094 z"
           transform="matrix(1.144103,0,0,1.144027,16.61142,50.32757)" />
        <path
           sodipodi:type="arc"
           style="opacity:1;color:#000000;fill:#a5bfff;fill-opacity:1;fill-rule:evenodd;stroke:#000000;stroke-width:1.31111431;stroke-linecap:butt;stroke-linejoin:round;marker:none;marker-start:none;marker-mid:none;marker-end:none;stroke-miterlimit:4;stroke-dasharray:none;stroke-dashoffset:0;stroke-opacity:1;visibility:visible;display:inline;overflow:visible"
           id="path3237"
           sodipodi:cx="38.125"
           sodipodi:cy="-8.125"
           sodipodi:rx="5.5140939"
           sodipodi:ry="5.5140939"
           d="m 43.639094,-8.125 c 0,3.04535 -2.468744,5.5140939 -5.514094,5.5140939 -3.04535,0 -5.514094,-2.4687439 -5.514094,-5.5140939 0,-3.04535 2.468744,-5.514094 5.514094,-5.514094 3.04535,0 5.514094,2.468744 5.514094,5.514094 z"
           transform="matrix(1.144103,0,0,1.144027,7.014966,35.30154)" />
        <path
           sodipodi:type="arc"
           style="opacity:1;color:#000000;fill:#1930e3;fill-opacity:1;fill-rule:evenodd;stroke:#000000;stroke-width:1.31111431;stroke-linecap:butt;stroke-linejoin:round;marker:none;marker-start:none;marker-mid:none;marker-end:none;stroke-miterlimit:4;stroke-dasharray:none;stroke-dashoffset:0;stroke-opacity:1;visibility:visible;display:inline;overflow:visible"
           id="path3239"
           sodipodi:cx="38.125"
           sodipodi:cy="-8.125"
           sodipodi:rx="5.5140939"
           sodipodi:ry="5.5140939"
           d="m 43.639094,-8.125 c 0,3.04535 -2.468744,5.5140939 -5.514094,5.5140939 -3.04535,0 -5.514094,-2.4687439 -5.514094,-5.5140939 0,-3.04535 2.468744,-5.514094 5.514094,-5.514094 3.04535,0 5.514094,2.468744 5.514094,5.514094 z"
           transform="matrix(1.144103,0,0,1.144027,24.4401,35.30155)" />
        <path
           style="fill:none;fill-opacity:0.75;fill-rule:evenodd;stroke:#000000;stroke-width:1.5;stroke-linecap:butt;stroke-linejoin:miter;stroke-miterlimit:4;stroke-dasharray:none;stroke-opacity:1;display:inline"
           d="M 63.008265,16.283608 L 65.154839,20.576756"
           id="path3241" />
        <path
           style="fill:none;fill-opacity:0.75;fill-rule:evenodd;stroke:#000000;stroke-width:1.5;stroke-linecap:butt;stroke-linejoin:miter;stroke-miterlimit:4;stroke-dasharray:none;stroke-opacity:1;display:inline"
           d="M 73.993674,16.914953 L 71.342024,20.703025"
           id="path3243" />
        <path
           style="fill:none;fill-opacity:0.75;fill-rule:evenodd;stroke:#000000;stroke-width:1.5;stroke-linecap:butt;stroke-linejoin:miter;stroke-miterlimit:4;stroke-dasharray:none;stroke-opacity:1;display:inline"
           d="M 79.549513,26.511402 L 74.49875,26.511402"
           id="path3245" />
        <path
           style="fill:none;fill-opacity:0.75;fill-rule:evenodd;stroke:#000000;stroke-width:1.5;stroke-linecap:butt;stroke-linejoin:miter;stroke-miterlimit:4;stroke-dasharray:none;stroke-opacity:1;display:inline"
           d="M 74.372481,36.107851 L 71.342024,31.562165"
           id="path3247" />
        <path
           style="fill:none;fill-opacity:0.75;fill-rule:evenodd;stroke:#000000;stroke-width:1.5;stroke-linecap:butt;stroke-linejoin:miter;stroke-miterlimit:4;stroke-dasharray:none;stroke-opacity:1;display:inline"
           d="M 62.755727,35.476506 L 65.407377,31.562165"
           id="path3249" />
        <path
           style="fill:none;fill-opacity:0.75;fill-rule:evenodd;stroke:#000000;stroke-width:1.5;stroke-linecap:butt;stroke-linejoin:miter;stroke-miterlimit:4;stroke-dasharray:none;stroke-opacity:1;display:inline"
           d="M 56.694812,26.637671 L 61.745574,26.637671"
           id="path3251" />
      </g>
      <g
         id="g3261"
         style="stroke:#000000;stroke-width:1.5;stroke-miterlimit:4;stroke-dasharray:none;stroke-opacity:1">
        <path
           style="fill:none;fill-opacity:0.75;fill-rule:evenodd;stroke:#000000;stroke-width:1.5;stroke-linecap:butt;stroke-linejoin:miter;stroke-miterlimit:4;stroke-dasharray:none;stroke-opacity:1"
           d="M 39.774757,65.907352 L 37.249375,61.235396"
           id="path3255" />
        <path
           style="fill:none;fill-opacity:0.75;fill-rule:evenodd;stroke:#000000;stroke-width:1.5;stroke-linecap:butt;stroke-linejoin:miter;stroke-miterlimit:4;stroke-dasharray:none;stroke-opacity:1"
           d="M 66.038723,51.512678 L 63.008265,46.714453"
           id="path3257" />
        <path
           style="fill:none;fill-opacity:0.75;fill-rule:evenodd;stroke:#000000;stroke-width:1.5;stroke-linecap:butt;stroke-linejoin:miter;stroke-miterlimit:4;stroke-dasharray:none;stroke-opacity:1"
           d="M 47.350901,31.435896 L 45.709403,34.97143"
           id="path3259" />
      </g>
    </g>
  </g>
</svg>
